<mxfile host="Electron" agent="Mozilla/5.0 (Windows NT 10.0; Win64; x64) AppleWebKit/537.36 (KHTML, like Gecko) draw.io/24.7.5 Chrome/126.0.6478.183 Electron/31.3.0 Safari/537.36" version="24.7.5">
  <diagram name="Page-1" id="B8vkxwe3hk2IdyELFEtC">
    <mxGraphModel dx="1195" dy="1387" grid="1" gridSize="10" guides="1" tooltips="1" connect="1" arrows="1" fold="1" page="1" pageScale="1" pageWidth="980" pageHeight="690" math="0" shadow="0">
      <root>
        <mxCell id="0" />
        <mxCell id="1" parent="0" />
        <mxCell id="mkm3d1DuU5u3OIYWBEYe-1" value="" style="shape=image;verticalLabelPosition=bottom;labelBackgroundColor=default;verticalAlign=top;aspect=fixed;imageAspect=0;image=data:image/png,iVBORw0KGgoAAAANSUhEUgAAAr4AAANXCAYAAADTu1yLAAAAAXNSR0IArs4c6QAAAARnQU1BAACxjwv8YQUAAAAJcEhZcwAADsMAAA7DAcdvqGQAAP+lSURBVHhe7J0HeBRVF4ZJD0lIARJ67733joD03nsTBKSrKFYUrChg7733hr1gBXtXVJrYEQEFBIT857/vzU6YLJuQhGSzyZ73ec6TTNmZ2dmZc7977rn3FhNFURRFURRFCQJU+CqKoiiKoihBgQpfRVEURVEUJShQ4asoiqIoiqIEBSp8FUVRFEVRlKBAha+iKIqiKIoSFKjwVRRFURRFUYICFb6KoiiKoihKUKDCV1EURVEURQkKVPgqiqIoiqIoQYEKX0VRFEVRFCUoUOGrKIqiKIqiBAUqfBVFURRFUZSgQIWvoiiKoiiKEhSo8FUURVEURVGCAhW+imK46667pFixYmoBZCEhIfK///3P8wspiqLkjubNm1t/4svPqAW+/ffff55fMm9Q4asoBoTvsGHD5KefflILAPvxxx8lNDRUha+iKCcMwvf555+X7du3+/Q3aoFplAMREREqfBUlP0D4Tpw40bOkFDSpqakqfBVFyRMQvh9//LH6k0IG5YAKX0XJJ1T4BhYqfBVFyStU+BZOVPgqSj6iwjewUOGrKEpeocK3cKLCV1HyERW+gYUKX0VR8goVvoUTFb6Kko+o8A0sVPgqipJXqPAtnKjwVZR8RIVvYKHCV1GUvEKFb+FEha+i5COFSfju27dPfvnlF9m5c2eeOHKOsWvXLvn555/l77//DojCQYWvoih5RWEWvvnhn/Gvf/75py1H9u/f71kbeKjwVZR8pKCFLy94/fr1pU6dOsfYnXfeafc5cuSILFu2TCpUqCBRUVGSmJhoxx7GgcF7771n98c5ulm0aJHMnz/fs5SRv/76y37vUqVK2WOWKVNGlixZIocOHfLsUTCo8FUUJa8IROH7zjvvZOrzv/76a3ut+OcJEyak++eUlBQ588wz5cCBA/YYN954o/Tr18+WDW769OkjN998s/Wj3mzatMl+JiEhwR6zcuXKsmbNmmOOEQio8FWUfCQQhG9YWJi9hhUrVmSw999/3+5z3nnnWUeF+F2/fr3cc889UqlSJTn55JOt03r11VftLDdEB9yMHj1aRowY4Vk6Cs6kR48eUrZsWbntttuscL788sulePHi9hwFiQpfRVHyikAUvi+++KJERkbK+eeff4zP/+233+Tw4cPSvXt3KV++vPXP7777rlxxxRUSGxtrP4OPXL58uTRo0MDu66Zu3bpyySWXHCN8KRvqGGHNZx555BF5++235fTTT7fi8v777z9m/4KG61Hhqyj5RKAI37Vr13rWZGTHjh3W4eHM3M6b2Yj43Lfffptj4fvCCy9IeHi4vP766541ac1qS5culSpVqsi///7rWet/uB8qfBVFyQsCVfjGxMTIP//841mTkWeffdb657feeivDdRMAqVq1quzduzfHwnflypWSlJQkP/zwQ/ox2WfkyJHSpUuXY45T0KjwVZR8JNCF7+OPP26F4B9//OFZkwaO6rPPPrN5vzkVvgsWLJCGDRse4+xIlfjiiy8KtOlLha+iKHlFYRS+c+fOlaZNmx4j+hz/jN/OqfClhQ+R6+3bKVcIngSav1Xhqyj5SKAI33r16kmHDh0yGDX71atX2yavrHJvcyp8yQ/GAhEVvoqi5BWBKnyJ6LZp0yaDv582bZoVsoMHD7a+O6sARE6EL8chp9hJkygMqPBVlHwkUIQvHRlwZm47ePCgXHvttbbjmS/hy2dx6I7wpUOEm1GjRvkUvtT8Bw0a5Fk6CsdyjllQcH4Vvoqi5AWBnONL6oLb399xxx1WpBKUwG97C1+3f2Z/xKy3MCSP11v48j8tfOecc06G9cCxAtHXcp0qfBUlnwj0VIcnnnhCQkJC5Pfff/esSWPPnj3Svn172bBhg+0Eh/Bl2Bs3iNupU6d6lo7CaA84Qm+nQie3Tp06HSOg/Qn3Q4Wvoih5QWFMdZg3b540adLkGP9Mx2Yiw7TsMRpDzZo100d5AIQyOcAES7wFLh2hfaU6PPTQQ7ac8F5f0KjwVZR8JNCFL718GW3Bu3MbvX2jo6OtIEbwMurDY4895tkqNlpcvXp1ufjiiz1rjkLnCcTlunXrPGvSav5TpkyRZs2aFagTVOGrKEpeURiF75NPPnlM5zb+Tp8+3fpnfPszzzxjy4XvvvsufZ/NmzdLXFyc9e/e35fyIz4+3u7jbENU0rHNlyAuaFT4Kko+EijCd+bMmbam7jaGsQE6oyFyL7vsMjsG5E033WTHYly4cKF1YhjD31SrVk2efvpp6zDHjRtnxTCdIbzBcRItZki0u+++2x7zrLPOso7GLZ4LAhW+iqLkFYGc6nDllVce4/O3bdtm09pat25t/TPlE0OPnX322dY/E6HluxD1ZRzezp07y2uvvWaP2bFjR7uOCY68IUBCNBjhTIfpN9980wY6EM8ffPBBwPlbFb6Kko8EgvCtXbu21KhR4xhjbF1AqC5evFiSk5OtmOUvYpj1Dj/++KPtuVuiRAkrkon2Mj5jZg7t119/lSFDhlgBzf44RQY+L2gHqMJXUZS8IhCFL0I2M59PKxzXysxqbv/MMJMEPNyd2QhYIGQZ7pIIMukRrMvsu3755ZfStWtXGxVG8NKhmsgxPjfQUOGrKPlIQQvfnEBe7/bt2+1fX84NZ0HN/qeffsrWWLwcg3GCs7u/P1DhqyhKXhGIwje7ZMc/IwwRyVh2RCIpDaTPkR5X0LN0ZoUKX0XJRwqT8A0GVPgqipJXFGbhG8yo8FWUfESFb2ChwldRlLxChW/hpNAKX3JP1ALL6O2pZESFb2Chwrfo0KJFC59+SK3gjJEBeMeCBRW+hZNCK3wZV5TEabXAsG7dutke/EpGVPgGFip8iw78jk899ZRPf6Tmf2NoQ0Z/UeGrBDqFWvjqwxY4MDOYCt9jUeEbWKjwLTrwO3pPqaoUHAx7pcJXKQyo8FXyBBW+vikI4ctLzYxs+V0AMWQZA5znBj731VdfeZb8hwrfooMK38BChW/B8ccff2SYkCK/YIIKRoHIDdwnhsUMBN+rwlfJE1T4+qYghC8z8zCFZH6/H0x4QUGXGz7//HObo7l//37PGv+gwrfooMI3sFDhWzBwbiYoYprh/L73o0aNkjPOOCNX5yEdpn///gHxzqrwVfIEFb6+8bfwxakw0Lg/Ohpu3bpVPvroI89SzsDx9OnTR2655RbPGv/AeVX4Fg1U+AYWKnwLho0bN0qFChXkzz//9KzJP5ip8/vvv8/V9+VdZVKLV155pcD9rwpfJU9Q4esbfwtfCp+yZctaJ8PLfeaZZ8ratWvtLD3vvfeenY2NSO1JJ50kY8aMscLVeY8+++wzux/TDS9atEj+/vtvu56UhtmzZ9tCjRndGKAccGBMg/nGG2/I/Pnz5cCBA3Y95z799NPtegY0v/POO6V3794yePBgef7559PPd99991mR7k/xosK36KDCN7BQ4Vsw4KuZHhhfywREc+fOta1+ffv2lb1799rJJ+bMmWN9/mmnnWb9OXDNpMQxI2eXLl1k9erV6ULwk08+sdPSs+3SSy+1xwF8OdPWU66tWLHCnhOY4vjUU0+1IpzJMJguuWfPnraMef/999Pvz7Jly2To0KEF/t6q8FXyBBW+vvG38D3rrLOswARe7ooVK9pphnFCn376qRWoKSkptgf2gAEDJDEx0eZtkSNWrlw56devn6xcuVLKly9vxStilpSEVq1aWUfXuHFjadeunZ2Vx0l1IG0BJ7JhwwZ7XqauZOpj/t544432/EuWLJGpU6faqSxfffVVux/nZTpMIsf+QoVv0UGFb2Chwtf/8Pw3bdpUbr31Vnvf8cXh4eFSpkwZGTlypOzevdv675YtW6b7b3w5ARB+L/wxovjcc8+10xI/+uij8sMPP9jPEwS54IILbCAFUcu5nFSHe++915YdThDkkUceseXKzp07bXCEsuTCCy+UQYMG2f0QxNwjzlmyZMkCn8lTha+SJ6jw9Y2/hS/pA0uXLrX/O8KXaC1QK4+MjLQRYMCRNWrUyNbor7nmGuvg9u3bZ7c9+OCDVhgTEcBxMVUxIFaZ2/3DDz9MF76cB4d63nnn2X04HgUCorlmzZpyxRVX2PW8r8OHD5fx48fbZfJ7Oac/x3/mWlX4Fg1U+AYWKnz9D8I2Pj5e3nnnHXsNjvDFb7PM36SkpHT/TecyghLvvvuuDBs2zApT5x1C0CJ0+Utww2nBI3pcqlQpm0rhCF8CJQhYBC/nwaejAYgmE+ggKsx6hCXCm0gvzwWf4/pImSioewZciwrfXECvdB4CX7Zlyxa7Dw/OVVddZV8OBAhNyA888EC6Y7j99ttt5M0NkTQGAX/77bc9a45y3XXXZTjPpEmTbM3LaW4oSFT4+safwpf3gdr85Zdfbpd5znjucFxAr1/eGyftACM3jI4R1OgHDhyY/k7xWZwCtXYcKw7S+QwOA4fn7tyGY8PB8SziNBG/OEEiCh06dEj/bN26daVz5872POxbrVo1ue222+wx/AHfS4Vv0aCghe9ff/0lo0ePzuCTHUNYAM84Prpjx472XWSSB1pUiLgBYpF3D7/v5qKLLrL+1Ps5Jb3Ifc6xY8fa991JSypIVPj6H9IY8McIXq6Bv0RuibzC+eefbwMXbv+N8EWHkG9LSoLze/Gs8j5RPlStWjX9M6Q7hISE2EgwUWSEL/sinEmxQHzTQojYpYxB2NLC6JyvUqVKMm3aNPsZnnOut6DzfPnOKnxzATUsHC9RsREjRmQwhC83dsaMGfYhI+fmhhtusPkuYWFhNrcRaGJwhIMDYpnalbOPG2pVderUkXnz5tlcHR5Q7oO/Owj5QoWvb/wpfHnmEJ+XXHJJ+jKF7XPPPWeXybnleaH3L01jjlHJmjVrls29cqApimYsorg4Lvf+GJFft/ClBo/IxfGRvvDtt9/Kzz//bKPDOEr3Z+ndC47w9edzwz1R4Vs0KGjhy7BOXAPCwLsMoHwARC5CgHxJygB8PmXC2WefbZ9BfDeiwbvplwmBSEvyfk45BhVRyhSMMoV3DAHMs12QqPD1P/hYni/S2LgGhC/+16kI0fqHj7355psz+GBEbMOGDWXVqlXpv9eePXtsZQ7R2rVr12M+g8ClsoU/5zOI5ypVqthJZEht4PPr1q2zzzeVMfdn33zzTXt9VPgQnM5yQcH1q/DNBTg2HrAdO3Z41mSEGj8il4fDuU5u9uTJk6V27dr2/9wIX7eI4rgksDNESEGjwtc3/o74Il7JzQWeMbfwRchSUL/wwgt2GdHAs8OzRqoDAtfpxEBLBC0UbCNi4DznVOqIWuE43cKXc9FRrXXr1tK2bVsranmWOSatHsD1UWEjOgxOqsOLL75ol/0B16nCt2gQKMKXXHZfsD0uLs42H/PcAc8dYpjmYJqfcyN8SR9yHw+RwfGcdQWFCl//888//0jp0qXl9ddft9fgLXy9/Ted3/DfBCZIOyNqyzvEZ+nfQdlBahy+32mVoLxACHMut/Alqsy5yR+mlRqfzzNPAIQyh2MiLCmT6BTHZyiDEOpOzm9BwbWo8M0FxxO+dObBQXnfWDryIIZ52E5U+PKg8XnEdEGjwtc3/s7xJZ+WGjvwcruFL/A7sY6mVForcFw4K2r6dGggeoXzoyClUMaBUlHDES5fvtxGCXCCPNdu4QsIWt5LCnYHos8JCQk2wkWzGO+MEw3btGmTXSbvzF9wT1T4Fg0CXfjecccdVvh6lxHk2t9zzz02gpYXwhdhTVTPWVdQqPD1P5wXf8yIDNx3b+HLX1qJSTfDf9MXo1OnTjblgOgsaRGkTGI8qx988IEd3Ye8YIQxLX5Ec+mwht5wC1/OjXAmDQJxzDLrORYBD6dzG3qGgAnbSXFITk62Oqcg4TpV+OYCCm9qLvRUR8A6hhgAHhryW7IiN8K3Ro0atnbFeckb4yHPzPH6ExW+vvG38GUYGppC6aTGy0201T27GgUsArVXr172OXI/O/zPOppNKZhxdLBt2zabB8ykGOecc076eJGkSPD9HKjUkVPmDJcDCBMKazrd0SzLiA7Oe4swaNOmTfp5/AH3RIVv0SBQhC85t+4ygCEEERa8K1QUs7rG3AhfKqXkTGJUXmla5l0q6GdahW/BQOscIzDgR4moMnqDE60FAgvkkeO/CUDQwcyBoAhpODxLCGHnt1u/fr3110SBSY1zJhpi1IeXX345/fsykg/BDadTNLAv18T5CHZQJjn7805wvoJ8b0GFby5B+JLKgONB5DqG0wMeRJazIjfCl+gbTREYieaIHB7qgnZ6Knx942/hywtNoRnovwVOmk5ujB7hT1T4Fh0CRfjSSuIuAyjsEb4MLXi8capzm+NLTj5lgBNdQ4C5xUdBoMK3YCB9gU7KBCgCGcR49erVraguaP+rwjeXHC/VgY5t5Dp6X+M333xjnRb5MjQZ0AThhtoSNXqnJ74bXzm+CAecL81mBYkKX9/4W/gCtXBGdyho55IVXCP5wO7IhD9Q4Vt0CBThm1mLG60tNBM70TIHciMJVpDqc//999vxTykPHHg2SS1yOsC58U51AIQPwxTSyaggn2sVvgUD5yatgLSEQL73Dz30kK0Y+rOFLzNU+OaS4wlfRCDOCKHrwPUidmvVqmVvPB2KyKt01/ZpliZnxpkMwI238AV6R3IvcMIFiQpf3xSE8OU5I9crEBxMZtAkx1A8/ob3ToVv0SDQhS8zJdIq6HT0ccBPkk9J5zb8t3c5QeSWCB6zIno/p76EL+UHZRHpSQX5XKvwLTh4BuiwFsh+jYg0fUkCARW+uQThS24VQzOR6+g2Oi8wtAdhfcY0Zagnlqnd46BwaICzw+mRHsFneDDIqcHp+Ur+RviSK8k0s0wgwMD/vHjkkRW0s1Hh65uCEL5K5qjwLToEivDF73mXAeS5O+k89MtA4NLRiN73ztjZPIuso7Mp/UGoCBJIWbx4sR2i7Ouvv/ac6SgIXz5PJyTKAcQmOfn0pPfnDIi+UOGrFBZU+OYShC/X4Muc4aJwTER3WcdNpjMcY/A6g5Vz/VdffbV1WghgnCg9Hl966SW73RuEr/s8CG+axBDWBY0KX9+o8A0sVPgWHQJF+Lp9smN0COIZo2MRwQ/WUQbQmkdPdwIdDgQwGF2F8gGjPGB8VV/PKMKXYzjnIaJMGUOno4J+plX4KoUFFb65hNo8eVm+zO2Midy+//77dhgPcrG8r5llogNsZ/B/IsOZQXOG+zyMuRoozdkqfH2jwjewUOFbdCho4cuz5PbHbnOCG0DhyhBRBDRIZfP22TyL9NEgKsyoJ6QBZfZ8clz3eSgD8rrwzi0qfJXCggpfJU9Q4esbFb6BhQrfokNBC18lIyp8lcKCCl8lT1Dh6xsVvoGFCt+igwrfwEKFr1JYUOGr5AkqfH2D8KVzC7PrqRW8Me4pOZLqOwo/KnwDi2AVvgMHDvTpa9QC1ygH8B8qfJUTQoWvbxhWjFls/G1Nmza1Ao/ph31tz6kx2UpM2VDpcFFsobb2y2IlJFSFb1FAhW9gEYzC99Zbb/XpL4uqMUVxSrMI60d9+dfCYrYcCCumwlc5MVT4Bg50kGR0EIQvg+jnBZ9++qkkNwmX0/9XRk6XwmuLU1NU+BYRVPgGFsEofAsTzA1AR/sT8X2MFd1wUqwsPuLbvxYWoxwIjVDhe0Iw+xQjNuQ3nIdevfQA/vPPPz1rAwMVvoEDE6PwfmBVq1bNE3GgwlcJNAJJ+DJSw+bNm/P9uaKgZqQgf5U5OUGFb2DDeM+jR48+oZGgVPhmTVAJ32XLlsm5557rWco/xowZY6cmZPBypkMOlKHMQIVvYECBWK9evXThS9SXiVNOFBW+SqARSML33nvvtcIiv0XfddddJ7169bKtOnXr1i2Q2Q8zQ4Vv4ML02MwWSIcuhtTLrf9T4Zs1QSN8GYOXmXf8MWuOI3xxLMwIxNzXgYIK38Dg8ccfTxe9jrVs2fKE3xUVvkqgESjCl8omHViZoji/cYQvQY+lS5fa3PtAeZZV+AYuU6dOte8L5cHcuXNz/Rup8M2aoBG+K1assL06nWthmsmzzz5b5s+fbwcsd9aTonDnnXfKokWLbEK8MyUxs7ux39q1a2XhwoV2xh9nGw/nk08+aY/3wAMPyKhRo6zwhTvuuENatWpl/w8EVPgWPDxrHTp0yCB6MaK+b7zxhmev3JEt4Wu2jX4zSdqeGyvd1sTJnL+S7fox7yZJmZbhMujJhPR9F/6XIvXGRkmj6dGy+H8pdt9uq+Kk1Rkx0vuueFnwb4rdb/hLiXLybfHH2MyfS5vPlZFxG0pK67NipO05MTL6raT042dmKnyLDoEifPHNjRs3Tr8WZnSjFfC0006TBx98MH09/pwp7ulwSu69k67GVPUcg2nolyxZIhdddJH8/vvvdhvPKbmZ5513np3q/tJLL7XCl2N9//33NorHNMeBgArfwIRWgdjY2PTyID4+Pv35yinZEb742CHPJEgb45N73VJC5u1L8+UDH0+Qsq3CZawpD5xyZP6/yVK9b6S0MT580eEUOfXX0tLlyjhpvSRG+j1gyoEDaZ8d8myCz3Jg1m9p5cCYd5Kk9dkx0u68WBltjs8653p8mQrfE8ARGohVIOeKTkVDhgyRESNGSExMjLz44ou2dj5u3DhJSUmx68uVKyd9+/a1DnH58uWSlJRkczER0MzRfsEFF9jjkavJVMa9e/eW6tWr2+M5wpepMBE0RJwDARW+Bc+6devSa/UlSpSwU5/StMUyz9uJkB3hO+iJBAmLLiaVu0dIYs0wSWkebpxesnVoVXpFSny1UDltV5oY7n1nvHU8o9YlWedWrl24xJQJkWp9IiUqMURqDIw0zjVF6k+IkrjyoekWXSptutaRryXK8FcSJSyqmFToGGGN4w14OP6Y63KbCt+iQyAIX54jfPuCBQvs//v375fatWvLSSedZIdMQmQgWNmGoGV56NChdh9Sknbu3GmDHgiT8uXLy+DBg+30xf369bPlBrN54veZmp6WG/br0aOHFZd895o1a9qWv0B4nlX4BiZnnXVWerngGAG73PxO2RG+Xa+Ok4iYYlK1d6TEGp+NsCXQgcgt3SjMBkHmewIbHVfESkRcMZn0ZUmZ+3eylKwXKiUqhUrVkyMl0qxvMDnalh81B0VKXAVXOZBkyoGQYjJ2fZIMeipBIoqbcqBzhJQ35QhlwkBTFi1O9X19mArfE+Dvv/+WkiVLpkfTHnnkESlVqpSdRpJrO//88+WWW26xObkIWmr0gIiIioqy6xG+OEOELJ+ZN2+edR40n1WqVMluZz0CF4HsCF+cIiL7qaeesssFjQrfgocKV0JCgnVqtBRQ+L7zzjvSsWNHCQ8Pt60RueV4wpeoLUK3yazi1qmc+ktpiUw0DuixtCjv5K9KSnhsMRudnf1naYkzzs2J9hIRZtuUr0vafQc/kyDhxpHNMrX/hYdSbPQXw3E2nRUtVU6OkIUHjTMcGim1hkVZx7jIiOQ6o6OsAM5KnKvwLToEivAl1/b222+3/zOZAddFFJdl/D/9P5iGGD9PZBfB8ccff1ihy+eee+45+36+/PLL9jOIC8QvU9QPGjTIvte0GNISyLvcs2dPewz2RUTTUsj/BY0K38CDaa3RCW7Ri9WqVctqjJxyPOE7b2+yxJYLkS4r46zwnPRFSQmLLCbj3je+3fjlUW8kSmh4MTnp2jiZvrmURJkyot35sdZ/D3w8XoqXCZEZP5a2xzr59hJSPCVETtudbP19ejmwP1nqT4ySWsOjZIFZX613hNSfYASyEdeUBbVMuVC5R4T53/c1Yip8TwDEKAL2iy++sMvffvutjbQ1aNDAOjuELU6AiDDrEa0YghgRy0OEsEWgOBDlpePali1bJCwszCalO+AEHeHLcYkY3HjjjXa5oFHhW7DQo5w0GgpUYM5/93NF7u8VV1zhWco5xxO+CN0wI1ZpcnLWVekZIU1nF09fZuxE9qne39TeTa199h9pDm7se0nSYuHR/Ua8mijhMWnC11nn7BeZECLTvi9lHRfR4b73H43wdlgeK0m1Q1X4BgmBInzx5QQg+P+vv/6SChUqSJUqVWwUGDFI4frKK69Yf37GGWeklwNEfRcvXizPPvusbQVE6AK5wgRUaI4m+OGO6PIOO6kOMGPGDNv3IxDEpgrfwGPVqlXp0V4qV27x+/DDD+fYDx5P+I7dkGSDFqdsNb7b+GGEKFHczlekCWECHY1OiZbipUKk8kkRUqp+mMz7J60VcNjzidL+ohi7H8v9HzJCONkIX08roWOkvyGIOQeCmRZG0iicz7U9P0aSm4ap8M0vSG3AmX311Vd2methwgJq4IhS0hRWrlwpl112mSQmJtqOCG579913rfDt06eP/TzQLIbw/eyzz+yD6u61687xxbk0bNhQrr/+ertc0KjwLVi8X2Bv4QsnIhKOJ3wnflbSNj3N/KlU+rqG06Kl9oio9GWiASXrhdl3t/fdJdLXOzb1u1LSbE5x26TVeEZaNNjZhgOt1C1CmiCkzTWQw0U0GMfH9pnbS0tirTBpOCVahW+QECjCl5QicnedZ4qOzuTkkppAGXDKKafYFhj+nzZtWoYygFZCIr50kCaqC+vXr7fC9+eff7aRX/exCaK4he/s2bNtuaDCV/GGMoFUGCpmpE/y7J1zzjm2QkZuOK0HOX1/jid8BzwaL1ElQ2wklmX8NAK31ZlG0Ho+M3tHaYkxwpVyYPjLiXYf9zHGf1TSBkzYh7xdfL+zDZ9ftnWYtDor7Xje5cD0LaUksYYpP0415Ucm14ip8D0Bdu3aZZuWaU6GJ554Ij3fl1QEBHDXrl3lvvvus8KX1Aig+WH69Ok2QozwdedfOsKX3C9ENTnCwANKhMAtfCtXrmxrbYGACt/AwpfwPRGOJ3zHvp9kBGUx29nAWddsbnGbq+ssz9lZWkpUSYs+0PnNWe/YlG9KSv3x0VKiYqgk1QlLjwhjo95MkvC4YnKKcWzuzyCOBzwSbyPIZVqEHxMl9jYVvkWHQBG+1apVs4KA/ykLaO3D/7NMixx+mvUEMpwgCf6bjmz4d4QvkV2nEHaEL9Hj+vXr245yHAubOHFieqoDjB8/3opfthU0KnwDi8cee0xOPfXU9PGe0SNXX321/X3oGEkeOYG6nDw7xxO+fe6Nt9FYd7S1xoBIaTG/ePpnTtmWluJAOTDg0WNzcYka1xsXJbFlQqRM83Cb6uBso5NbdHKIzPwpo5/Hr/e7P15iy4dIubbhtpOce7u3qfA9ATh/69at5eabb7bL1MwRuAjA119/Xdq0aSOzZs2yIpamLJqkcHIjR460ndUQwJkJXx5Opgckf+zRRx+10QEcvSN8GccRYXwieZt5iQrfwMLfwnfqxlJSzAhf8racdXRMo3MC/yNQm5xaXGIrpOX2RiWFpIvY0/5KNiLX49zM8RmxITIxRE6+Iy0qzGdxhLWGR2ZwknSKI6pM54i258akjwSRlanwLToEivAl4koHIv4n7Y3OaAiMt99+2+bnIgbJz6WsYBjKp59+2qY4UFYQ/MhM+OLjL7/8chuxo4xhJAiO7XRuw4gq33DDDQHxPKvwDSz27dvn+S8Nt/AFnhmesZxwPOGLMI1MKJY+kgO+u2LncGm3zHyGVAfjf2v0j5RSDcOk9rAoKVE5VGb/meb7Z+9Iljk7j5YDU74tZVPe6LxGZJdjIaIbGZ/vFtZ0oK43Psp2iiadbv7+7JUDKnxPAIamQfRxLdxEHBoit0yZMtYhOsOGMCQNI0AwsgPO4ZNPPrHraeqit68DPXzJAwPSHKiV8RlGfGA/hseBF154wTrLQHEyKnwDC38L39P2JBsxa5zUE2md2XAsKc3CbScHlhnmLDSymB3NAaFL5Lf2CIRsirS/MFYqdo2w/7PvgoNp2xkKh2V6+9J81v/BjCM20COY6ML4D44/jJljnEOFb9EgEIQvIDw7deqUHuUlvY0oMB2dSUtA3AJ5+P3797f+nKEoCZTgv+n0TDM0n4eNGzfayTAYIQIj6EGZQiAF4UIfEc5DQIVRHtg/EFDhG9h4C9/ccDzhO2VjSTuqwoSP0zqz0SE5tmyI7eS8yPje/g/HS0h4WooDndgIgDSbV9ymM5DGVnd0WmdljkVqXLQpU/gsopkobmR8MRmyNmN6BMOmIaBJkcisfPI2Fb4nCBFXeufihPwF35vo8SWXXOJZU/Co8A0s/C18sTojo6Rs63CZ/GVJ6XJVnB2pgUgwvXCTm4RJpe4RNh+LfWmWCgkzQvnJBBn2YqIdBg1RPG1TqbROcGZ5yldpozwwdFmocaZOb1+M4XGS6oTakRz6P5SQbkOfPzpWsC9T4Vt0CBThS0oCubjMiOVPENz0DwkUoanCN7BhxCg6z+en8EW0UgbUHBwpk78uJS1PL247qBHJtaP5VAyVeuPThihj/y4rja83vp2RfXrfHW+jxQMfTbAdmOnwHJUQYlMjKHfowMZIQbN+P1oOLDiQbIfJrD8xWvo9eLQcGG7KFO/cYbep8D1BuIaZM2em5/b6AwZIZ9zfnDZT5CcqfAOLghC+pDkwTiO9enFY3dfE2eapXjeXsB3WJnySJmQxhp6pPiDSDj9Gzb7xzGjbrBVhxDLj+fa6tYT9LPv2NJ9nqDTG9XU+z2eo5cekZLTy7bO+RhW+RYdAEb5ASgKdhvwl+iiwmzdvbtMiAuVZVuEb2DB7GxNf5afwxcjRRYxSDiB6BzySFrFlcgk6ns1w5eeSrobPrjEo0o7uUHtkpB0DOCIuxIpkWvmcjmuMDMEIDk7wBEMEx1c5thyo1FWHM8t3GELq+eef9yzlPySmkz8WSKjwDSwKQvhi9OZldAbytXxtz8wQuQyJRk0fUetrn7wwFb5Fh0ASvgxFRl8Mf4k++ofQeSmQnmMVvoGNv4Qvhg+ntW+uq2Nadgz/PGN7aZm+iZbCowI3r02Fr5InqPANLApK+Aa6qfAtOgSS8FVU+AY6/hS+gW4qfJU8QYVvYKHC17ep8C06qPANLFT4BjYqfI+aCl8lT1DhG1io8PVtKnyLDip8AwsVvoGNCt+jpsJXyRNU+AYWKnx9mwrfooMK38BChW9go8L3qKnwVfIEFb6BhQpf36bCt+igwjewUOEb2KjwPWqFWviuXr1aLUCMGYRU+AYO+SF8Y8uHSbfVJQq3rYpT4VtEQPgyIL8vf6Tmf2Pq5G7duqnwDVDySviWaxMlXa/24VsLk1EOhBVC4ct0vmrZM2aR69ixo89teWnr1q3z/DpKQZMfwjchMlKGVq1aqG2IsZAQFb5FgeHDh/v0Q2rHWuPGjaVWrVo+t+WlXXDBBfpuBSi8Lyc6BB7Ct2p8vPWjvvxrYTGuP9SUA4VO+CrZ5+STT5YXX3zRs6QEA/khfJuUKiX/mzFDpBBb6imnWIenhbMSTKxatcpOsKHPffAydOhQefzxx09Y+E6qU0eOGD/qy78WFqMciAgNVeFblFHhG3yo8PVtKnyVYESFr6LC96ip8A0CVPgGHyp8fZsKXyUYUeGrqPA9aip8gwAVvsGHCl/fpsJXCUZU+CoqfI+aCt8gQIVv8OFP4YsT+dQ41UfM+b4dOVL+lw2neGjaNHmtXz95vGdP+WPChAzb/po4UZ7s1Ute6ttXDkydmr6e434zYoQ9z+fDhtnzOtv+mz5d3howQB7t0UN+GTcufb23qfBVghEVvoo/hS++etOoUdYfvz94sBw+zv5uO2J8+YPdu8tvHj/OsfD3Hw0Zkm5bx4xJL4t2mvLiKU958a+rvMjKVPh6+Pzzz+WTTz4pEvbPP/94vlUavoTvpk2bfH62MNpvv/3m+VbH56effvL8V7Txp/C9tFUr60SqlSghkebv7Z07H7OP2w4a0TugcmWJCQ+XCjExkhwdLZ8Yp8y2TaNHS5W4OEkx6xhFon2ZMvLPlCl2G8eNMsevas7D+S5r3dqux1GOr1lTosLCpHJsrMRHRMjbAwemn89tKnyVYESFr+JP4YsQjTX+HV9OmTC/QYNsR4nv6NJFwo2PfmPAAFve/DN5spQy5QFD2DqGv+d4PxhxTXmQUry4LS/amfJit9nf13HdpsLXQ3JyssSWDZO48oXbwqNC5fXXX/d8qzR8Cd8B5qEqXirU5zEKjZULk9CwULnkkks83yprNm7cKOXKlZM1a9Z41hRd/CV8fx471jq4Wzp1slHcy40YLWuc0N/G+eyaNEn2u2rgrNtnROxjPXtKnBGnn5pa/H6z3M+IYIaY4dhTjVNtbd5FPvujOXYZc6xbjeDls4jhi1u2tOe5yzjHWCN0f58wQd7o398KYsQuEWKcYhfzO/sS6Sp8lWBEha8yZMgQefLJJ/Nd+BLYqJuYaMUuEdgX+/Sx4ver4cNlj/HjCFmnVZDyAN/uLP9kfD7BkBAjbh3hu9mI2wqxsTaCTHQX2+sJhkypXVvapaTITlNebBszRsqbz97UsaP18871+DIVvh5KmUJ91q+lZeGhlEJtFbtG2Bl03PgSvv369ZNBTyX4PEZhsT73xktIeDFZsWKF51tlzq+//io1jSCaWa+elDYvx8MPP+zZUjTxl/ClSQpBijNjGeeDCCXtoFeFCtZIQ6BpqpJxXjcbpzTNOM6BVaqkH+vebt1s1BexWy0uTm40+zjHH2t+s2HVqllxW9wI3d/Gj7frOV+8EdyI6DMbN5YOpqbvHO/53r0l2lwDx3OO45gKXyUYUeGrMKse2iC/he/XRuBSBiB08cn4f6Kya9q1k0WNGkn1+HjZMWGCDWC0TU6WGaZMPmz2QfwON75+Rt26ttVunUf4UpY0TEqyQQ2EtCOSD5r/Oa5b6E6gvKha9bjRZRW+HhC+c/5M9jm9XWGySt2yL3yHPJvo8xiFwYa/nCgxMWHSv3Jladq0qezevdvzzY5l165ddp8FDRval2adEVFJRoS9/PLLnj2KHv4Svhe1bCmtSpdOX48zS46KkofMudcPGmRr+nd26SIjq1e3++G4upYrJ0vN7+Ec48MhQ6S42e+zYcPsXxyds21ZixbS1tTob+3USSqa3yzVs570hgaJibLaOFOixTONs3SuYcvo0RJWrJhsHDky/TiOqfBVghEVvoq/hO8TPXta4fqvJypLmdvd+PwlTZrIH+PH26jsnPr1bapa6eho2Wr8Nb6bIEotI4rpo5FkyhBH+N7dtauUNMuljBEJ7myOhW8nCEJrI+WF4/uXm/KIdAeEtPuavE2FrwcVvoXHxn+YJDElQ+W2zp3lPyO0xtSoYUXegQMHPN/uKKzjhWcfap7Og0/SfemSJeXjjz/27Fm08JfwxZl1L18+fRknV654cZunxf9zGzSwTpB83nc9ebctjQBe0apV+mfosBZuHBqpCji2jz35vtjVbdtKI/M7rTICt54Rus75OXZzcz0cp2eFCrK4UaP0z9BZjuN85DqOYyp8lcx44YUXbEtQUbAvv/zS863SUOGr+Ev43udpwXOLT1r4TjNlAesQstFhYRJnyoRrO3SwQYzfjYitHBcnT/fqZSO7buF7eZs2Ujshwbbkvd6/vy0PSG/4ftQoCTfi9eMhQ9LLBcqJxma7Ct9sosK3cNjU70tJXPlQ26HKeYiJIiJ+Rppa4JEjRzzfUOz/I4yoYpt3b89X+/aVBCPQ1q5d69m7aOEv4YvwJCcXIcoyEV9SHxitgWWavSKM0Oxctqx1Nqw7yQjlc5o1Sz8GQpd83a/Nb0UN3t0xjZzeTuazCGlSJZxjOBHf643jHFGtmpxar176tZFWQcSXjnLOcRxT4atkRt26dSWlWbiUbx9RqK1EpVA5++yzMzzjKnwVfwnfp43eINjhjMhD2dDD4/Pxv5QR9ANJjIy0+b3sQ2ts/aQkK5rvMcKYcuA8s/+XpvwgYEXesHP854wAJu3to8GDpYQ5zzuuiC/lUady5VT4ZhcVvoXD+j0QL8Ujw+RD89C7H+TdkybZSOKcOXPsi43Nnj1bWhpRxjb3vgyHUsq8eLfffrvnbhQ9/CV87zVOig5oTmeDH43oxCl94RlubGKtWnY7KQ+vmGeOfSbXri2DXTm+9xtnx2gMOEH+3typk13P9nE1a8pUs/8rpqISY45LZza2keOL42QIG6K9iGPneHSmwPG6O9Y5psJXyQyE79RvSvn0O4XJOi6PlbOXqvBVMuIv4fv50KG2jwUtefhkWmXJ66VDMgGLa9u3lyTjuxG3pDuwjpZDyheitUR0CVwwShBlwYOmHKPMdvw7Ud8E499JaSNKTMdq/DrbKW/o8KY5vtkkO8J3yrelpM3ZMdJ6SYxM+qykLP5fipy2K1nKtQmX5guK22X242+Hi2KlbOtwmfNXsu2I1euWEtJ0VnG7fsaPpe1+Ez8pKd1XlzjGxrydZI8xfVPa+ZqcWlx63VpCFh1OO35WlpfCd/afpaXjJbHSYkGMDHsh0V7T4tQUqTMqSqr2jpAFB45ez+BnEqRk/TAZ937atQ95LlGanVZcWp8VI+M+SLtXp/5W2uf3HfBogj3GabuTpdOlsdL4lGjpfHmcvbfO8R2z99Y49oqxMcdE9MgNqmFesOXLl1ur6ckXcu/DZ+g1mt2RIAor/hK+3F8EKUONUcum8wJ5WtT2XzXPGIIXITqkalXr0PaZ9aSZUFP/gl6+plJCsxWjOXA8Z1QHRPBnxoHiINkfoUvzGTV6HCWjR5DzRS9hxgOmM8V7gwZZsUuHOrewdpsKXyUzVPgqRRl/CV+is7USEmRBgwY2uksElzKCoAijNjA02SXGj9OaxxBk3zP2u+vzlCP4difVYXSNGtKxTBnbWZmWW/p0UGbQuQ2R2978T3CL8oKcYXKF8fPua/I2Fb4ejid8p/1QSqJLhki5duFS+aQIiYgrJhM+Lmm3dbkqzo4uMOrNJLs86cuSEl68mHS+Is4ItTLS1AhA9q85OEpK1guTmDIhMuv30tL7jhKSWCMs3RKqhUmxkGLS7vwYmflLaSmeHCLJTcKt0IyILSYNp0RnuCZfllfCd/7+ZNvsl1grTGoNiZSw6GLS+84SdtuoNxPt9+1qvjfLc/ckm+sPlVrDoqww7usZbaFKzwip0DFCQiOKyei3kmTCp0kZvi/GcdmPykF5c2/jKoRKvXHR9m9K0/AM4toxzkFFg7yfXz29/B1jXD9yTMsZccv/7m3siyhbtGiR5y4UXfwlfLHlxokx7qKTy0ueFgK0fmKiTUPAyfBbUEun8wGOsW+lSlYUEx2mZk/tnWOxH1FfhjsLM8ccZAQszpNt1OwRuDhLPkuON+sRwmOqV7cpFUQRaEb7asSI9OtzmwpfJTNU+CpFGX8JX4xUN3wxrXL4cYQufnqU8dN1TLnNMGYERxokJckA4+Pd/W+8hS/pcjVMGUHZQhlDKt3bnm3fGdHMWMEEUjgPucROikVWpsLXw/GEb4uFxaVMizQhRuQV8dvolDQhOv/fFCnTMtzavH3JUrV3pBWN8/9Nlrn/JEt0qRDpe1+83RfBG5VkfqDHE2TRkYzDcyEYS1QOlVl/lJbu18RJfNVQmbc32UY5EcmhkcV8RkHdllfCt//D8RKZGCIztpe25299dowR4WH2u7PcaHq0rQjM+LGUtD0vxn6n6VvSCo2KXSKk2dziVqDyvcq1DZeWZ8SkLzs28dOSEl06RMa8l2QjxXy/yV+lVSYmfVFSQsKKyYhXfV/jwv9SpO6YKGmTnGyjfu6H+oMhQ+xIAe517EMkcdy4cXL48GHPXSi6+FP44kSYgAJnR0SdnC6cF9FgHJyzH0PYMAYj/+OcaLJ61jybzNTm7IP96ZmJh9E33LldHBdByxBmthnN5XwRx/Tu5XPeM8G5TYWvkhkqfJWijD+FL76ZIMbjPXrY8drZn3V0YnOnHvI/ozO4fTn/s84JeDj70bJH6yHliLMeY5lgy5umvDjg+kxWpsLXw/GEb0qzMJum4Cx3uSJOEmuFWhHI8ph3jHCLKCbV+0daAUeEk/Vz/062qQqzjZhlefaONOHLGLrOsbDTdpW2UU5yWFnudEmsjWo628cacVgstJicsi1rx5xXwrfprGip1jfSRqxZHv22+X7hxWTWb2nfA3EeWy7Eno9odrdVadHf083+bc6JkfEfpH1/hDJRclIe7HaPsZ5Ib/P5ad9x6PMJ9ljO+bhvHHfAI2n3w5cRla7QKUJ6V6yY5QOPyDrZ7MN98DXyQ1HEn8K3MJkKXyUzsiN8qbxP/KykjHk3yQY8WLfIrOtwcaz0uSfebnf2pfLe9rxYmf5D2jFJexv5epKM/6ikrfizjkDKKVtLH2OOn6V8IcVu+EuJMnVjqfTyJitT4av4ok2bNvL+++/7RfgGuqnw9ZCV8F1oRBrpCTg2Z13/B+PtugX/pn0Gh9R4Ztq0ekRDvR0UIq3ZvOJSqkGYpDQPt5FcZxtir83SGCuuF/2X9jkc6OIjaf+zL4I6qXZaxNX5nC/LK+HL+ZrMPiq8p20qZSOwOGFn3cl3lrDfl++z4MCx967TZbE2+kvKxtTvMhYo5ARHJRaTmT97HLz5vkTA+Z/73fbcGAmPMUJ/a9YFETnQERERthOUr56crBtbo4a0bt1a/v77b8+3L/qo8PVtKnyVzDie8LWtTKOirF+KSgiRxJqhMn1z2v5tTWWfgIeT/oYfL98xXMq0Smv5o1UrJiVEIkuE2M/TIoi4RQiHRRWzQRO3Ve4RYX19m7PMcc12fGiYOX5zU4YgtN3X5W0qfBVftGjRQj766CMVvsZU+HrISvhSK8fx9H/oqPAlYss6UhtYxklV7xdphWC1PpHpIs4xBDLN/eU7hNt83eGvHBWdc/4qbZv8BzySMQqMeB67PsmmGBBdJR3Avd2X5ZXwrdIrIkPEmQ55OHaiGCxzbe2XxdrvG18lVOb4SMHouipOagyItI6985WeiLAx7g2R2paLM0aBOSYR7RoDI23h0OfuzKO9jiF8+/fvb8dtfd18J+8HnOYRtm3YsMHzzYMDFb6+TYWvkhnHE76kp0UYv0TrFylrpHA1nEqQIy04kVQrVCp1jbACudftJaxQpSWQz9IZmBY0+m7QBwR/3u3qONs/Ytz7JdONiXmKlwqRk64vIdO+L2X7QHAs9uMvrW6OuM7MVPgqvlDhe9RU+HrISvgiyMi37XlzWucujI5eJYzgcwQu+bnU1EmHwDk5Ob04RKKdTgSY/RGn5Kc6x+K4pDm4O3Kxf1fjGHF8DSZFp6dKHM/ySvjWGR2VoTPdFFMgkGox86e065j0eUkrTlstiZHiRrQTzeaaqQAQFV5w8Oh3aXVmjCRUC01vBpzwaUkrhqd8ndGBM3IEecMUHpO/zDrS6xjCF/HtHhfW25glrF69erJjxw7Pty/6qPD1bSp8lcw4nvBtMDE6rQOvJx2rx00lbPBj8ZG05WEvJtpWsc5XxNrWwPTorNmfVrGhLyTY/9kXP83oQM6xMPxn87nFbR8RxHP/RxIktmxIeloErYZRScWkD2WL63PepsJX8YUK36OmwtfD8XJ8cUaNZxgh6HE45KZWHxBp/6f2z6QKdHZD2NYdGyUlKobK7B3JNjoQEV/M5vayL84N0esIX5Yr94iUJqdmHLFh5BtJVvT2ezBj3tjxLK+Eb/sLY21znJNawXXEme9E5BqnjDhN6+yXLN3WGIFuhOzYDUk2ek0Kw8jXjx6b7QnVjwpf0hhSmoZl+F6n/poW9aYwcBz98Yw8YDoUTudF9JHm4Bjbppl92rdvL3v37vXcgaKNCl/fpsJXyYyshC9+muEp210Qm14GjFpnhG5osfS0NfapNy5KihnxSyflOTuPBivIB6ZsIOWB0X4iE0JkBK1+LgFL7nBkgvGjZh+W6chMXi//c+zhrybaoAr5xSp8lZyiwveoqfD1cDzhe/LtJayzGvpcggx8LMH+bzszGIfUcFp02hBlng4J5KWSA9Z0dnHboQFB18iIZtIE+Ex4bDE5+Y606LHtxFWiWIY0CqyROSZDn518e/xRuyM+Q26wL8sr4Tvx85I2tYHRJRDvJeuEpef8MiYx0e1Rng58RKqTm4XZpj/y2UhjqNg5wo7fi3Mn2msrDWZf7hf7udMo7DFvK2EjyES/3d/5FM9IEd628GCybTpk+BJ3z3+MkQKeM+Zexz4DK1e2aRF5/bAHIvkhfBkjmSFmCrO9YX5/Fb6KL7ISvohW+md0XRmXLjppuUL4Uml39utxY5yEhBSzaW8LPa2BbqNDL36OSDEi2FlP5BfRzNCRTiuiYyyT5hCdFCJ1R0cdt5+HCl/FF3klfPtUqmRH5PHlXwuLUQ4w3bEK3+MI34UHU6TB5GiJiEvroEBHNjsklxGIdDrrfddR4Yq4I781yYhFauyM1BBbPtSO7YvDa3l6cRs1ZV/SAhJrhtlxgp3P41gZuzehelgGY9xbpzNYZpZXwpfvQGSC1AOum+HbZpv7g1C3E3bMPzphB0aEN8FcH5WCCR+VtKKdzzGCRa2hUfaz7EdzXdmW4TLwiYz5zJ0uIyqc8ftiQ9cee404/voTo+1sXc6MYY69M3CgJERHW3vXNfUtxr4dzWcmT56cYWrjokh+CN/IsDCpXqJEoTbGDA5R4av44LgR31bhdvQGR/giXN0RXwIfxVNCpHzHCLueDrzekVl815ydydafVuwSYURt2voZ20rZAMjI1zNGcxHV9BlhaEl8ZHZaw1T4Kr7IK+GbEBXl07cWJrPlQLFiKnyPJ3wxmuZxRKQ2uEVfdmzeP8m2gxidFHL62ZxYXglfx3DS5PUeL8rgbUSBGQOYe5qTVI3jGcciZ7hhUtIx4/l9PWKEpBQvLmvWrLHGVLmM9+reh88waLb3XPZFDU118G2a6qBkxvFyfGsOibT9Hpy83L73x9tOaohXfHr9CVESVznUznhZo3+kDWicZvw9wQqbkuUZAQJj0qOEmqF2BBuWCZQk1AiV+a5+Hgv+TbFBhnKtw20fC2f98UyFr+ILTXU4aprq4CE7wrcwWF4L30AyCpcuK+Okalycnf7Q/SCzzAwu5513nucbipx77rl23Y9jx2bYd/Po0RIdFib33nuvZ8+ihwpf36bCV8mM4wlf0rCI6BIIoOWKiK0jhIe+kJbvy8Q/RGzp0Mw45K1Oj5H5+5IlpmyI7TdB2gJBECK+COnFqWnHJgUibRjMo+dj5KBIZgj9pKQNuDiGIHb28WUqfBVf0MF748aNKnyNqfD1oMI38G2AKVQSoyPki2HDMjzEzPTVuGRJ8695oFNTPd9Q7P+nmAe8idnmzBjGA39mkybSqFGjIj3Kgwpf36bCV8mM4wlf0rwYnQHxS2dm+nVM2VjKCNsUO6avHY3B1TLGjJZhxY1w/aikjfDSAZgp4IkSk/rmDEuGiGb0hp63lMiQ5sDYwExhT06w2xjtwTuFwm0qfBVf1KxZUzZt2qTC15gKXw8qfAPfJn9dUuJTwuSxHj3SH2CmxO1ctqwMHjzY50PMukGDBkmXcuXsvle3bStVqlSRbdu2efYomqjw9W0qfJXMOJ7wxU7bnWyHqux1awmZuT2tv8U8I3wRsaSFufedvz9tvU2NS02xozEwPi/jtTsdoTHSyJi+HWHt/jypYnze2443bb0KX8UXKnyPmgpfDyp8C4cx1E9CUridrIKRGoYYEcswZfv37/d8s2NhW+fOnaVVcrKkGPvqq688W4ou/ha+f02cKN+NHCl/T57sc7u3MR/7z+PG2fncvUfl+G/6dNk0erRNUcFBubftMcfnPLtc871jHO/X8ePle3M8pqh2b3ObCl8lM7IjfAuDqfBVfOFv4Utn8u+MP/7Tqy/O8Qxf/uWwYfKPq+M6634x5cVnZv3vxs+79z9kyg/SFykvsivIVfh6QPjSCYFOWYXZKnYJz7bwZWQFX8cIdGPkiNKxUTK8WjU7ecWKFSs83ypz/vzzTztX+VtvveVZU7Txp/AlAl86Oto6kgoxMXa2PO993IbTObNxY4kND5dI85nWpjLyk3FqbEPQdi9f3q4vHhZmx2h2pqKmslPRHJ/zJJvzPdazp12PU1zRqpXERUTYbXR8/ME4Qud8blPhq2SGCl+lKONP4fvxkCFSMz7e+vHEyEi5oWPHY4IYmdnLxs9Hmc+9MWCALW/w79e0by9J5jjO8Z7s1csejxRGygv2p7yYWrv2MYEUX6bC1wPClxyswm50sMiu8GWcXl/HKAxG7huil7/ZEb5Q1Icwc+Mv4YtQRYQuNkKWGvkpRjzUTkiQA1k4H8ZQpHPhw+b6No0aJS1Kl5bp5nNsO8Mch+FmPh8+3I4VGW/E7ONG4BLFrWUc6STj2DgPs/GVjoqyEWaiABFGzN7aubPt5Ni1XDkZUrWqT5GuwlfJDBW+SlHGX8KXQEW7lBQZREqh8cdrjGiNNf5+u1eHdF9Gi17dxEQ71JgjfL8dMcIGNW7p1El2GaE7xZQBzUxZRKT3dFNe1DLlzaemDCAwgjh+pEeP44psFb4efvnlF/npp5+KhB04cMDzrdLwJXyJgHp/jpcCEbls2TJrl112mRVQ3vt523fffSdXXHGFbNmyxef2EzWu64ILLpDt27dnWL9161b79++///Z8K8XBX8L3GVPzTjBOyek8uHHkSCtCPxg82KahzK5fP71mTp41zmtugwa2lu44p5s6drSRYprG6hkndkWbNnY9NX2OMbFWLXs8avWkQLCN4xU3y8/37i0XNm9uOzA6x3vUOL4S4eHHjPGMsY8KX8UXKnyVooy/hO8W46OjjNB93/hsygsisAwteqvx/UuaNJGeFSrY/jb44gnmmuY1bGjFMv5+UaNG0r9SJdsa6AjfS1q1kjYpKXJw6lS7z09jx8rdXbvKfnOMOkYkrzTlBcdi27CqVe0xjxeRZn8VvkUcX8LXFzt37pQYI0AY76+jESP1jWiJjo62TjMrfv75Z0kxD+bu3bs9a/KWv/76y17X4cOHPWuU4+Ev4YtTampEp+No/jXOiUjs40Z8kgKBc3nV1MSpmTO0HCNwnGREL8vOMd4bNMhGBBiHOc44PHeqxHnNmknHMmXkzi5dpKxxns55cJR1jEi+rkMHGVm9uo0CONdGDnBYsWI2f9g5jmMqfJXMUOGrFGX8JXyfMXqjRESE/OPp74EgpQP6UuPLnejtFa1by4OmfCI9gaAGvvsdI3TLGR9POZBkyhBmWGP9iGrVbFrjOHP9rUqXltMaNLB5vn9MmGDP81r//vYcnOuC5s3txFZOelxmpsI3CMip8P3+++/tMi/InXfeadd98803dh389ttvNtrqCFFv4UtnMo7x66+/2mWOg3h1DzXGvs7n9+zZY19I7w5qrCfKy7BjKnxzhr+E71mmBt+tXLn0ZRwQzuv2zp2tcyHloLIRvDFG0D7hycltaZzXipYt0z+Dows3QvXtgQNtE9dHQ4akb7vK1OYbJSXJ6nbtbDTYOT/naWYEN8fpVbGijRQ4n8Epeh/HMRW+SmYgfIetTbSzbRZmYzp4Fb6KN5UrV7YtpCdCdoTv/d27S7IRrv+50t0GmHMjWBGkK1q1koTISFtOUH6wjggwQ5Le0KGDjeS6hW+PChVsIIMAxyVGMFctUUKYNpnABtMOk0/slAuM2sRxVPgq0rt371wJXyAvlsjv5ZdfbpcvuugiKWkerBLm4evatasVpW7h+/nnn0utWrXsMvudddZZsm/fPlvbXLdunT3G77//LpXMg8t5XnjhBalohEucEUfss379ervP2rVrpZwRVImJiXZEBhW+OcNfwndZixbS3vzWTo0bh1MmOtrm77L8uSf/1l0L72L+P9/UzJ1jkKNL2gL7kvtLBNjZdqlxkhyfFAmmmcRhsZ6/jY0gXmME8WAjrueYZ9S5tu1jx1pHSdqFcxzHVPgqmdGsWTOJjY0tEkZqmPsZX716tQrfIIbfvXTp0jbF8UTIjvClTwbpb04nM8qG3qaMP6tpU+t/aRUsa8pzOqmRs8s+F7dsKY2MXqAsoBygbwfpDIwIQXlBzrAzWg8RZVoGCWwQUFk/cGC677/MCOMOZcqo8A1GnnjiiQwP+ChTM3rooYc8SyIffvihFaje+BK+MGLECJk5c6Z8/PHHVtDyF5Hb3dTsmCnNLXznzZsnp556qn3R3nvvPUlOTraR3JFGhCxatMge77777pPGjRvL3r17pUaNGnLLLbfIwYMH7TTCDE126NAhqWNeruXLl8s///wjc+bMUeGbQ/wlfG82grSyKWgdp/TH+PE2bYH8LpbPMWICMYuD+mL4cLtulKm502zlHOOpXr0kxYjlHcYJks5wf7du6dtm1K1r9yeXmLxdOj+wHueJwKZ37+x69aSPcazOtRE5Rkg7+7pNha8SDBBA+OKLLzxLYlvuppBX6Wl1o9WO4IK+B8GBP4XvhkGDbAoDHdtYPmJEaIOkJLm+Qwfrf/H3lAlhxg8/YDQE6ybXrm3FLoKW/F46rrPP5UbIDq5SxZYXzjlJlyCH+LOhQ2154RyDbaeasoDIcFbXh6nwLYLg0HjIV65caUWnI3zpfDZp0iQbkUVoepOZ8B1vxMzcuXNtZ7eWpmb2yCOPWEPgdunSJYPwRagirO+++26ZNWuWJJkHnpSFhx9+2E6ZiOPles4//3y7H5HeBx54wB7v+uuvt8vvv/++jSgTKYbNmzer8M0h/hK+jJtLp7OX+/a1NXuGnaEJizEYmWEPJ8ZoC9TYabI6ZJzgbWaZzg6Mu0vP3KFVq1rDGdE5gWYxxvJleyUjqvk8NX/yuYgCcJ5HzHfDSZLWQAoFoniLcbQ42WnGMdORzvtaMc6hwlcp6iBwypQpI9PN+0C6mCN86QiMH2cb4ljfg+DAn8KXtIXyprym0xn+eF3//raM+Gr4cNlj9Ef1+HiZW7++FakVjX8nWEIggxF6MMaEZ3SGtb1729GBrmrbVqoaXcC47/h+jsvIP+xL52eEMdHlX8xxSIO4MRtDp6nwLYIgLhs0aGBrTaQPED0lOhtvHjjWMQKDLzITvs2bN5c1a9bI6aefLtVNbWqMERiOnXPOORmE74UXXmijvER4lyxZYtMdEL7k+PLiffDBBzaF4ZNPPpHnn3/ens99PIQ56Q8IZgfnulT4Zh9/CV8c0XjzjNFs1bFsWTvO4qp27WxTE53Y2psCllyvdwcOtM4P4coQaHUTEqzzamqOiYDd4IkQv2P2izG1efKAcYqMyUvklvPQIQ4hTdoE+5Afxmdwmi3McRDJTFLCNbxihLj7Oh1T4asEC7S+hZhnnXQxOivTykYLG2UAaWrBNLxjsONP4UsZwcg8RH3x1aQ9TDRlBGUCw1Uy/CUBix0TJtiUh1lGALtTE/i/lCvHlxF8yNulZbGz0Q7Rxr8zEhC+/E2zD0GPlsbv4/8pLxDO7uvxZSp8iyh33HGHdXp2rFuX4QQRqL7wJXwff/xxG4Wl89l1111n820d0UBKxY033pgufPk80wE/9dRTdjspEU7EF5hWuK8RJER+cbp0mEOM8znYuHGjddY//vijFC9e3EZ6ARGnwjdn+Ev4YkRtEbTnmQrSC336WKey34hRhhpzmrsQrm8bJ0UPXpbpkUtHhItatpQvhw+32539Ph06VC5s0cJ2aHOGScOIHjBG47nNmtk8MpadbbuNmCbazOc+pLOD53jepsJXCRbw2fhR7zIAe/bZZ/UdCCL8KXwx/Oxzxv8zKs+93bqlD0XGiD20BLKd/fD9BCncvpz9mMTiL+PTnXX4dyK59Ckhgux83ikvKEfo74GYdj6TlfF5Fb5FkH///VcqVKhwjMNz8mx94QjfgQMH2vQGRoNA9DKmLzBKA9HahQsXytVXX22byxDG7ogvObrDzcN80003SdOmTe3nSb0AXhquYenSpXYZ8Ys4YzKNm2++2UaWTzvtNPuSso4oBekPjRo1sh02VPhmH38K38JkKnyVYIJWNO8ACP7UV6qbUnTxt/ANdFPhW4RBNLodXlRUlGzbts2z9VgQyxdffLHNv8XIBWOKX7dIoMPEtGnTrLglL5dt5PWSPoEzJWpLusLEiRPlnXfesetvv/12+1mGUmFcYHfHOlIgzjzzTBk0aJAdOYJrAEaLmD17tgwZMsRGli+99FIVKzlAha9vU+GrBBO0quH33eXArbfeqs9/kMHvrcL3qKnwLcLQOYx8W8fhjRs3zrPF/9DJjg4Wbdq0UafrB1T4+jYVvkqwQfDAifoydCSj6SjBBf6O1lwnsJRbVPhmjQrfAIHOZ47w/eijjzxr/c/8+fNt2oOT/6vkLyp8fZsKXyXYePPNNyU8PG2IKFr09NkPPvjNeQZONF1QhW/WqPANEJgsgppejx49CtThkQ6hkQb/ocLXt6nwVYIR+l4kJCTIH3/84VmjBBMqfDNaoRW+CCm17BkpDg8++KDPbWpF07799ls7drOvbbkx8rUZKsYZa7GwGr2DVfgWDXw9p2q+jTQzxvRlHF9f29WKtvG7I3x37drlc3t2jcmmxtSsaYek9OVfC4tRDhRK4es036upqanlxMh3VOFb+Ak1BZev31dNTU0tO1YohS/jw1KTUVNTU8uOMeQegkmFb+GH35FRYXz9zmpqamqZGeVARERE4RS+WngpipITmNVQhW/RgN9Rx/ZWFCWnUA6o8FUUJShQ4Vt0UOGrKEpuUOGrKErQoMK36KDCV1GU3FBkhC95G/RiZ/avO+64w06v6w37r1+/3s5h7oYhv+i17j3c1nfffXfMvsCQMOzvGMfUYWIU5SgMlO5+R9y2YcMG+frrr2Xr1q2evf2HCt+ig7fwpdc5s0kyW+Rtt91mZ4r0ht/9/ffft77dDdO182zS693Nli1b7Oxn3tC/xP1Mv/vuu7J9+3Z9rhTFBe8T74b7XXGMeQWYxdWXVstvioTwpRCtWrWqlChRQho0aCBJSUlSqlQpe3PdMN1uWFiYtG3bVo4cOeJZK3aIDo7H1LluxzVq1Cg5hfHqvGAKXnqGcx6McXJjY2Plrrvu8uyhKIWf+++/33YCyA3ff/+9nbCE94Jpqnm/ihcvbpfLly8vJ598spx++umevf2HCt+ig1v4Ik5r1KhhnznKgJIlS1rf/Nprr9ntDgQyeB4bNmwohw4d8qwVefzxx61PnzJlin1GHBYsWCD9+/c/5nl55ZVX7PmdMoDzRkZGykUXXZTh84pSmCEY+PDDD+d6xreXXnpJ4uPjrd/n/aAc4H+sXr16dibXq6++2u/vTKEXvgjYpk2bSrNmzWwEiXXMR82EDdxY9xe78MILrThmPDtq8g6O8MV5/fDDD561WQtfCu8dO3bYXsXU9JkWslq1ahmcaWZwjY4pSqCyZs0aqVSpkp3bP6dNyuz/yy+/WHvyySdthfPDDz+0y7/99pt89dVXsnnzZs/eabjficzekczWZxcVvkUHR/hSBrRs2VIaN25shS2/LX65X79+VgwzdbvDVVddZQtiygAmZXFwhC+F8wcffOBZe3zh+/PPP9uoFlGrefPmWVHtHTX2hfMM63OoBDpTp06V5s2by3PPPZdjgXrgwIH0cuC6666zwY8ff/zRLtNKzjvIO+R+D9zvhfO/eztktj67FHrh+8Ybb9j/vafj5YbiDLmpwBdFCC9fvlzKlCljHaADwrdKlSrSqFEjGTlyZPqPm5XwRRC4xQDrSpcubZ3sM888Y5vbHJ599llZuXKl/X/btm0yYcIEadWqlT0+kTFFCUQOHjxo3wveLyJkuXF8QMsLQsPd9Mw799hjj1nHOGfOHBtVQGD07t1b3nvvPVm2bJl06NDBDrpPszLs37/fru/cubMMHz7cNlnnFK5fhW/RwBG+TMmLaCXlzA0tga1bt05PV+O3J8J01llnSc2aNeW8885Lfw4QvkSJeea6d++e7tuzEr5U5ngmHdatW2evieecZ/OMM85IL1g//vjj9GVaUTgu19K3b19566239HlUAhYCFAQFKQeYDZRUtdw8r7QgEul1i80rr7zSzjKKj8fXP/roo7YMGDhwoNV0S5YskY4dO8rcuXNtKhOQ1nrOOefYcgANxbuV0+vBFxRq4YvALFu2bAYR6otPPvnEflGc4MSJE+3NdApxCuHatWvbgp0aP44IshK+iGdu+GeffWadIBFnRDPXhLju2bOnZ2+RSy+91P6YnA+nSiSCHLRu3brZqSTV6SmBCu8X7xpGod6pUyf7vLtThY6HL+HLu0KqA01pKSkpttKIM0MMEBWgYkgLDc3I5O3zjpx66qlSsWJFuzx06FC7zVcOflao8C06OMKXIAZlAJWorGA2Q54t/DYFKRFip4UO4ctziO8nassyz8jxIr6IAPIU+RzpOwhtjkkBjrim8ghPP/20jT6zTGS4RYsWtiWFIAith9mJEitKQTF+/Hj7vFMOoJEGDx5s36OclAO+hC/lCakOtALyblaoUEEuuOACG4QkhRRxe+6559qW+ptuusm+72PHjrXv0mWXXWbfTbQYAcWc+PRCL3yXLl1qHZgjYjOD/ShU+aGINFEQE3IHR/hyEwYMGGDFKP9nJXydBwAj2sAygpdrykz4kieDk3MKctItLr744hw9PErhgMKPyA7m/n2dwbO911Ob9bWeJlReasydRuNe7xSugANx1rubeBGIFNCYuxMntXlnvVOjBp5NCvOnnnrKOgieb8d4d3B8VPqyQ3aELzV/IC0iKioqPeVo0qRJ1vi+OEZyxoB7wXvvblnJDip8iw6O8D3//PNti8TxCrFLLrnEFqi8LwhXnknnGXaEL+KZpt26devaZ/N4wpd3w10GTJs2zV5HVsK3a9euMnnyZPsM4w9oxSBtTil68Azh090+l2fW8fVun4vfd9bzXDjwPDk+3e1D2d9ZT7qlAz7OWY9/dz+79HNy/L27nCH1zFnvfo9YTzlA2hstHO5yAH+MPqKsyI4/zY7wvfvuu+31o8kIbDgd3wYNGmTfRXL5OQZlCuekxaVOnTpy7bXXHlcDumHfQi18cWakHbh/RODh4kfkgWMbTginN3v2bBk3bpx1VPyY4Ahf9qN5jJrGfffdl6XwpWbCQ8uNJ0x//fXXWwdIE5e38OUaEb5cLz8eN5y0i4ULF/rsMRzokJ+D8MGIwjkwOgbraKagKdoBp96lSxdrbHcgyuGsp3Bx4L6St83vRWXFgYoD6zAiJg48vM56xJAbIoT8Vpj7Ia9evXr6endzJc8B6xISEqwDcmAdzwXmHsGDTpXOeu6LAwUnx8DcoxfwvZz17nxyIpzOep5BB+5NcnKyNZ5nB3LYnfXuNJ8+ffqkryca5TBs2LD07/v222971qa1ajjrX3/9dc9asZEovhvmFOpuYx3PdHYK7OwIX6cTEsKWjqlO9G7mzJm2hu80I9NKwnfEiPKRJpEdp+ugwrfo4AhfKj+85+4KIODPKejxJ/zu5ClSSM6aNctWpngmaVXgWXCEL8fgOeUZJD1t/vz5WQpfRoPAf/AcU0kkWszoQowu4Ra+bHOEL5ErCvnKlStbkU2qRk4K7UCB1A2nHHCXY0ToWEezOOWhc+9otkb049N4n531/AbO+hdffDF9PR0F8ef4de6ps55AkrP+zjvvTF+/evXq9PU33HBD+nrKeaccINDk3Gsi7mgH1p999tnp6xForC9XrpxtfnfWk45Fkz++fsyYMenraSl21lP2Oevxp4mJidan4ysdjUJfB9JqWI/wc9bj9531lG/OegQsvg6fzvdz1lMOOet51ngXgIAH1856vpuzHkhdc/y9OzBCeeWsd/t00kUpA7h/3mUAxjtEh1C3sM+M7Ahf3ld+N/blXXXKAcqp0047TZ544gmrs3i2nHKA78mz6NyX7MBvVKiFLzcCB+TdUYYOChTOiAv+Zx8Kc2rkGBECClFugFv4AuIUYUT+VXZzfBFlPGwcC+GLMHHgpXKELzeaXDScAz8sD25ha+bieq+55hpr1NAcqACwjiR2fhcHCoZ7773XGtF2Bx5qZz0FhQOREPKk165dmx7hA34f1mEvvPCCZ23aQ+ysx9xwrx1zHBIgCp317hcGR826L7/8MsN6nqONGzdac//uRFKd9e6XiNYEauGYe39qsM569/6ZrUd8U7hi7uO417v35zdw1ruvn3vN74BlZz0FNM8rETGcm9vZ1apVyxYC7vNmRXaEL0PewMsvv2zTHpzotiN8KURweBRiPHMYo6jwW+UEngEVvkUDR/jiK4hGkcrghooihRv9PShQaUmgAHXKAIQwKWo8x27hCzSjUqCyf2bC1zvHF0h1oBDGnyF0nYIbH+cs854RSUOwt2vXzoplmo0LG/gApxxwV/rx/axDlLrX0x/H8feIOQcq4s56dzlOeqLj0937IxCd9e5O6vz+znp33xn8juPr3cfB5zrr3cchgMM6ygIEmQNRWMfXu78XPsxZ7/ZxCEvOh093B0t4xhxfz7kc8HnOeifSCTwvjk+n06YDvszXep5VZ723tnB8PeZ+pjNb7zy/CFHviC9BKfJz3eVGVmRH+FLOcn72rV+/fvr76AhfWlKoZKAx3OUAGs/7Hc0K7l2hFr7U5qklkYPifAkeIELjRNdwjBSwODn3D/Tggw/agpQH1Vv4MioEgpQbkx3hy3Ug0Ngfh4hDQ1hzPPahwwTCl+M2adIk/eXj4UYQ4JQVJRAhMuY4Ot6JVatWpTvD7JIXwpfCAOHiVHhwiORUPvDAA3Y5u6jwLTo4wpcygGdo9OjR6QUlZQGFJYUnQQnyBmllcz+7RBfx2fhfKuRu4YtoIQrGdvpkeD8vvoQvYpYRI2688UabskNTLRVRPktUDOHLtbgjnlwnUThEnz6TSiDCO0aLpNPyR8AOv+von+ySF8KXQAz7kX7BfrynRH+pbLkDW8ej0Atf4CbxJQjLI1RpJiAZmpvDj0OonmYTN4TzaZqgScRb+ALrOUdmwhfRzHjA7du3tyKXQhkHSYFNLQinSHM/UWOnqYObTC2JWj4dMmgWoYnC7TwVJVBAbOJkqGETxcptHmJeCF/eTfIiaYqjExypRLSwuCMj2UGFb9HBEb5A9BEfTIADn01BTSHL88SzQ/M3z7D7dyeCx7NH87e38AWnNTEz4cs2/DllAJFjyhP+0hpDSxDvDoUygpxnmlZEjk9lklYTospcK83hOrqPEqgQ1MN/O6NhufOPc0JeCF/KBTo28y7Rb4sUGYaRdUfOs0OREL5Acwn5ODgpbpCTK0KNm5wgdxOHAyMr0ExGUxi1dHeNgRtOjhfNJt7QhLZixYp0w4FxHOdHwtESfmf0CJwqTTzkKAFNOeTFUnCTa+Y9g5CiBAo8u+TD44xOBAQv7yCROQdEBXm9ODKiyM6wgzQ5suxUQp9//nnbMQioIJIvT9Mz705u8uNV+BYd3MIXqDzNmDHDlgHkfjvDHPHc0Qrny9fSl4O0BJqpyRF1H49nkCZVRLX380LePs+iUwbwPz7eLQrI/STSy8RIDNFHMIXj0yzNkGqUAZQR5Pjq86gEKrSmU2nMqbj0hhYROjG7ddY999xjU0qI3NLp30nNYN+bb745/X2kBQUBznvCO0aHUAYiQOvxXuf0/SkywldRlLyFymJRe8dU+BYdvIWvoih5C4EJ7wkmigIqfBVFCRpU+BYdVPgqipIbVPgqihI0qPAtOqjwVRQlN6jwVRQlaFDhW3RQ4asoSm5Q4asoStCgwrfooMJXUZTcoMJXUZSgQYVv0UGFr6IouaFQC1/GclNTU1PLrjHmIwOxq/At/CB8+T19/c5qampqmZlTDhQ64cvYh2pqeW0MTO9rvVrRMSa2UQo/vn5bNbUTNaZH97VerehZXgdA8l34Kkpew0Da119/vWdJURRFCTaYGdI92Y6iZBcVvkqhY8yYMVK5cmU7i4yiKIoSXDCzKlO033nnnZoOpeQYFb5KoYLZaaKjo23u+C233OJZqyiKogQLixYtsrmfTZs2lQMHDnjWKkr2UOGrFCquuuoqK3qxRo0aaW9xRVGUIGLnzp2SnJxsywA6Tq5du1ajvkqOUOGrFBro2UlPT0f4Yo8++qhnq6IoilLUueKKK6zgdcqAHj16yJEjRzxbFeX4qPBVCg0PPfSQbd5yC1+aug4dOuTZQ1EURSmq7N+//5jgB+O8btiwQaO+SrZR4asUGlq3bp3B4Tn22GOPefZQFEVRiir33HNPhmivY+PGjbOTHShKdlDhqxQKPvzwQwkLC7NOLjExUYoXL57eya19+/ba1KUoilKEwcc3b97ctvoxogORXsoCyoCYmBj57rvvPHsqStao8FUKBfPmzbPO7YwzzrADl7do0UI+++wzGTt2rF3/2muvefZUFEVRihovvviiREVFyejRo2Xjxo1SqVIl+eSTT2TJkiVWCDPSg0Z9leygwjfAQeh16NChSNjdd9/t+VY5Y/fu3XLKKafI999/b5c/+ugjK3wdcIInOqHF888/7/OaC6NNnjzZ860URQkW3njjDenYsaNPn1AY7d9///V8szQuvfRSWb9+fXouL8L3xx9/tP9v2bLFCt+//vrLLnszZcqUInNv1qxZowL/BFHhG+D069dPzmzcWB466aRCbYOrVJEVK1Z4vlXO4CV3d1z4/PPPbae2vOzMcNddd0nnsmV9Xnthsstat87ze6MoSuDDCDdtypSRB334hcJmUaGhx8zK5u3T3MLXITNBSIrEpcY3+jpXYbIJtWvLwgULVPieICp8AxyE77MnnywyY0ahtrONGMut8PWGXK569erlaV4vwndirVo+r70w2SdDh6rwVZQgBOE7vHp1ST3lFJ++oTBZbHj4cacj9iV8MwPh+7Hxjf/zca7CZFe3a6fCNw9Q4RvgqPA9FhW+mZsKX0UJTlT4Zo4KX8WNCt8AR4XvseDsatasmaeztqnwVRSlMKPCN3NU+CpuVPgGOCp8j+XXX3+VqlWr5unEFSp8FUUpzKjwzRwVvoobFb4BTnaF76ZRo2RO/foywji+2zt3lsPTp/vcz7H/Gef4qjn2BCP2EHyv9+9v17Htv2nT5MaOHe2x5jdsKFvHjEn/3I4JE+SsJk1kaLVqcnnr1rJ/6tT0bVlZURG+fN/L27SRYeb7n2W+E/fD135u+2nsWFlg7uNw85lrO3SQ/zy/Dff77QED7HnH1awpL/ftm+6Yj5htt5nfkd+A35Xf133MzEyFr6IEJ9kVvvifa9u3lxHGH+GXthv/5Gs/X7Zn8mQZac7x4eDB1ldxLjqNnWnKBMfu6dbNbsO/re3dW8bVqCGTa9eW9wYOzLbwLCjh+82IEXJqvXr2O97Xvftxy1G3PWD2n9egQfr95+/jPXvasmKwKa8eNttTPcfbOXGinNusmQwz61e0aiX/MBKP61iZmQrfvEGFb4CTHeH7t3lpasfHS8vSpeU08+LFGaex2rwgvvZ17H3juGLMfryUvOQ4Gtax7Qoj7FhGcLVKTpZ6iYmyd8oU6wROKl9eapQoIQsbNZKyxYtbJ+F9bF+Wl8L377//lnLlyh0z3M2JkB3hiyPHsZWKirIFBvelq7mOrJzjQSOUm5QsKQ2TkmwlIiEyUi4wTphtXw0fbn+DgVWq2ApIRGiovG0KB7ZdZwqmaLM82/wGHcqUkarmnlPouI/ty1T4Kkpwkh3hiw+7qGVLKWH8zlzjj1qUKmV9037j333t7zY+u7hxYzuBxAt9+lgRuWfSJEmJjpZOZcvasgG7oEULu++rpiJfPCxMxphK/RAj8DgnPi874rcghC9itEJMjHQw34Vyrbi5BoJIfBdf+7vtR1N54D60NOUlQQvWPdmrl/0es82xCGxEmXtBGUt50ddce7W4OFlofoMKsbG27HE+l5Wp8M0bVPgGONkRvnd16SKlzUvHi8vypaYGWSchQf6cMEEeNLXMHzzRQqKVj/boYZfHmxexV8WK1kliPSpUkBl169p9KpkXcZVHOBPRRKw9ZV7iDYMGSYRxel8a58U21vFi/+U5b1aWl8J37969UsaIQeZtzyuyI3z/MPeC7/u4uYcsbxw50t4PnNnzvXvbqDnrcZT8v87Y0+Ye4fx/HTfObiOSjoMkqo5zRdSyP8aQbzhI/q9sfgMiAXxmnymUksxvcF+3bnY5K1PhqyjBSXaE7wHj35NMxf2mDh2sCPzT+O5o458oY143ZQ1+zBFg+HsErrNM6xTBDgScI3w3jx4tZcy6v40Adp8HH9avcmUZXaOGvZ4jRuy1S0mxwjmr63OsIITv1W3bShUjRvG3LFNmtSpd2vpuylGn5XPv5Mm2HOW7s8x3G2p8d3kjmgkUcb/4jnxfAkT2+xujxe8G4/8/HDJEIkND5SPzl+t5ydxLghxOGZGVqfDNG1T4BjjZEb6nGMFK1BBnw/IGI8RCixWTrebFbG+EVUdTgz1khNYVrVtLSeP0aDavGR8va1xRYURWY1Pz/3bECAkzYg5Rx3qO2dEcg/SGVcYx1DaC2jkPwpooJQLPOU5mlpfCd9++fQUifElFwCE7FQzEa/USJWyzIWkfMaZA2Gjun43kmv9v69TJjsFMNMQ5xnfmvoaY3+Zrs0/jkiVtJcXZRmWjhvldaHpkGs5Phw1L39bLVExOq18/fTkzU+GrKMFJdoTvx0Zs4d+3u9LXWhuxtrRZM7m7a1frz98yAhcRRgX9fCMYaZ6nxY+WK1K1ELqO8H3T+H6CLPhGPk+5QflABJno6T1mnSM2KUMoSwJR+HLNCNMptWtbIcs6BCkC9ffx46VZqVJycsWKctD4/GUtWtgKAFFe9rvfiGJa/5a3bCmtjdhF5BIkKRERIa+Y8pt0j1fM/dltBDPHvt7cQ1pNnZQ30hxo+XvOlPNZCXNMhW/eoMI3wMmO8O1vHABN4s7yFiN4w41zQ4CRi8Vg4LysRA0RaTix0kYAE7F1PnNHly5SzrzMr5nz8cI64g4jFQKHsNjUXokMO+v/nTpVko1zfMwTAc3K8lL4QgnjOI7nGHNCdoQvkXWcvttxtzGOjtQF7kVTUzDQhNXbOMhu5ctbJ0cKA9F1Z/9/zL1H1BJd4VjkhTnbiCJw79cPGmT32eWKonD/R5vfwVnOzFT4Kkpwkh3hi7hCzDmiCyP/dGa9enZdT+PfiVpOMD6LFAgn9/QcI4x7GJ/GMqLPEb53Gp8Yasoaop1V4+Js6xYVfsoPopgIY0fMrTFlT10jEJ0IclZWEMK3vfHl5yH0Pdf3+bBhthzdZioJb5rKAOUo4jbe+OhbzXfkM1QQaJ1ba+4rgtYRvt+YspdKBPeEMpL70siUD78aEU1ZSIqccx+477SyUr4cr1KgwjdvUOEb4GRH+CK0yD11lokY4txISeDlXGQEK0KKZnVqrOQEE/nFCTqfubdbN+vQXjQOjRd7t0t0IdzonECOKrVeZz3NZjg8BJuzLjMrCsKXzmblzPflnjrrmO2NqAj/EynBUVJ7/3rECLtujKdjh7M/ApnfggoGucIPn3RS+jYqInHm3tOkyD78Ts42CqZRKnwVRcmE7Ajfp3r2tKkN7n4J+JUZxr/wOTp34YPwY1TOEYofDB4sKaZsIJBCyyEBEkf4UjbR34Fc3wNm26z69W2keNPo0Wl9Fowvc8TmjUYs1glg4Uvk+8IWLdLvH62f3IctRviyndQ0RH53Uzngu7LfWOPfCUpwP0ljcIQv94zI+mRTplBZIC0CcUuHNgJI5EI794HPEgGmEqHC1z+o8A1wsiN8yQslsugsf2VeWFIdGE2A5WtMTRshRb4VLzBN9DRD0TTlfIZIcAPjlBBO1Gydz+IoiGKe0bixTYfAOTifIXKMg0LEOesys7wWviVN7XnXrl2epRMnO8KXzgpEzRGvLOOkGprrcFJGSCFB9OL4nYg56Qn9K1dOP8ZvpsZPqgPRhFrx8XJDhw7p23B8RAhIh+D3co+mQTPcLON4neXMTIWvogQn2RG+CFEEGULVWUcrHiPUUDaQ80tLFKla+CG2k0qH2CUyPKhKFVs+tCtTxo56wLncgQD8D/0eyF+lYv+M8ZmO2KT8IKp6PHGHFYTwpZxDxDvXxygUfBen5Y3p4BG+U43QpTWPSDBR7c7lytnOe6SCJJrygXKWSDf3mdY755zTzX2kMznHIXXCEb5UJsi7pj+I+176MhW+eYMK3wAnO8KX/FJyjHiBWEZAVTM1SKK7RH9xQLyYRIGJ6LIPTVrOiAy8bIjnSUb4IdiI+D7tOSeJ/ohkIpO8mIwY4XRm46Xmxf/DiDmWs7K8Fr44ve3bt3uWTpzsCF8KAqdTAsuIWO7HO8ZB4gjJs6aZsLIRrzONk2Ofmzt1slFifguWn+zZ04pnlunM5lRY+A0oYBC4RBP4DcgdYxsRAXoAk47CclamwldRgpPsCF86K9M5jXIAQUYlno7RpKuxTMtS3YQEaZSUZCvsBEloGUS0YowIQUR4ghF/bxhxh1AkaOKIO8oIfBd5sQRJlhhf5IhjRPNc13BfWZm/hS+2pEkT2yHNSQNhZCTSEyhX6RCOqB1qylGEP52XEcSUvc694ftRVrIOUcx9IFjCOfn+Q8x2ghfk/FJuUH5wHoIglCtOznBWpsI3b1DhG+BkR/h+T6TRODPE5SNGoFaMjbUvMQ6GppgGxokRnUVU2aHJJk+24ph8UvKKVrZpY3OQbPOV+QxNX+R34fAQw0QAEMQ0vVPzJ/XhGbOtqam1DjTOkc/4ui63FQXhi7glXaRL2bLWeVEwcD8RqhQcOK/3TGWAHsD8T3SFnC7uMw4f0UvnNUbP4Hj8VjhRhsxh+DL+Zx+20XxGR0J+ewQxTtdxlFmZCl9FCU6yI3zx1VTQmxvfTV4qY+zi00ltw18hip8wPghRy//4MrdYpBJOepuT6oAQpr8I5QhlAjm8lB/4yquMSCtlRPX93brZ3FjKGNLBshKfjhWE8GU7fnuFuVaCDqR3cN18Z4IUDBdKOTrA+H3KPvpruD9/S6dOts8HkVzuM2lulA+ksNEqSIWBsfM5RhVTRtN35lmzjc8QiOI87uP5MhW+eYMK3wAnO8IXI22BoVgSzMs11ghTRCoRyi7lyqVHecm7otMVLyK1WMYQJNeX3F5GF3Ac5s+m5skoAryovLj0SHXOQ1oD69jGy/pTNoZgwfJa+FYzIn7r1q2epRMnO8IXI++LqACOuYVxhPSSxmHxWXotsw/LU+vUsdEQHC0FCTlcCGCiAk7EnMKBCgoReTpA0EnO+Q2IzND0RmQAAWx7/Hq2ZWUqfBUlOMmO8MVoBexuygF8C0ERfDp+ij4cVMqJeOJrmIyCTm5OaxWGzyLl4X1PEz6jN1CpJ9KJD6Mp/xdPmUAfEHKHqbSzHfHnTOBwPCsI4YuRp0vgiGueZnw4LZ5EZOmMxuhFfJ4ygHKUioP7eLSS0tLn9uFUAmjhoxXwqjZt7P1jG6kQRJP5DSijyQE+3rVhKnzzBhW+AU52hS+GwyL6mB2BhLEfTg0R7P0ZXl4cl69aKOvYdjwH67a8Fr6NGjWSL774wrN04mRX+GI4L76/48SOZ9xb+9v4uGfOb4Bl9hs4BZF7W2amwldRgpPsCl8sK/+eU8M3UYb48mEsUyb5KmOysoISvhjXmpNyNCuz99kcy5cPz005qsI3b1DhG+DkRPgGshUl4RvIpsJXUYKTnAjfQLeCFL6BbCp88wYVvgGOCl/ftGrVStavX+9ZOnFU+CqKUphR4Zs5KnwVNyp8AxwVvr7p1KmTvPXWW56lE0eFr6IohRkVvpmjwldxo8I3wFHh6xsVvr5Nha+iBCcqfDNHha/iRoVvgKPC1zd9+vSRF154wbN04qjwVRSlMKPCN3NU+CpuVPgGOAhfhrWaXb9+obbmpUvnqfAdMGCAPPPMM56lEwfhWychwee1FyZjbEgVvooSfCB8axgfxrTBvnxDYbLw0NA8F74jjG/0da7CZIwjv2D+fBW+J4gK3wDn7rvvlrPPPrtI2BtvvOH5VidOXgvfjz/+2Oc1F0a75pprPN9KUZRg4csvv5SlS5f69AmF0Q4ePOj5Zr7JifC99tprfZ6jMNpzzz2ngY0TRIWvUigZP3683HfffZ4lRVEUJZjIifBVFDcqfJVCyYQJE+See+7xLCmKoijBhApfJbeo8FUKJSp8FUVRghcVvkpuUeGrFErmzJkj119/vWdJURRFCSZU+Cq5RYWvUiiZO3euduJSFEUJUlT4KrlFha9SKFm8eLFcddVVniVFURQlmFDhq+QWFb5KoeS8886Tiy66yLOkKIqiBBMqfJXcosJXKZSo8FUURQleVPgquUWFr1Ioufjii634VRRFUYIPFb5KblHhG2Q8/fTTVjQWduvTp4906NDB57bCZjoRh6Io/mLr1q2yfPlyn76oMFliYqKcfvrpPrcVRnv77bd1RjY/ocI3yJg4caJ0LFtWJteurRYA1qtCBTnppJM8v46iKEr+8vrrr0v52FiZ5MMfqRWMNS5ZUi6+6CJJTU31/EpKfqLCN8hA+N7VtavIjBlqAWCv9O2rwldRFL+B8O1mKtypp5zi0yep+d/OadZMll98sQpfP6HCN8hQ4RtYpsJXURR/osI38EyFr39R4RtkqPANLFPhqyiKP1HhG3imwte/qPANMlT4Bpap8FUUxZ+o8A08U+HrX1T4BhkqfAPLVPgqiuJPVPgGnqnw9S8qfIMMFb6BZSp8FUXxJyp8A89U+PoXFb5BhgrfwDIVvoqi+BMVvoFnKnz9iwrfIKMghe+f5twPG5H349ixPrfnhX0/cqS8NWCAz22BaCp8FUXxJwUpfP9nzrmuf395oU8f+Z+P7XlhnOOF3r3ll3HjfG4PRFPh619U+AYZBSl8V7ZpI8WKFZP5DRtmWH9r585yXfv29v8vhw+XibVqyZHp0zPsk11b3a6d9K5Uyee2QDQVvoqi+JOCFL77pkyR5OhoiQwNld/Gj09f//fkyTK8WjX51SNWL2rZUh7v2TNX4hjhWzcxUZ7u1SvfxHVemwpf/6LCN8goKOGLk22dnCzliheXSrGxGYTtaQ0ayJTate3/r/fvL0mRkXLYtR1H9p9Z5q+zzjHWY87y8YQvx8hMVGe1Lb9Mha+iKP6kIIUvYjQ+IkJKGLulU6d0YUprYHhIiHw/apRd7lmxolzSunWGa8Q3+/LP+O0D06al78vy8YTvEbNPZt+fc/gqa/LTVPj6FxW+QUZBCd8fjEMLK1bMpjoQ9V0/aJBd/4Sp1VeIiZGyRhCf0aSJNC9dWsKMAxxYpYoVvx8MHizdypWT6iVKSKeyZeXVfv2sU8KIEtdJSLDbFjZqJIeM83ML3z/Gj5chVavK9R062P1f7tNH2pcpI7XNZ2bUrSt/TZpk97ukVSu5qm1b6Ws+x//ONfvDVPgqiuJPCkr44oPH16wpo2vUkKHGL/cx4ta5hoGVK0uIKRfapqTIkqZNpWRUlPXr93brZsuBC1u0kPpGzFrfXa+e7PH47l+Njx9WrZpUjYuTlqbseMn4eI7pCF/+f7RHD+ljfPt3I0faMuJcIzLrme3NSpWS2zp3llRzfM5xsrmeO81yo5IlbcujP6PFKnz9iwrfIKOghO8KIygbJiVZJ4NYXWSEKus3GmfUwzhhR9QuNU6veFiYPNi9u62V14iPt3OZv2gcGlHhirGx1nk9aQRzVGioTZ+4o0sXSYyMlNuN03KE7y7jGNsYJ3pS+fK2eQ1HFhceLvMaNpS7zffHMeJ8ccZjjTMm2tDfOF/O433t+WkqfBVF8ScFJXxJZ0DQPmaEKII22vj5PyZMsNvuML471PjgK40/pxygrBhevbp8PmyYFa6kR9xl/PwjxlfSYni5KU/+M+XASeZ7ECxhn6mmfKBF8S9TxjnCd23v3unRZcoeypfyMTFys1leZsR0lLmGJ81+h8w2ygDKkbn16/s9P1iFr39R4RtkFITwpemI2vUFzZvb5dMbN5ZqpobuON7MUh1wbDiEneaaEbuIUpwTQnZQlSoywjhGhCufQwBjCN/ORkT3NrX35uacfJbtCG3ENWkRnBfBGWccItsRvh3LlMmQMuEvU+GrKIo/KSjhi+BFWO4xApjUBgIcCF4iq1mlOrxhhPB9RigTCNlvfD8BCsqMjSNG2OAHnZk5BsGOAWYbkd06RvguadJEkozQphWPMojP0rJIgMSmTZjjjTO+HztoyhfOT+ugr3SK/DYVvv5FhW+QURDC91vjoEhvoBlrsBGsLUwNnWXSGNieVY4vzpImKCK/seHh6cKXiABC1zmHYwhfjo11L18+/Tg0dRFtaGrEMEazGftsMo4W4evd4c5fpsJXURR/UhDClwDFiGrVpKTx7QQtMFrg+hqhynVkJXwJTixu3FhaGL+dEh1t95tTv74NhCCk+az3uYj4kjqBIZoRxtvHjrVpdLUSEtLLgTJGCBMQIUeY4344ZIhfUxwcU+HrX1T4BhkFIXxpUqJ56rzmzdPMvOQ0N1EjZ3tmwpdmrgjjjM4y+71tavWvm5q/I3wRz5e58nG3jB5t0yYQvpyL3GGiAQ9172639zPCl5wymtGwl43gfKpXL9k/daoVvjhW51j+NBW+iqL4k4IQvqQfIFIn1KqVXg6MqVFDoo2PRthmJXxJdatrxOr9RsB+Y3w8n6PMeMOUFXSUc9IlKDM2DBpkI8oI31lGHM+qV8+2LnL+nz3Cd40pI17xlAOkQrw7cGB6qsOnpsxR4Vv0UeEbZPhb+NJs1CgpyYpX9/p5xnHVjI+3tXOc2CTjEPkf4ZtgnBlpDg8ZQVgqKso2Q7Ht2vbtbQe5vcaxIZSJ6NomK2PU2snfcnJ82X9qnTq2gwS5ZWebbQ3MdfxrhC7byCFuXLKkbf5S4asoSrBQEMIX0YpIdVLPMAQrw5rR52KHR/gSvGAbwnd5q1b2Gum0xvBm+HmntW+2EbVEcIkaM+wZ+9GCWMIsbxo9Oj3H9+dx42x+8DnG/+PrCYo4qQ/Y0GrVbGc3J9VBhW9woMI3yPC38CVqS3PTh560BsdeM7VtUg0+HjrURoSJBqwyovWL4cPtelIivjVOkA4Q/SpXtmM8ImKpsV/Rpk1aZzXjSLuWK2dHfSCNgdwuR/hyjp+MY+S4ODYmzSDKzJBqRB1Im7isdWu7nwpfRVGCBX8LXwINjNJDZ2L3OVnfxfhu8nIRpYjWlsY/I1bJu61o/DXBDwIjyca/z6xXTxoYQVslLk5qxcfL16YMWNCokSSabYwUQcc2fDlBE0f4ImJXtm1rBfLXI0bIDR062NziMWY/+oJQPlDO0L9DhW/woMI3yPC38GUYs3vM+bydLJ3V7uzSxW6nUwKil/QD9iMn6zpPJ4M3+/e3+beIVCIEjOCAM+QYnxrRvNQ4jItbtrSRAhwpzo1mLOc8pEeQ9sBxN48ebSO/OFKcopP/++aAATa3y/mMP02Fr6Io/sTfwpfRFOirQVDDW1QSpWVEBq6FYAj9Nnab8oDUNUZ4+MD45X+MKL7KlA+UA8/27m39+HLj87eOGWMjtXebMuHMJk1seULqGuUAPp+IMOdAVFMGcX46tD1rfD8RYwIiBEu4Js5PuUhZ5L4+f5kKX/+iwjfIKIgcX7XMTYWvoij+pCBSHdSyNhW+/kWFb5ChwjewTIWvoij+RIVv4JkKX/+iwjfIUOEbWKbCV1EUf6LCN/BMha9/UeEbZKjwDSxT4asoij9R4Rt4psLXv6jwDTJU+AaWqfBVFMWfqPANPFPh619U+AYZKnwDy1T4KoriT1T4Bp6p8PUvKnyDjEAQvsyVzriO3jajbt10Z8xQNeMZyzE21k4r2bdSJfnINeTYlDp17Kw7zjLG8GaMFbl3ypQM6x3jmEyVeU+3bj63F4Sp8FUUxZ8EgvBliLHBxlf7Kgde6tMnfYgxhiFrnZIipaOjpXZCgh2CzPHv7wwcKONr1TrG369o1crOzpbZ97vVlD9DzHkY593X9oIwFb7+RYVvkBEIwndRo0ZS1ojZicZpuY1JJHBWOyZMkKpxcXZmNyakuKlTJ2njcX6M78gxKhhBfG2HDhmO+5IRkRGhoZmOxci4kEyO0So52Y4R7Gsff5sKX0VR/EkgCF+mFWYyopMrVjymHGAqYoTv6vbthSnrWXenKbMYg71ERISdyAL//bDxm5QJ3v4e8cw0x76+H5NbMJMokypdb8oPxvz13qcgTIWvf1HhG2QEivDtYRyvr23YYrOdKO+v48enr2Pa4cpG7J7umWEtp8IXJ8jUl0xzjDNl4HLvfQrCVPgqiuJPAkn4vjVggM+Z0gh+MKvaEuPv3UGK27t0sbN5bhkzJlfC9+MhQyTalBFMcW+nvFfhG5So8A0yCoPwJdJL9NfbIa4fNEjeM8b/ORW+344YYR3e+4MHS7mYGBv99d6nIEyFr6Io/qQwCN9HjE+MMv6a6Yvd6/dNmWJngdtpyrHcCN+zmjaVTmXK2M/a4wdIuoMKX/+iwjfICBThi/icVqdOBnOmEWbO9HuPk4ebU+FL3lfjkiXt8ScZp9guJaVAHb9jKnwVRfEngSR8+1aunKEMmF63rp2G+JLWraVGfLwcmDrV5+exnApfpsmvk5AgV7VtK7tMORgfESE3dewYEOkOKnz9iwrfICOQcnwn1KqVwZhfnRwsHOKD3bv7/KxjORG+NJU1MaKXud5/Gz9ebunUye63adSoDPsVhKnwVRTFnwSS8O1VsWKGMoCgxEEjdglU1DbCFxHs6/NYToUvLYZEeekURzlwUvny0tPch0BId1Dh619U+AYZhSHVgfzeS43j815/R5cuclnr1vZ/au7e6QrPnHyyrcWTD+xe/+Xw4TaKHBMeLgmRkRJn/tLJbZWp+bv3KwhT4asoij8pDKkO5PLGG1+928uX49uJDH8+bJg8Z/w9ecDkA7v36VOpksxp0OCY70e5wzkTTBlBOYAIjjSGCHbvVxCmwte/qPANMgqD8B1StWp6WoKzjpp/rfh4WdKkiV2mYwLDnbmbqRDL1UuUsE1azjrsgubNrVBGAH8zYoQ1hj3rWKZMgTp/TIWvoij+pDAI36+Mr6YTMsOZubeT+0vnth/HjpVPhg61+2wYPDh9H6LF9BGhLHB/P9ZXj4uTpab8+NpTDjA8Zmx4uG0BLOh0BxW+/kWFb5ARKMK3WalS8rIRfW57vV8/64DeNM6QCO2sevXs8GXbxoyxtXyiuZs9w5mtatdOihsHSEcHavwISCLFc+rXz3Au0hwaJCXJWR7B7JjTuWGr53gFZSp8FUXxJ4EkfK9q08amqLnLAXw+5QBjrpc3Pp2+H78ZH/+q2VbZiFfSGAiKkP9bLyFBupUrJxtHjrQd4c40fh5h/LERxW7B/Gb//tbf08nZWc85GB++d8WKBZ7uoMLXv6jwDTICRfiSauBt1L6doWtu69zZNnWFmvWhxkGmREdbB+jUzPcbpzeyenU7HiMOjc93LltW/vBq9qJJDBH9weDBGdb/MX68TXlgLEf3en+bCl9FUfxJIAlf7zIAW9aihb02Ahq9jTDFx+PD2TbAiOE/XT6eiDGTHFFGsA/BkCuMmHYPgYbRv6NF6dIZWhGxGzp2tEKZUSLc6/1tKnz9iwrfICMQhC+1axyQL3OELX//mTJF3h00SD4cMsTW7p1tjrHMbGzrTG2ecXl9OXLWuY/rGMusL0jnj6nwVRTFnwSC8HX8ry9zXxf/0wmZVkBa/nxdM2UD4/PSaQ0B6+3rMYSwtxjGOB7n9PUZf5oKX/+iwjfICAThq3bUVPgqiuJPAkH4qmU0Fb7+RYVvkKHCN7BMha+iKP5EhW/gmQpf/6LCN8hQ4RtYpsJXURR/osI38EyFr39R4RtkqPANLFPhqyiKP1HhG3imwte/qPANMlT4Bpap8FUUxZ+o8A08U+HrX1T4BhkqfAPLVPgqiuJPVPgGnqnw9S8qfIMMFb6BZSp8FUXxJyp8A89U+PoXFb5BBsL36rZt5aexY9UCwB7o1k2Fr6IofgPh265sWflxzBifPknN/za3QQMVvn5EhW+QgfD1nilHrWBNha+iKP4C4Rvqme1SLXDsoosuUuHrJ1T4KoqiKIqiKEGBCl9FURRFURQlKFDhqyiKoiiKogQFKnwVRVEURVGUoECFr6IoiqIoihIUqPBVFEVRFEVRggIVvoqiKIqiKEpQoMJXURRFURRFCQpU+CqKoiiKoihBgQpfRVEURVEUJShQ4asoiqIoiqIEBSp8FUVRFEVRlKBAha+iKIqiKIoSFKjwVRRFURRFUYICFb6KoiiKoihKUKDCV1EURVEURQkKVPgqiqIoiqIoQYEK3wJg/8bH5Mrb3/csZYcj8sNDl8q1b/1u/ssFh7+VJ1cul4svvtjLlsvyS1fKNTfdIfc/8Zp89vM+SfV8JE/Zv0meXTlfJgzsJp279ZPRs5fJLWu/kD92vCkrFt8iG3P1pbxI3SFPLj1bnvgjX75BnpP6z1ZZ/+SNcuGpQ6TjSefLO4c8GxRFKRzs3yiPr7xD3v/3oOz8dp08ePXpMqZbFznzlX/lf//z7OOLIz/Iw5ddJ2/9dliy2i0z9n30gFy23NuXZ2GXPiif/pubM+U9e944VzpWrSLtznxJdqYGxjUVNlL/2SYbnrpJls0aKp16nCdv/Zuaq+comFHh61cOyZbHFsigcavkgz2eVdnl0GZ5ePYAmXLHt3LQsyonHN7zo2y4aaRUCSsmxYqFSEyDEXLOZVcYB3q+LJkzQQa0rSbxEVFSss5JcsoVT8s3e/JGQB7Z+pBMq19Coir3kjNvflpee/1ZufvqRdKvZoyEFCsmYRVnyIu5+UJeHPlhpXSOiZa2l36Tu8qBP0n9Q96+60o5b0R9iQkx96D6XFmnwldRCg2HtjwuCwePl1Xv75bDm5+X1UtHS9OEMCkWVkGmPXcc4Ws4tPkRmTNwqtzxzYGci5ZUhPbzcnaHBAk1/oNznjTvIrnk0kvlUmuXyIqLL5Cz502UHrXjJSyql9zweyCIoyPy7aXtpXhYqES0uFA+O6SCLceYsuOde66S80c2lLjQEAmrNkde26/3Maeo8PUbR+THhyZJsy4Xyoa9nlU55fBmuWt0J5l4/9bcibsDT8j4kqFG+EZI43M/kcOe1Wmkyp6vHpEl3cpLeEiIRFXpK5e+tfPEIsCpO+Wh0WUkNLy2zH0945dO3fWBrOpfQcKLD5S7cloJOIZDsmFJfYkwhUB4zbnyxn7P6ixJlV2ffypbfNzI1F2fy6e+NuQxRzZeKm0jVPgqSmHiyI8Py+QWXeXC9X8fFRypP8rq7tESEp494QuHN98tYztPkvs25ybymyrb15wk0cZXF4vqI7fs9C1+Unc8JhNq9JRrfs5ddDnP2futPHfLLfLMV/9k6x4FJqbs+OIz2XL42C+QuusL+WyLudf5/N2OfHe5dCgeKuHVVfjmBhW+fuLw16uke7k2cvFnJ6ZwUrffJgOrdpTlHx3wrMkBB5+X6RXCrPBtev6nXsLXw4Fv5PYR1ayIDC3ZTVZ+novzOBx4WialGKEddbLcvMOzzgVOeXzVdnLJtycoMvc8LVOqlJSkeHOu0NIy/P4dxxXsR7bdJ6NbTJNnvb/ekW1y3+gWMu2YDXlP6rarpXOkCl9FKTQc/lpW96ggbS/6RA641Ubqr3Jdj5wJX/Mh2X77YKne6WL5YH/Opcvu2/tL8VCEb1+59a/MxM8+Wbtwutz6U4AI3yLAkW33y9jW0+WZfV733JQd949rLdOf2Sf5ncWR+uNq6Rajwje3qPD1B0e+lVXdEqX0iAflL8+q3LNPXpxRRUq0uVg+zalYyo7whT2vypzaERJSLERiO10pudal+++XobHGMYeWkoG3/ehDjB6UdQtOkvmvn0iuQ6r8ctsAqTLwBnl4Tg0JN9dcvOMVWecN7/9ELuuSKOFlpngJ3/3yyWVdJDG8jExR4asoSgaOyLerT5KSySPkgT//l1Fs5Er4Gva9JDOrJUibiz7OKKSzwe47BmRD+Cp5yv5P5YrupSSy7GR5KoPw3S+fXtFdSkWWlclPqfANdFT4+oF9L58q1cITZcQDuz1rvDj8u2y4d4WcPm++nDZttAwbO0cuffxrySwj4sDz06RCeCkZeu/vx41sZiC7wtccdes13SWW/LHwmjL/TS9Vdvg3WX/vcpk7frgM7NtHBo87TS6+5z35zfuAh7+UZS0Q0MUkNLGVLHzmx2POmbpzi2zddQIJFUe+lhXtqsuUp/+Rw18sk5aRpiAIry0L3/YtplN/Xycr+lS0Ee2QuKYy6oyz5Kyzl8lDX/ws61b0kYoR5vMhcdJ01Bly1llny7KHvjp6zTn6nfbKN0+tlqWzxsvQwUNl3Knny+1v/5whP/tY4Zsqv753v6y66Bw5+yyu61y5+Or75L3fTyjhRFGUvGDfKzKrRqQkjbhf/vJWthmE717Z+elDsnz2aBnYf4TMPGeNPP31P5mIkwPywvRKEll6iNzza86isscTvke23SXnrf5U/jMb9nz6iFx5wdnGp50lZ1/4oHzBSiPkN61dLcvOTVt/1rm3yDu7HUF/QD6867w0P+TTzpVb3/3bCvwDH5rznO1rnzQ799Z35W/nfh38TT5+co0sOece+cZeg4fDu2Tjq3fIslnny+PmPhzc9rrcfP6pMnLwMJl23gPyxT9eFQ3LEfnj/XtlxcLpMnrIEJkw5xxZec/L8tlPf2dRtmXO4d/fl/suOUPmzz9Npo0eJmPnXCKPfZn2HSH19zfl0n6VJSqUsqOJjFy8xJYdD37+k6y7pJ9UiQq1ZUeTkYtlyRJTdjz4pRxyPmzKjvfvu1TOmH+07LjksS+P3pcM7JVvn75Gzp09QYbZsuM8ue3N7eLun3is8DVlx/oHZc3F57rKjnvl3Rw+U8GCCt98Z488PKqkhEZ0lJW+8kYPfCpX9yonsS2Xynu7ETgH5Nsb+ktyeGnpdd23vnN5d94m/WJCpHi3NbI1J5oo28LXuJRNV0iHCDrCse9nnrXmhfv5GVnYppzUHHK1rNu+Tw7v2STrbpomTUqES1LrBfL0dvcVp8pvj06UqohJI35DIlKk3axb5f0duQ0hH8uBN+dL3YZnyHsIx9TtcmPveCO0QyVl9EOyM22XDBz59VN55fHTpY35bqFJvWX5sy/ICy++Jp//8rN8+srjcnqbCCkWmiS9lz8rL7zworz2uadykYPfKXXH63Jxv8bSasqN8taWPXL44Ba5bUgZCQ0tKZ1WvC9OCrLviO9eeWNuHSnZZKJc8+YvooFgRQkM9jwyWkqHRUrHKzdZMZmBdOFbXoYtmiaNy1eRRs3qSbmYsLSKf3wLWfzi73LEhwrZefsAiQuNka6rN4uPtNFMyVr4HpEf1vSSVqe/Iwc84uqfNxdI/cgQCUkcLQ+7ooR7P1shXeJCJSSyq6za5hFKqb/JDX1qSJ/z75eX1r0j77yDvSUPL2ghsXSqqjBS7rfpE8bH39BHavQ5X+57aZ1nv3fkrYcXSItYc8ywCjLy/p/k8JFf5Y1rF8qg+gkSRl+MemfKe57RCI788KxcMrWt8aVGOEa0lyW3LJF+bbvJkAnj5OR6iWb/MEkeeKtsznDTD8nG24ZL9XLdZPl7f8qhvdvk+bPbSVI4gYtIiS+dImVqTJMnvNMRMuHAZ6ulT8US0vLst2UnP8KBjXLToLISmdxTrvnqkI3gHvn1M3n1iTOkXXSohCWdLBc9vVaep+z4+Sf59NUn5Ix20RIaliQnX/SUrH2esuO3tN/7wGeyuk9FKdHyLHl7J/fsgGy8aZCUjUyWntd8JYdc4eHUHW/IioFNpfWU62Xdpt3ynyk77hheXiLCSkrHi9+Tfzz7+o747pV1CxpIctMJsvr1n3LcghBMqPDNbw6+IqdWDpPQ0hPkSR+t5weeGC+ljCOJH/Gg7POskz13ySAjbCNaLJMvfanTQ2/LwtrhEhLbT27zkTubKTkQvun5uUZEJk98Km3dka9tykZEzdPktfSLBeNkr+khiaGhktj1Kvk6w4H3yxe3jpO6cWnilxElIlJay7Tr3pUTH3nsL3lkbBXpdMXGdOG5+/HxUpYaeWxXuXpTJgJ7163SJ8oURsekOuySW/tEGeF7bKpDtn+nI9/JDb2TJWXQHfKj6/vte26aVAgzIrfCKfKCJ+x7jPBN3S3rrxwqJ02+TT7PbQdIRVHygYPy6qyqRoCUlvGP7z82lcERvqERUq7XCnl7R5qATN31riw/KUXCje8Ir3qKPLfn2MjloXcWSd3IUInte6v8noM28nThG15ZOo+bLFOmTEmzyRNkVN8WUrF4hNRe9Ha68JU9d8rA4qES6iV85eBrMqdqhJfw3SbXLVwunxw6er1Htt0pQ8uZcgcxe58Rs2k7yrbrFsryTw4dvSdHtsmdQ8tJuBGsFUbeJz+51PzBtxZKHSO+w+sfFb6WQ+/JGfUjzf2Ll0bT75NvPTnPqX/cLyPKhEtoZAe54nsjQO1as377rTKgVIQkjXxI/nbu2aEP5OxGURIaXlVOfSkn6QYH5MmJKRJhzj38/r/TP7fn7qFSwlR0ml/wmRx0Vu66XfobwRlWxjvVYZfc3j/WCN8yMskr1eHAk5OkTESoxA+/T/Y4NZ8998jQ+HCJbH6BfHbQc5wj38tN/cpK2UG3yZb/jhYe+9bOkCrm+QirME2e23fE7nuM8DVlx4arRkjPKbfKp3vc16X4QoVvPpO69SorbsLrnp4WlfTi8Fc3y9j2HWT8La4m9f2PyOhEU6uuPEte8dVif2STXNEhwncaQlbkRPgawT7LCHaEasKoh+2qfWunG/EWJpVPfeXYIdX2PSfTOLYdzieDKrb889WDsqRPjbT0CQSwqZVX7L1c3tyRe/Wbuu066VlxkNz5m+sYB9MqBcVCIqTeGe/5HvotF8I3u7/TXgRuRDmZ/LTXPTCFwXMXz5YFN24QZxCLDMJ3/3Z5ZlEfGXD+q6bw8+ygKEpgkLpVru5qhG1EXVn8zoHMhW9Yikx6MqMwRqT1LxkmISGJMuSenccIsiObrpROUaYCXXOevHHAV5O+b9KFb0QTmXz1DXLDjTfKjdgN18iV558iXSpGZxS+/5iKuk/h+7rMre4lfGW/bNvy69GWrNQf5Z5hjPhjxOyIjGJ2/7Yt8uvRHeXHe4ZJ+XCiwiPkPq9OdUe+vUTaRIdKhLfwPfy1LG8dbQRuQzlrw8Gj9+jID3JFR7M+vIrMemV/+vp/7h8mCWHhUmnGi7I/fefD8uE5TSQ6NFLarPg6QyQ1aw7L17eMl44dx8vNXxwV8PsfHSulzDkqz3SdIxfC9/DXt8qEjh1l/E1fHBXQ+x+VcaXDJbzyTHnRc5y9CNzo8jLpiT0ZWwaO/ChrV5wmC298T3Z5Pp9B+P69TZ45vb8MOv9l+SUnTQZBjArffObwh0ulYUQxiWh6vnyWpdKEg/LL+vvkkgX9pLZxhMcKMw+pv8n1PSKNuEuU0Y9ma+yuNHIU8X1cxtmhz8Klxrx1ZsUheWtBLQk3n22x7Esfn/1HHhiWICFm/9qL3vGs82affPfUedK7SpRt/iOanND2AnkvV9HNw/Lp+S2k2rRnzZndHJGvL2krUYxKUXacPLbLs9pNLoRvRjL7nQ7KyzMrSlhEB7kis2izi3ThW6GvTB9aS5JPvkG2qehVlMDj8IdyTmPjtyKaynlENz2r08myc9sOuWNgCQkNCZea89cZUZTx06m/3SC9oo0fSRwlD+/NfrTueDm+Ox8eL53POJrqkDPh6yZVfr5vpKnQGzFbfoTcu93XPmmk/nyfjKxgjhVWXkbcu/2Y1A2Eb1tfwveIEb5tfAjf1J/l2pOKG+FbQaavPSp899w9WEqEhUpMn5vlN5fK/Mesjw2LlPaXfWeEr2dlTjn4i2y4/1JZ2L+Oub9hUmbyU7LPOUcuhG9GTNmx4X65bGF/qWt+i7Ayk+SpvURxD8ors6tKZFR7uWxjWmpFVqQL3wp9ZOqQ2pJy8nWy6b/sPzvBjgrffObQ2wuldrgRvs3Ol88zU5qpu+WLhy+UqcPGyuLrX5XNO9MiiZkKX+NIbz7ZCLSQBBn1SP4I3yNfXSQtyfENTZIRD6Ae98tDI8mfDZcGZ73vI/f0kKw/s54RxqFSavwTnnW+Sf3jdTm/S2kJtZHf4tL2kq+ORhayy76XZWbVKImOjZXYYyxaIigQQuKk+zVbjj12boXvcX+nP+TGXqZCklPhW66ddKlHtKiCDLnTx/UqilKwHHpHFtWNNMK3mZz3aU6F7yF574x6Ekm0dNpzxwhf2XGL9Clu/EjCSHkoD4Vv6s5X5I5HvzsqPnMpfFN/eVDGVEoTs8PvOVbMppP6izw4ppJEmO9Zfvg9st3HjnklfI9sWiMnJYRJaIkecm36OMhHZNPKzhId3VTOed91jGySuvtLeeSi6TJ83GK57pUf5M9HiPjmkfA1ZceXj1wk04ePk8XXvSw//PmIjC0d7hK+f8jNfWIkLDKHwrdcW+lcL+3+DL7thxxEuYMbFb75zOEvLpQWRkCG118iG3xlJez9SK4dUkOSmi+UV5ykV08TeqbCN3W7rOlmBFZYFZn1qs/GfN9kW/gekW+cqGmZMfKw7SV2QJ6dUsaI1RBJHPXI0TzXdA7LZ+c3k4hiYVJ97htm2Tj7m66RdZlMTpG642mZWjUtlSKy6+oM+bDHJ1X+uHeoVOh4ue9hy1J/k7sGJ9lrjWh4trzvfd9zI3yz8ztR+J3E72Kc9PO+friMuFMdXtywQjommEIpvp1c9P6xd1dRlALk8BeyrFWUEbb15cz3fMy2lqXwNb7xghbGnxq/e97Hx4ia1O3XyEnRIRJe5VR5+d9cpDpkInyPITfC13yvh8dlLWbTSJVfHx4nlWxUeLjck0lUOK+EL/d084MzpElShJRsv1juf+9b+ebN62RUkwYy8tqP5B/vysVx2Pvx9TKsVilpvuAl+dXzHdNSHfJA+O79WK4fXltKNV8gLzqjLHhSHdKFr7nPN/SKsd9z6rN7fXaCdONOdVj77grpXNIcK76tXPje0RxlJXNU+OY3ex6QYQlGHJWd6kPEHpL1ZzUwTqWEDLnHNdTZ8YSvccIXNMdRZS+ymE42hW/qLw/JaPYz19XxcienNVW2X3uSFKdHbq0F8tYxIv6gvH5aNQkLTZRh9xMhPiTvLm4mXS7PbArhA/L0pBQb9Y3oeKVszkmY88g3clmHZDn5xu3mqnyzd+10qcT0zEaETnrKaxg5l/B9JsP9dQnfDBuy+zsdkOenVZAwI/4rTHrSHO1Y9n74jLy4Ne3LZsjxPXhYfri5v5QxBVlk7VPkaU30VZQAYo88OMJUpsPKypSns+jc5lP4HpQ3TqsuEeHVZM6r3ttw5xdKy6hQiWx/uXx/zHARmZOXwve0ar6Eb6r89thEqYyYLTdM7s4gZo/IHz//ajxjGqm/PSYTKxMVLifD7s4YFT7yx8/yq2fHvBO+hiM/y9MLh8iY0y+U8846Wy5cfY+8sXnf8e+DN4c2yNLG0RJWYrDctTOt8xgcT/g+mZnwfdItfA/JhqWNJTqshAy+88+jgtZb+Jqy44UZVSQy1JQdEx6THT6U796PnpWXtprfwGzKkOO775D8cOsgKR9hnqFa0+SJX/7L+T0IMlT45jepW2V1t+LGqXSTa372EjNHNsolbSOswBx8t0sm0fRFzlfKZHnal/A98JxMK2ce+rpnyPpjBGgWmM9NNZ/LSvge+e0VWdqhpISGREiVkffIZtdOqb/dK8OSzefDq8uc17xSLMx3ubRtpHkRZ8nLNmc3VX6/oacUT+kr13/j6yJ3yb1DEiQkJFzqnv5eugPNDntfmSU1kofKvVmNaGGc2ZL64TaiHN/zOvFozTT23iODY0IkJH6kPJTha+yVewbHmGuKl5HuDTn4nfY8M8WO3hASUUPG37/JFHlHOfDt3TJ98qr0US8yCF9ugCk8H5tY1QjsUEnpe6NszKxmoiiKn0mVrWtOktjQKOm2xkdzf1bC1xMtju98hXzpQ9geoNNweITxg+8ezcfNBjtu7i3F7ZTFJ8tNO7IhfPc9IMPjwyQ0uqdc/8tREZv6++0yICHMlFGdZKVr+uTU35+QyVUjjJhDzG7L+J2Nfz3/9DvkTxRe6u/yxGTjt4xoKzfsbtmWcUfZcMHpcsefadd35JsVaZ3b6p0h77qFb2ad21K3yzW+hO+RH+WxmT3llEd/zzz1Ipsc+e4y6WCuKbTEILnzz6PCd8et/SXWCN+USU8cFb57TRnIPYwfIff/c3Rfyo57h8VLeGi8jLj/76MC98h3clkH871CS8igO3bIEUcC7LhN+seFSVjKRHnCCl9Tdjw73Y7eEBJRXcbe853sdz0LBzbeKzOnrpIvPSNAZBC+VGLM8/f4lBpGYJvr7XOdfO2MFKH4RIVvvpMq22/sLfFhZWXy015iMfUPuWMgebMhEtN4htz99ofy9hNrZOHYblI73rwA0e3lwtfflEdf+NrzgTSOfLNcWkdESMOzNuRIMKb+dpP0NoKvWLEwqTbrlfTxZCV1v/z+1aty17IJ0rqscXRxNaT32U/J5mMOfkS23jtKqjA0S4eL5cP0Fvkjsu2hcVItoYksfHFnehT24IszpGJYiBSvP0nu+Gx3+nruyY7Xz5QWsSESUXWCPPJLDqKbhz6XFe1ibXQk62D3QXl1dhUJK2ZEaHhNOfVFV6T20DqZV8OI4rDKMv6hbbL7x1fkhtvelD3mbq6bx+xvYVJ5/EOybfeP8soNt8mbu3LwOx3ZJDf3T7FjVYaEJUrtbiNk5hlL5fRpfaVBrV5y1WdHazK2h3OEEb6VTz06esfu12VRI1OAhhSXBjOflO0qfhUlIEjdfpP0TQyXspOelL3eAtWIvxt7mffWvPMD7/jFJcYOyjc3DZTKVYfILV/7yA0mrWxFW4kygm8JKRTZViuH5IOzG0kko+RENJKlH/g6thdHvpXLO8YYERYh1YdeJc9tWC+v3b9Cpg4dKl1JdQhNlp4XPSMfb9trhNQf8tS06jYCWW7oXV5iNlV+f/oU6XDKM7I/9Yj88dQ0qc5wW+WGyl1eqRKpvz8tp3Q4RZ7xRJgPvbNY6kUy4sN0WeuOmDrDmYXXkcVv/3tU4B7+TC5oboRjWCkZ99g/6esPvn6aOWe0VGw3UmbMP1POOf8iueSKq+WaG++Qh1/8QLbtdV9F1qT+cacMTmLUjRhpdMqd8uYHb8sT1yyScd3rSEJYqES3O19eeeMReeHr/+R/B9+UBbWjzPVUlnEPbJa/tr0qN97+puz+30F5c0FtiQoNl8rj7pfNf22TV2+8Xd7863e5c0iSKQ9M2dFoutz55vvy1hPXyKJx3aUOOcrR7eT8V96QR0zZ8b/Dm+TWQeVMBSKt7KjVdbjMOP1sU3b0k4a1e8mVHx+NJB/ZeJm0L26Eb+UZ8qJniDPZ/Yac3jRWwkKLS/1THpOtB7OfNhNsqPD1B3tfk7m1I6XqrFfFO4B74JNV0qeieeERaJGlpNGwi+XFH7fL3UPo/GUcRHJnOffV3z17wxHZsqqrxCT2lhuzOwTA4W/lsYvmyejWZYUZy+xkEqHRUrJCZalUoYKUS0mRclUbSseBU+SMqx6TT3dkpbYOyZZnzpfBDUpJct1eMnnxUlk4sae06TxRVr31h0vcmivddIV0qthORk8YJO3q1pVWvUfKtFkzZHzfplImMlaqnrRYHv7OV0jbN4e/uEfm9qhqc49DoqpJz1nL5NGMgwZbUv94S24+Z4Z0r5J2X4n6hpdpJ1NWvippI58dls+v6ibJRpQXCwmXxJYLZa1nSLTDn18l3ZIZdN58JrGlLFz7m/1OOfqd9nwoN05qIcmeiTsYuq1ch9lyxyce8Z+6Q9bfeaHM7EbuHOkYZaXz7Evl1te2yqGtr8nK4YhvPhchZVsMkwU3vSd/uW+soigFwF55fV5dia52qry831tUpMrO966RqV1qScm48tJiwCSZNXuqDOvZXrqMuECe3XzQtwg5skVWd4+TpN43yJZshi73fXS3nHvqAKmfSNoa/i1UEur1k5ln3yBv/OaOQh7LP+9fLYNqFLcpZvil8h3ny6PffSmXtE+UCi0GyqkX3SYvb/xH9r12mtQ0YpbOx1Va9ZBevXqlWY9u0r5xRYkPi5BGSz+QQ/tM2VYz0vrA4lVaSQ9nv149pFv7xlIxPlwiGi2VD/7dIq/eskJmdiwj4fi80FLSasoyuXXdT3J4+2ty3bzuUsFOPhEuFbrMlsue+Er2/fqW3LSA9WnjySc2nygXP/mtEX//M4L6JTnvpEpS3IjEtHvgNnMtVfvLVR/sPSqgs+SAfLqmn1SJ5jwhElmqoQxd9rxs/fFuGVYm3AjiMEnutFReslHyw/LFqh5SNoJ7Y8qOFvPl2Z/TxP7hL1ZJDwJHtuxoIfOf+dlWgA58ukb6VzHi3VwbZUfDocvk+a3b5O5hZYz/p+zoJEtf+iXtWvd8JDdPaW3KR67FfBfKjvanym0f/ZVWmTJlx4a7L5JZJ1WxM8hRdnQ6dYXc/OpmObDldbl6ZG1TGeI+mrKj+VCZd8M78mc2n6tgQoWvX0iVHc9Mk5oVx/seXmv/r/LVh5/K1j2uEOaBX+SL9z+Xn02tOAMHP5ClTZOl28qvchTtzXsOyo4fPpJ3314vn23d7Ttf+MiP8ulnzrTKB+WPr9+Vl596TJ54cb18+5upvdr1BcUh+WvTh7L+k62y2ytyfOivTfLh+k9kq/eGnPxOhoM7vpMP390gX/2y11RXFEUp7KTueFam164k4x/dmWl09vCubcZPvCtvv/eZbPkray998INzpHmZ7nLlFz46zOUXB/+STZ+8L59v/8fjlw7Kzt93FSoflbprg6yaPl2uefsb+XzDOnnh6cfkwfvukTtvv0VuuGqZzB/UQCoNuzstFSOb7P/1a/noU1MeuAqzA798KR98/rPszXBzTNmx+SPZYMqOXV4F36G/NstHG0zZ4b3BlB1ff2TKDnPw9CsyZceXH5iyI+PBLQd3fC8fvWfKjp//8V22KieECl+/sUfePreTdFjytuR+Uq5D8uWV3aXuoFvkO30bFEVR/M6ed86TLh2XyFt/n2BT8qEvZWWP+jL45m/lkN9UbxHg4GdyZbcK0unybzIfvuvAk3LKmBt1QgfFJyp8/UnqL/L03L4y4bZvTB07pxyRbY/OlJOGrJQNmQwRpiiKouQ3qfLLM/Ok38Tb5OsDuRRWR7bJY6f2kKEr18vu7Cf2KoYDz0yRcuHR0v6Sr47OhJaBA/LdXbNk9u2bJQeDZChBhApff3PkV3ll+TQ55cZPPSuywxHZ9NCZMnPZs7KtYPMbFEVRFOOTf311hUyfcaN8klPxe2STPLzkVFn2zFY5qMIsxxz+4lLpQMewyPLSZtwSWXnLvfLY08/KM4/fL7dccbZM7d9DRix/TX7XaK+SCSp8C4jDh3KWq3D4sOY2KIqiBBSHD+UiB/Ow8eeef5VccER+f/taOfXkBlIuLkJCQkIkPLaM1GjSSQbNvFQe/fyv404AoQQ3KnwVRVEURSmEHJF9u3bLfh31RskBKnwVRVEURVGUoECFr6IoiqIoihIUqPBVFEVRFEVRggIVvoqiKIqiKEpQoMJXURRFURRFCQpU+CqKoiiKoihBgQpfRVEURVEUJShQ4asoiqIoiqIEBSp8FUVRFEVRlKBAha+iKIqiKIoSFKjwVRRFURRFUYICFb6KoiiKoihKUKDCV1EURVEURQkKVPgqiqIoiqIoQYEKX0VRFEVRFCUoUOGrKIqiKIqiBAUqfBVFURRFUZSgQIWvoiiKoiiKEhSo8FUURVEURVGCAhW+iqIoiqIoSlCgwldRFEVRFEUJClT4KoqiKIqiKEGBCl9FURRFURQlKFDhqyiGu+66S4oVK6YWQBYSEiL/+9//PL+QoihKYDBq1Cjrn3z5LbW8t//++89z5/MGFb6KYkD4Dh8+XH755Re1ALCffvpJQkNDVfgqihJwIHxvuOEG66d+/vlntXyy7du3S0REhApfRckPEL4TJ070LCkFTWpqqgpfRVECEoTvQw89pP4pn6EcUOGrKPmECt/AQoWvoiiBigpf/6DCV1HyERW+gYUKX0VRAhUVvv5Bha+i5CMqfAMLFb6KogQqKnz9gwpfRclHVPgGFip8FUUJVFT4+gcVvoqSj6jwDSxU+CqKEqio8PUPKnwVJR8pTMJ3586d8uWXX8rWrVutYzhRcN4My8Mxf//994Bw5ip8FUUJVAJR+HItf/75p2zatMn+LQq+U4WvouQjBS18ecGTk5MlKSnpGLv++uvtPgcOHJDZs2dLXFycREVFWevUqZNs27bNbn/zzTft/rt377bLDtOnT5fJkyd7ljLCOIm9e/eW6Ohoe7yYmBi77759+zx7FAwqfBVFCVT8KXw///xzqVKlilSsWPEYe/vtt+01/PXXXzJp0iRJTEy0fjwhIcH6cacsuPfee6V58+Zy+PBhu+wwePBgufjii48JoDz11FMZzlmzZk0ZOXKkfP311371ySp8FSUfCQThGxYWJvPnz5c77rgjg3311VfW2cybN09iY2PllltukR9++EFeeeUVqVOnjnTo0ME6tFdffdXOcrNr1y7PUdMYPXq0jBgxwrN0lIMHD0qbNm2kevXqsnbtWnvMe+65R+Lj4+X0008vUNGpwldRlEDFn8L3gw8+sGUDAnXNmjUZjMAFvn/gwIFStmxZW459+umnttwoVaqUnHLKKXLkyBG58cYb7XZv4du+fXvr672F7wMPPGCDIRzn7rvvlpUrV0qjRo3sMbZs2eI3v6zCV1HykUARvghQX5CKEBkZKTfddJNnTRrvvPOOdQykKeRU+D722GP2mB9//LFnTRqXX365reXv37/fs8b/qPBVFCVQKQjh+9tvv3nWZOSNN96wfvzFF1/McD2I3dKlS8uOHTtyJXwJgBw6dMizRmz6REpKig3AIKb9gQpfRclHAkX40sREJNZtODOcbHh4+DGils/h2HAMORW+pE3Q/OXt9DgnTs57vT/h3Cp8FUUJRApC+DKVO37RbZz/vPPOs6kI//77r+cTaZAat3nzZls25IXwhVmzZknjxo1tGeEPuC4VvoqSTwSK8C1TpoxNPXDb33//LVdffbWNwmblAHIqfIcOHepzfSDA/VDhqyhKIFIQwrdu3bpWdDrWr18/K0CnTp0qvXr1yjIKm1fCl5QHyiF/9QFR4aso+UigCN8zzzxTHnzwwQzGS08HN5qtfNW0qdnj9F577TUrfOno4AYnTccEbxDE/fv39ywdhWvhmAUpOlX4KooSqBSE8L300kttOeDY/fffb4XszJkzpVu3bscIX66NsoO/pMgRVPEWkO3atZMzzjgj28J31apVPqPL+YUKX0XJRwI9x5f1iFqGMHPzxx9/SKVKlWyu74cffmj3+fHHHz1b0yAywMgO3px99tnWiXmLaXLFatSocYyA9icqfBVFCVQCKcd3+fLldgSGvXv3etakwWgQdEhj1J/77rvPjhrk3gcf26xZM1m2bFm2hS/R5e7du+e5EM0MFb6Kko8EuvBlWBqGqlmwYEEGZ3vJJZdYB8V28nIZjuzWW2/1bBXZs2ePbeKiicqbdevWWXH56KOPetaIjRrQQ7hz587HOEN/wrlV+CqKEogEkvBdv3697dxGBNjx2VzXnDlz7Kg/RGc5Bvu89dZb6df8888/27LD/TkHX8KXUX8og0i781fZwHlU+CpKPhEowrdPnz62A4HbnnjiCbsPzUyIQa4TcUvvWpzZ6tWrrTPDxo0bZ50TzWI0b9GUVbJkyWMixYDIJQWCcYGXLFlih0ljXEfEM+NDFiTcDxW+iqIEIgUhfBctWiQXXHBBBvviiy9sugN9NRjDfcWKFbaDNAEShiNjeEp8KalrLVq0kHr16lmh+/DDD9v83vLly9tJi7xB+DIeMMejLCEdokKFCtKwYcNj+pDkJyp8FSUfCQThO2zYMCs8vY1xFAGheuedd0rLli1tvhZ/EcDu3C4ivDg9UhjKlStnOz289957nq3HQtMXvYLpOMH+PXr0sLnCBS04VfgqihKo+FP4fvPNN9KxY0cbxPA2ZwgzOkDj9xGnjPVev359uf322zOUDd9//71NeyMQQjSX8d8pG3x9h5dfftlud85DegPBkcyizvmFCl9FyUcKWvgqGVHhqyhKoOJP4ZtduBYiu4y44D16gwN+lfHZMbcoDlRU+CpKPqLCN7BQ4asoSqASiMK3KFJohS8XrBZYpi/rsajwDSxU+CqKEqio8PUPhVb4MrySWmCZkzOqHEWFb2ChwrfoQO44OelquTcmGTjeu/Dss8/qvc4DY7Sb491rFb7+oVALX8YaZVpVtYI3en+q8D0WFb6BhQrfogO/Iz3TP/74Y7VcGONtM0nB8d4FhiU86aST5KOPPvJ5HLXjW6tWreSVV15R4RsgFGrhqw9H4DBhwgQVvj5Q4RtYqPAtOvA7ZtbZRjk+TDebXeE7fPhw++4ouYOKgwrfwEGFr5InqPD1TUEIXwYWP+uss/K9oCLa5p6kIie8++678thjj3mW/IcK36KDCt8TQ4Wv/wgU4cuwYYylm9+/5aeffmoj3bn5HgyFxmyh+emjVfgqeYIKX9/4W/jyTjADDlNA5jech/EbcwOz+zD7T0GM36jCt2igwvfEUOHrPwJF+DJx0ZVXXpnvv+Xs2bNl2rRpuRra7JNPPrFjyXtPlZyXqPBV8gQVvr7xt/DFWTCVMLVtN7zgbifElJG+nB/rGbTc+91i+eDBgxnWM7Zjdp2T9/lhypQpsnTpUs+Sf1DhW3RQ4XtiqPD1H4EgfDdv3iylS5e2fXLc4Jed8/GXd8rX+VnvnmrYgX29fTuztvmauc0X7vMD/zNB0s0335xvz5wKXyVPUOHrG38LX5wms6XxbvByMzsO4pJpJ5977jn56aef7CxqvPQpKSly3XXXpb9Ht912m519Jzw8XBo3bizfffedXf/666/b6CyfYWrJN998065ndjfEKykLDRo0kN27d9v1DGLONJaPP/64FdHjx4+X4sWLS0JCgp2lx3GeL7zwglSuXNkKaH+hwrfooML3xFDh6z8CQfiec8459vi8M4hSprFnFjZ8Ny1vTD/PLJ+1a9e2wpPIK9eBMbMnvr969eoyY8YMG/BgPVPQd+3a1X6Gcu6XX36x5+LZuuaaa+zx8f/Oe0rZwHlJZyAlb/Hixba8ovMfKRiOgOZzbdu2tcGW/ECFr5InqPD1jb+FLwXZpEmT7P+83BUrVrSid+XKlTa9AAfMNJXk565Zs8a+/Dgv5maPjIy0zWBffvmldOrUSUaOHGkdJAJ53rx5tlc3QpehjRC5l112mZ1yEjEdExNjhTUwbA/TW3K+uXPnSq1atax4xqEjfhHMgLONi4uTzz//3C77AxW+RQcVvieGCl//UdDCl+O1adNGVq1aZX/HH3/80fp7fPnChQvtCFkEOwiK3H///TJkyBApX768Xc9149+XLVsm99xzj/3M5ZdfbqcqJoI8ffp0uffee22wo1u3blZMOqkOBEk4z9dff22v4emnn7bTGlN+zJkzR6pWrWpFNcGZqKio9HvE/uxH2ZIfqPDNZ7jGbdu22drTr7/+WiiuOTeo8PWNv4UvQvSCCy6w/zvCFzEL1Oh5b+g4QNQVo7bOsEYXXnihrfk7QoJ9LrroIrnlllvsPO179uyx+//5559WrL722mvpwhdwmBSiwNzu1OqZ4hLRzHPhnA+HOGjQIPseUJvn2BSs/kKFb9GhoIUvzxBRKwpxIlmF7ZkqTMIXgcJ9/ueff/LsOmhp4pj4qfz+7Qpa+HLPEhMTbXCCYzvC94knnrDLtL6xffv27XZf7gu+m9Y8Irb4c+ddo2WQ8uL888+3Ypdnn8+QXkfL3qZNm2wuMcKX94MoMf1BiOYikhn6lOMTHOH4rMcGDhxoP8f//M5cD+VMfvw2XK8K31ywfv16+8P5Mno0AkKDGhAPGLUZDIHo5EUuWrTomM5BvIw0/z788MOeNUfhoXGfh9oWL8quXbs8exQcKnx940/hy8vcvHnzdKHLMsKXAeiBqCvvDQ6FlAaMmjzOxnFI3px77rkSFhZmo8bOZ3iOH3nkkQzClyhutWrVrMMiwsuzQG2dfRHKzmf5n3eCdxfDKSKu/QX3RIVv0SC/hC+RLDrXUKh724YNG+w+FOhM/sD7FR0dbaNjNNs6aTu894hF7+sbPXq0fVe8nz+adt3npJmX1hIqmvlFIAhfBJX7/jqGUHJ8BFFGKuX4KvzQgAEDbNkKtBrRTE6Llft73HHHHdafOU3nblh36aWXWt+DUEPg0ZKVn+VoQQtfnktS2IjAcmxH+NIqB9xvnmPSGYj8YiyTrkC6HCLX+/fnWaYsadSokd2/fv36EhISYtMYHOHLvSai3LNnT/vO8J7wPNHKx/VQVjjnQ88QFOEzGMvci/x47jimCt9c8M4779gH5/rrr7dhfrf99ddf9kfmBSY3kgeeF5UcFpp6cZBAqN8RDg48oKVKlZL77rvPs+Yo1LyIrL366qvy8ssvyw033CAlSpSQM844w7NHwaHC1zf+FL68DxSYNEkBLzcFs5OCQGWN94aUBRwf9v7779saOpWwk08+Of2d+uGHH2yTF1FfnmFaLZzPkMrAM+4WvuR2IWqJBuAMnc4NVNAefPDB9M9SKXRSG3A6VapUsc7NX3BPVPgWDfJL+H722We2UKZ1giZYt/Fe8Azhi/HlNPkSleIvzz+tHWzn3ahXr94xBSsFPO+n9/N38cUX23cBoYHRCkNFEXGRX89qIAhfms379u1rv6/7Pq9du9ZeF6KXcpaK+UsvvWSXyQlt2rSpjTTiU6iY49vc32PFihVWiPl6Psh1RdRxHspmylE6BJPfmtdCyKGghS+tbTzT6AaOzX3jvjqj6pD2RlnBPca/YwRM0C1cO7+P8/tTFuDDx44da1sMCaiw/xtvvCHPPPOMjea6hS9DV1IO0OeDZ5rgyDfffGOvhzQHPsfniTpTNnF9XC/7cry8vhfAd1HhmwsQvvyY3j0kHXh4iXZRE3WDQ6TWww3PjfD1FlE8fNSaCxoVvr7xd6oDzganA7zcbuFLkx55U1dccYV9d6jtE+2gMMEpUXBv3LjRFhZjxoyxkRWcGg4CgQw4QwoNHKJb+ALCOTk52eaHcXycHgUUQ6vxPx3dqAwyxjDgIHFub731ll32B9wTFb5Fg/wUvs4z7gsKZ8SWt0Ahj55ABAV7boQvOZhucUlzMq1/7nV5SaAIXyrLvq4BYUtUlmis+3dGdFG2Pv/88zkWvrRC4eeI+Lq/D9+RYxLtzw8CIdWhRo0a6cf2Fr4IT6LfBCbYvmXLFpt/y30lKEJUnd8DP065QBnDPaSVjyAIn6FsqFmzpl12C1/eAc5NdBedwDoCg0TvEdwsI3S5R85Qa7R08C7RFyWv7wVwDhW+uQDhS9MLOTGIVcecXoj0fGzduvUx18iNpsBnfW6EL4IEAUO6BMOT8EDRHF3QqPD1jb+FL02mpDsAL7db+ALNrDg4BCnPGc8fzywFBD15cTY4L5qZcDo4Ja6fwqJZs2a2ssfzxvPrLXw5N+8laRAOtE4QASZKQz4vYoBcdyAnDOHL++AvuCcqfIsGBSV8aQVxghdu8MkIBdafqPDlexHU6NKlS/q6vCbQhS8VDH5jKt3u7VwHfWYIOuVU+NIiS7ntHbBCeOHvqLTkBwUtfDneuHHj5Mwzz7T3z1v4cp8QtPhodEalSpVsIAM9ggguU6aMTcUhTQ1/ju/mHtIaSHoELRMEVZzIsPc4vqQF8Vsijp3vdtVVV9nfgk7UHJt3imgy24kSE5TJr7KBa1ThmwsQvuSz8KBQK3eMZhsYPHiw/UGzIjfCF4fMA4LDoIaKUPn22289exQcKnx942/hi6hEpDoOhCHJvJ05BTuFDc1a7uFiePZY99RTT6UPSwM4RZw2wpZOb04BSK3cLQ6oxX/11VfHDEFDBY0mLTpSuB0ZnfBw9P6Ea1fhWzTIT+GLmGrfvr0VLI4hRHluCGocT5DmRvjy3nbo0MGel0gnBbPTGSk/CBThS6XYfZ8xxBb+AjHliDNf5FT4XnLJJTbyiK/zJ3ynghS+QOoaQRGeSYJn9CNy3wciujfddJNN1yFA4i43SPHh3pHSg95wngXKG9YTFWbEBud5p9LijtYSIPQ+H8dACJMDzDEoS5zjUjYgpvPj/QbOo8I3Fzg5vogBeiY6Rr4XIHqpQXnDDUcgcO2nnXaarUG5YRtRMPKBvUH4EpWjaZgkdZqnyemkxuU8MAWFCl/f+Fv48lzNnz8/IFoBsgLHy9iPTkdQf8F7osK3aJCfwpf8Q4bwo1OPY06Hq1NPPdUO95eVz82N8CXH99prr7VjayMEmjRpYo/BiCr5QaAI3/79+8t5552X4V4zjBYVcAI7TguRL3IqfGmep0UrGIUv3xnR732vAg2uk7KBTnL5dZ08yyp8c8HxcnwZqJ+HjCYUN9RwcHDkO/KyUwNzfw9qWURySe73xleOL00C3Aund2ZBocLXN/4WvsAzSS/a/Kot5wV0skCg+/sdVuFbdMhP4Xu8VAeagr0LTfLjidbSWkKHKXIk3QKLZw7R5QhoN75yfBF1lAW0wuTH8xroqQ60LvEb89e9nfs+dOhQG2jauXOnFb7ew15R8ed+Ok3tDqQ6+Cq3ab0iCJVfOaWBIHyBYJl3znSgwe/KWPT5eY0qfHPJ8YQvyeK8tDgNB37I3r17p6c3ENUl35JmaQd6NvIi+0qy9yV8aULmPP7Mk/SFCl/fFITwVTJHhW/RoaCELxO+cG6adt3PEaMEkFOP2MWPU7C6/TjNvZQZTz755DHPny/hS/MyrYpOT/y8JtCFL0EgUgnJF3ULWFo7ubdELmkhJfWPCLlzDP7S4ZtWV2/hywg2/LarV6/O8H2YHvd40eUTIVCEL9+ZYdvy6/h5Aa2B/K75CfdBhW8uQPgiUEkYZ6gVtzHzFS8cHdFwdOS/MOwZLyPLzliQiFWiv4yDR/MWzo9e8e5hpdwgfGkCIEUCwxkREeCcBf0gq/D1jQrfwAKHp8K3aJCfwpdUByK7RG7dRs48vp0ABp1vEG34c1Ib8MX4eZ4tRBtR4c6dO9vhmujkScCDYbOIUnqD76eHPKlzjEFLxx/SIlhX1FMdKEO5b+777IhE7gMChZFgKHMRhUTSSY/gt2cfRhAgPZDRaegIx3BlPBtct6/vdsopp9jcYY5Nczp5rYwwwLCg3kI5rwgU4aukocI3l9CsxQDZvgzHCdRcGJIGYYvApeMb0QI3TM3H+IFsR9TyEmc2aDn5X+7zIKgY/N+7M1FBoMLXNyp8AwsVvkWH/BK+dN5htBw6mHkbeac8OwzZROcbBBOCl6gj4td9PaShMXoKPddp2aMccCYQ8IbAh/uc9JYnYkn5kF8EgvBlcgT3/XWMNCjOx/0kL5fIL/eZ+01AyV1GEkBinfNbULmgIpHZ9dKJi8lBGLmG/Qk2EZxifX6hwjewUOGr5AkqfH2jwjewUOFbdMgv4ZtdeIaI3pLCQJDDFxSs9L/A8rqQPVECQfhmF4aKI+eZ++3relmHGGYf71FsfMH+CGb2p7/N8e7BiaLCN7BQ4avkCSp8faPCN7BQ4Vt0KGjhW9gpTMK3sKPCN7BQ4avkCSp8fYPwZfxPIkJqBW9Eg1T4Fg1U+J4YKnz9hwrfwEKFr5InqPD1DcKXZ1UtcIyJZ9R3FH5U+J4YKnz9R06Er9PhXS1/jXJAha9yQqjw9Q0vFr2yC7vRKbNUwzCZuzu5UNtpf5WWkFAVvkUBFb4nhgpf/5Fd4UvHeIbCy2t75plnbOd55hHwtT27xtTDVXpEydDnEmXY84XXhq5NkNDwYip8lRNDhW/RhhnWkpuEy+n/KyOnS+G1xakpKnyLCCp8TwwVvv4ju8I3v2Dqa4ZfdUYlyS0MGddwUqwsPuLbvxYWoxwIjVDhe0JQS2MA7PyGWVeYGIPZZXgAAwkVvoELA+Ez2PuJoMJXCTT8IXwZ7P/555/P9+dly5Yt8tVXX9kJkbxnIcsvAk344mO++eYbz1L+wVi/3GfK0c2bN3vW5i8FLXyZlY6mfcaVPpGxilX4Zk3QCF8eoh49etjZePIbxipkXGBn4gumxgwUVPgGLgsWLJDBgwd7lnKHCl8l0Mhv4cszwviuK1asyPfnZdmyZXZcYNKKGjRoYCur+U0gCV+GK2PCji+++MKzJv8gv5NpcanQMFnUoUOHPFvyj4IUvownTUcup38Dy7m9DhW+WRM0wpfaea1atTLMyc6LxIvsDdfLfr6um3VM0+fLuTjrHOHLvszcxiDcgYIK38CEyhGzBdLMxaQruSUnwhensvh/KenLM7aXluEvJ8ppu5Mz7Dfxs5Iy6s2k9H35u/DQ0c9l1xb+Zz5nzNc2b1PhW3TIb+HLVPJMhsAYvA48N5kJQLZl9lxlts1Z7whf/j///PNlypQp+R5hDSThy2xt/fr1y/B7OvfGm8zWg7Mts8+BI3wRPUwwQt5rZsfLKwpS+NJhDsGLZsKY/Cq3Ud+cCF93GYAtOpzm373XO/7bXQ5475Mdy8nnVPieIEwjvHjxYvs/Ly1ilNoVTpmH3Zmekhl7mI2HB5AZeqhtwpo1a2w0rlOnTnYbUzg6zdI0wzB/O8eiNsz/CF+gs1FiYmKe/3C5RYVvYEJnBMfhEfnNLdkRvnN2JkuNAZHWocSUDZVet5Wwjmj6llISlRQiDaZEpzumUzzrWp4RY9f1vrOExKQY5xxSTJLqhMnQtYl2v0bToiWhetgxNvrNRJm7J1lqj4iSkPBiEhZVTKr3j5TZv5fOcE3epsK36JDfwveCCy6QoUOH2mcFQyDRuteyZUs588wzbaACSIfg3WIWMoITTFkP+GhE7NVXXy0dOnSQgQMH2nQGIDhyxRVX2GmMJ02aJNOmTUsXvlRQ8e2//vqr3Te/CBThiwhr2LChPPjgg/ZaCA5RzrVt21a6dOlih/dyzv3hhx/a34T7uXTpUjv5BDD9MOUP95HfgXLYmYmNigvru3btKsuXL7flMMKXczErHII7v6Yqdigo4cuzRODDKQMw9AmzE+bmWrIjfOftTZa258RIpW4R0nBytEz7oZQtNwY8Gi8hYcWk333xxg+n7Xvqb6Wt328yM9oK49FvJUnNIZFSoVOENJtbXGZuN/7cfLbTJbHS0JQFDadmtGnfl5KFB1Ok66o4qdglQir3iJCuV8fJArPO+7rcpsL3BMB5MZf6ww8/bJcRt8wBTu7Q559/bl+wyy+/3E5viaBlOmLWz5s3z06v+Mcff9gXEcHLi87nWrRoYaeq5EUfNGiQXWaOcqbDdPYDXurIyEibrxQIqPANPCgUEhIS0h0ehalTUOSU7AjfJrOKS2KtMBn5WpJ0viJOwmOKyZSvjdMz23BGOJpR6xKt06kzKkoSa4TKabuSZcZPpSWiRDFpsbC4jHk3yW6LqxAq8/cly+CnEqSbcWqO1R0TJZGJITLdOLy258VIbLlQGWZE8tDnEySuUqhxoMWzvEYVvkWH/BS++N+OHTtaQcWzwgxf+HYis0Qn8ecIVwRT7969bXrCqlWrpE+fPjZKjG9HJISHh1sBx76UBzSt8xmmn4+Li5MlS5ZY4YsYITLHuZiCnnKFPh35+ZwGivDdtGmTFWfkOcP1118vVatWlVtvvVXOOOMMe5/I/WU/phnmPnE/2YeKBveTSgXTD0+dOtVWNigbmc6fa0bw1q1b14rcVq1a2efGEb52tJpSpWzlJT8pKOGL1uD7OmWAY2iR3PyexxO+BDGazIqWEhVCpMNFsVKxc4SUrB8m8/alyKIjKVK9X6TEVQyV2TtL230Rs3HlQ2WWEcAzfy4txUuFSNVeEdLefJbyoXL3CCtiWy+JkRoDo6TGgDRLaR4uYdHFZOLnJaX76jiJjC8mrcw+lCGUO12viksX175Mhe8JwBSJvJTUQuHpp5+2Lx8CEIHx/fff25eVmmzJkiXty4VT4y/zg7M/wpfarlPjvPLKK6V9+/Y2UowzfOONN+x6HlIiDY7wZRnnyIMYCKjwDTx4lrwd3sqVKz1bc8bxhO/8f5OleHKI9Lk73i7j5HB4HVfE2mWcV9k24dZhDX46QUIji1lRy7aBTyRIrHF+1NxZnmScWWhUMZmxLWP0dt4/yZJUN1R63JgWSS7XNtw6V2c7zpJosQrf4CA/hS+BBQQsQzjxrLz66qtWTDnR3BdffFGeeOIJ+15wHUTQgM+VL1/ejt+NPyxRooT89NNPdhvL+Gz2qV+/vhXRHBtf3rNnz/SIL/Tq1UvOPffcfH1OA0X4co+5Z056INdEpYPJZvh9V69ebe/vOeecY8tAJyf35ZdftoKZchjh27dvX1uO8n0GDBggCxculI8//tiWo+QOs57ppWNiYtKFL6lgLPM75ue9LgjhS+UL3YHf5/66//Jc5qZF4XjCd44RtJElismARxKMjy5jBS1CdNiLiXZ52qZSdnvz+cVtmluYKQf63psWAe5zdwlJqB5q/TzHGvJsgkQlFrMtie5zUE4QTW69NMZGicu3C5fWZ8XYa7LCe3a0lDVlw6LDGa/NbSp8TwBeInInnZ6oNNFQ4+Sh4mXi5aOpwYnWEjFwrHjx4nLnnXda4UvEwIFIABECRoogWuDuwObk+AJOiPQHUiUCARW+gQWFQ8WKFe174rZKlSqlFxw54XjCd+q3paRYaDGZujEtwovVGR0l9SdEpS+Pe///7J0FfJXVG8dZd290d3d3d3d3d9gtiCAqYKKUICphUIoYqChKKg0ijXRLCMj2//3P7+y+27u7u+1ujLu77fl9Ps9nezvu+z7ne57znPOGws0nC9yVcRmdD+fT0Q09EabhmLDLJq4gVdsfd9vUXKWOW/MFP0SUd4/OE1Pbtv0sSDd1cTmnS/b1Rs6aiUelBXwzjh4m+DI4QR/NjkAUO50xWkifzKZ0+nS25C1ZskSXAew1T7ihsZWFUEt/yEiwUbhySKm8efNqEGYZwBZC4zlklNIMvmz1Gz58+EN9Tp0FfAlTrBAwKET98MMPGtjYQtWhQwd9fP7OhFtG2pkewvtMOOa9J9Ry2bPPPhtzjoyisx8M9817bvZ5rHQY4Eu45u/1sKE0LcCXrMBoNp9FXiefXQbkyBycz2cuub9pUuDbdUMw3P2yYMT5aFhlACRrRTcdoCDcEkzrzfDXwBtUwBUFW3pivKV/BqO37ddEAzP9dN1X/BCUPxaEDWvyfgCCC7vqPiMT1XoVx/ug+yb2FVHLlVWc4IPsVQV8H5pYY2KEd8eOHXqaQ6Qwn+jcuXNYsWIFypUrp19cwikhhMsIsvxLp8f1+RCypmrIAF82+5gjCbxWRgXM4MsBqQnPziABX+cSfwsDdlnpMjd3paSVICnw7bUtRIMva/jGvPKjfHTOrzFNZ5OzdnTv4i7KQRrzDev6QzA8AqI7YRB+ub6xbOSFcHiHu6DNp9FRYrON/zcC1VTtn3m+rZdFR5wTMgHfjCNHgC/9NMVIIqHhq6++0kDFJnfCICO7DHKwVY8pb7SPP/5YR4b5DjI4YZwjtyWEMWBC8GVrnvEcPvHEE3HAlx2Q2Ez9MJ9TZwFf3ieOUmR0ECeMsHKwYMECne7HSDvvb+vWrXUFgzm/vM/8y3vNUY4IviwbjXPs37+//p24b1b2DajmtbIzugG+rNAQfH/++eeHeq8dDb6Mnr/88ssxHTN5XIKv8SySQ8geRp66vUoKfFsvDdR+2tzZOH8zD1RWMGpswwBHoAJa9ufotyc0XpnCj0uEl3XTYMqUuYmmY7FfR2B+l+hWP6tUBvr2jl8GwTvYBbVfjgZt83KzCfg+gFiL5AvLr6JQ7MTAphg+TDw35m+xyYq5u2xu4YNP8a+3t7eOFCcEvnxRuW8Op8N90ZESsg3w5QPMF5bNPc4gAV/nEZ8XFrh8xkaNGqVbIfh33Lhxeh4rZMl9d5ICX47QQEc2/Ews+JYd5q3zdY3pDqo2zxQGpjWwqcp6BAc2YQ0+EoZ6r/rrr+owemAsq/uKP0KLu8UbvaH3jhB1Xm4615cRYPMyWybgm3H0MMHXOs+WgMVOVQZYvffeezqaS9/O8+D7QRGkKlasiG+++SZB8CWUMN+XsMv9sRxhNNkMvoxqTpky5aE+p84CvsyzZUXCyLNlh3Hm5/K8aOxQyI6GzPfl/TQglh3EK1SogFu3biUIvkxDJPDxd+K+2LmQIG2ALyshrOCwLE7qPjyI0iLiaxaPawbflCop8G31iQG+sfOY11t5UnQqAqfZMZmpbvTxtV4i2Mb16UNOhKHp3ACd38t9DTkZ3cGNyxrP8detgWP+ibvNqCsRKDfcW7cmMgI8/t+4y61NwPcBRYfA3COKtVTm0NBhVq1aVac8MI+XLyNfQkYGmM/Lv4Rinn9C4EuxlktQ4SgQbJpgTdUAX76ofIHZhOEMEvB1HtHBshA1xgJloWE8N5zHziFGXrq9Sgp8h54Kg6t3Fh35NeYVaKkc3kQf/T87sTF/q0QvL3SzOL6m8wL0MkYJCLvGdhPusVbvioZvRs8j7IaXcUOtKbH5vLSem0N0pwb27h15KW5zWEIm4Jtx9DDBl89Hp06ddPM5/2fKGvtz8L1i0zGDEswhZSSY/psdrTi6D6GXw2XRLxMSbIEvAyPsuEXgYpM8gyOMABud25gDzBZCwvPDfE6dBXyZMsK0Bqb38VzYD4GpDhw5gxV2IzrO/jLZsmXTEMloOMtElqM8r4TAl78POxzyvnOkB5ahLH8N8KWv5L22NfxoaiqzgG/nb9hql0WDKKfpb3NUc0ftadER2HG3IxBe2g2FWnuixnN+Ot+3PztAq3Klx6YQ9Nqiyg9LGTPyUrj27ywfuC0BmSkMzO01H3/oyTBdPjBKzGAJ0x+MZQmZgO8Dis0trHUaDxSbFj766CP9gJiHDOELyJot4ZC1T05TfOmN5giKzTbsQUxxWwIHt2EeE5PVjeHR2EP1QT9KkJoS8HUeWY/cYAZfQ4ySJEdJgS+dEh0Pe98yj4s5uxyujB0UOF1pnA+8Q110Di+nObSZT1YXDD8djoZvB+ievqOVs2Se1sBDYXD3z4IOX0ZHcAceCtVDlvXeHgvVdFz5mnlokGakmJ0ctFlFD6xNwDfj6GGCL8WvcbKjMX01nxe2rhFUCagcwYGAShFy2axMKGaHNKNfBv0/ywIDxo4fP46FCxfqc+Y+mSbRs2dPDdJMqTC+EMfygR3rjAjow5KzgC+PzzQ+YwQNpjywQxvTPTgMGe+Lcez9+/droDWiwkb0l0PNcYQj41oImUYqCctYDn3Ge22kpBhBAUbdua+HdW2GMgv4cmQGD78s6PJtdM7tyIsKXoOiU9sIpOyn4aF8O/uCcNSekKKuKNDcE+PvZdUd3ujTjVa94WejO8p1XBfdMW7gX9F9RHr8FpsewbKkRE8v5KrrEa8TXGIm4PuA4ktK8DVywRwh/lisudJBOosEfJ1XtsA3uUoKfGnNFwVEj6fb0hMBeVyRs5a7zudiTZ4R3oZvx0Z1mRJB8C3RyxsjLoTDL5eLHr6G4/JydAiO48jcXb3fDwIURGfR0QJj+7HKaXopkCZcB+ZzjTGmUCR2jgK+GUcPG3yZtlCwYEEdiXSk2KntYY/oQDkL+FKEW6YJGiDrCLHyz9+XrV8P+15nFvClfy3c0VOP6MM8XA5nFlbaTXdUZj6vh28W1H7JLyZvV6e/uWXRowExWsvyo/xIHzRbEIhctT10K6ERPW62MAC+2V3ifAhpzI0I+GZzQW5VXpQd7IOyQ6KtlgLshM6RJuCbCmKT1JNPPmmZevjiuL5sAnKW66cEfJ1XjgJfOhNGaVlzZ+qC4bB6bw9F20+DNASb12eqAjurGbm9jAZUmuCrUyAItsZ6/feFxnzQwjDmB7deGoRWn8S1jl/G7zRnNgHfjKOHDb4UO1iNGDHCYc/L+fPndXoEW/cetpwJfBkBZ7oCo+qOutfM22YE/2E/Q1RmAV/aiPPhKN7LS+fiMgiix3JX5UYTBcJlh/pg3K3YcoD+uPozvnoMXpYDjd/1B4e8DC3mhmJdvTDgYPS2XLfN8iBUfy56CDNje6bQlervrQMoZqtmGd7MWM/aBHxFqSIBX+eVo8A3PZiAb8aRI8CX++enix0l5v+aU98eppwJfCmm+TEtwVFi5SKlH/RJrjIT+KYHE/AVpYoEfJ1XAr6xJuCbceQI8M3IcjbwzcgS8HUuE/AVpYoEfJ1XAr6xJuCbcSTg+2AS8HWcBHydywR8RakiAV/nlYBvrAn4ZhwJ+D6YBHwdJwFf5zIBX1GqSMDXecWxSDkY/oNIwFfkbBLwfTAJ+DpOAr7OZekafDnOIRPixdLeOLalgK9zil9s47iYDyKCL4elGXMtIl3b6CvhAr4ZRAK+DyYBX8dJwNe5LF2Dr5hzmYCvcyq1wNfFxcXm757ejNch4Jv+RfAlUPCTtmLJt+LFi2Po0KF2gS8/qGFrH2L2Gb9E58ih2qyVmuAbmMsD+Rp5Il/j9Gt5G3mociAdgi+/miNmn/GrOPx0sq1lqWnG1+hEzqXUAt8yynnfGjAgXdsNZa4CvhlCrGjz62eZyfh5ZH4h7oMPPrC5PLm2efPmJN8FDufmjPf6vffeg5+fn/4anq3lzmZnz5613FHHKzXBN3dtb/2BieYfpGNbGAAXt3QIviL71axZM6xfv94yJcpsSi3wLRcWhv8NHQqkY4saMkTAV5Ru9cgjj+DVV1+V51eJY/AGBwdLwMUOpSb4SqpDwhLwdSIJ+GZuCfjGmoCvKD1LwDdWAr72S8A3rgn4ZgIJ+GZuCfjGmoCvKD1LwDdWAr72S8A3rgn4ZgIJ+GZuORp8/6fg8t6gQYgcPFj/b2sds3Gd+2rdfwcO1GBqzOf/tszYJ/9ymzvK7DkOjdsL+IrSqwR8YyXga78EfOOagG8mkIBv5pYjwfdS375okScP3BVcRnh7Y07t2olCKZfNq1MHYV5eesSFwoGBWKOeVy7rX7Qo8vn7x7ONbdrgWr9+aJ8vn4ZYD1dXNFfHPNe7d7z9W5uAryg9S8A3VgK+9suR4Dv+TlY0fMMfxbp7oerjvhh+NlzPb708EN7hLuiwOhiTLOPBj7oSgdASbig/ygcT72eN2UfjOQHo+GXserRhp8NRaYIPCrX1RJVJvhh5MULPn/S/rGrdIJTs642yQ7zRe1tokuPNC/hmAgn4Zm45EnyHlSiBYkFB+FnB6ewaNeDj5oa9nTrZXJd2skcP+CuH/Fi5ctjWvj16FiqEnL6+egSGteq5fbtWrRjjslAFyEe6d8eT5csjt58fvm3VCt+2bIl86v+hxYsneX4CvqL0LAHfWAn42i9Hgm/VJ3zhHeKiYTa8jBuyV3XXMDzhv6zIXccdwYXdMOZGNLRWmugD7zAXDDkRpmGVoNvnj1D45XBBvdf8FaBG73Pc7Qhkq+yGbJXcUe1pP/jndEHJft76PDquC4KHbxYU7+GNgq089bEHHIzen/m8zCbgmwkk4Ju55SjwZdoBo7yL69fX05EKMkuHhGBK5cp4r3ZtdC5QANf79dPLpletipElS2J5o0bIpUD37qBBev5uBclerq440bNnzH5p//Tvj6KBgTo6zChxtYgIvKT2ayx/sVIlDdwCvqKMLAHfWAn42i9Hge/oq+HwCnZBiw8DNbQO/Tscbt5Z0GVDiIbafntD4a4gtdrTvui9I1QvazInIAZw8zSIHl+XrX/1Xo0F3zbLA+GT1SUmeswIb86a7hj3b1bka+yBUhYIZtSYgEw4TgzOBXwzgQR8M7ccBb5/du0KV+Ww+NeYxyht78KFcUqBbLiXl47Ubu/QQUeCVyjoZWT3TK9eOk+XkdzhJUpowCVEG/vgMZ+pUAEVw8Nxb/BgDa+rmjbFkW7d9HJO91LHqZ09u4CvKENLwDdWAr72y1Hg231jsI6+DjsTDagTI7Mioqwbak9V2yiIZVpCtad84eGXRc13R+46Hhpeje0HHwtD//1hCCvhFifiW36UN4p19dLR4LafB2HQoTBMuJsVY/6JgG82FwXGQTHrVhzvg7xNPBQEx56XtQn4WsTP7vITyBnBrB9uAd/MLUeBL1MVCL5nTbm2o0uVQuu8efV2b9WsqdMaSoWEoEP+/LpDm7HehlatEOjhoWv6Y9Q2jBYby5i7yxSHL5o0iZln2E0Fzo+ULQsvBdKf21hubQK+ovQsAd9YCfjaL0eBb+tlgTp1YcK9WJjN19QDlSf5xGwz7lYEAvK6al/PqK+tlASmNJjBt2BrTwTmd9XRYoKujhS/F6Dzft18sqDH5uiIMtetN8MPWSu4CfjaozBVqPOHyAi2YcMGy1VFS8A3c2v06NF4++23LVMpkz3gyzQFF/X8/d2rV8w8RnC7Fiyo/2c6QxkFvYRUc1SYxlEgjvfogVk1auiOcQRhY9m0KlVQUm33nwmUaVsUaDOVgqkSq9Qzbl6WkAn4Zhx16NAB7dUzkBGMPtueZ9Ie8P3ss88yzL0ZzBaeqCjLlcWVgK/9chT4tvw4ED4RCnz/i51HaK08MRZ8e/8eosHVxTULGswO0FFhY13DrMGXKRDcb99doZhwJyuqPOYLv+wu6Lc3DK6eWdDL1KGtwWx/AV97RfBl7YFJ2OnZctdzF/AVxVG/fv30JzMfRPaA7989e8Lb1RVb2rWLmdcyTx5MLFNG/7+zY0cd8SXYvlurlp73UYMGOt/XWJ8AnN/fX0eHOU3YLaUKt5cV/Brr0Da1bav3xc50Vy15w/aYgG/Gkat61hq+6Y9Gbweka8tezV1/gji1wHfq1Kko0MwTjd6yfbz0YrUm+yF3ntwJgq2Ar/1yFPh2+joInoFZMPp67IgLzMWt9VJ0qgM7uOVQz3vueh6oMMbSse14eLyorzX4FmjhgWLdvBQkR0/33x+qwbXnllB4h2ZBp29iR4Co/qwv8jaUVAe7RPAddSn6x0rPxpqRgK/ILEeBL6GyQmgoJinQZQe0Y927I8TTE182b66Btl727Hqos6fKl9f5vicVKHO0BkZsOQwat9nfubMG2q9atND7PNCliwbl3xU0m4/TOGdO9ClSROcCM5JM4zGMdRIyAd+MI4KveQik9GrsmJPa4Fv9SQUaNpqQ05MNPRmOPHkFfFNDjgLfISfDdDpCt40hGmbZ2Y2jLHRaH4yJCjYJs+7eWXTkdvTV6JSHIp0U0CogNu/HGnwrjvNBbsU2RgpFt5+C4RmURXeey1rRDTWeiz4nAm3+Zh46IpzQOdIEfC0S8BVlVDkKfGlLGjSApwKSprlyaaCto2CXUMrxfL3d3LBbga0xQkO3ggVxoXdv5FbrFQgIQLt8+fR4vvVz5MAdC8QuqFtX5/feNnV2Y4c4AnWQMg5pZhi3S+r8BHwzjgR8bUvAV2QtR4HvpMho8OQQZuyEVri98tOFXDH2RlYMOhKmR3wglBrpDa0+DoSLexa0/SIozvNqDb49fwuBR0AWVH3SF+1XBSF7ZXcU7eylI8h1X/HXaRAtFgWimlrOjnO9tiY+lq+Ar0UCvqKMKkeCL6O237RsiUfLltX5uvzQBOf/2Lo1flLG5Zze16ULVjZtqqGYub1Tq1TRY/kuql8/zogOjPhynF5jmsbI7meNG+NTK+NxzevZMgHfjCMBX9sS8BVZy1HgSxt8PAx5G3vAI9BFA2yvLdEQWn+mPwq388IYSxoEjQBcdqg3yg33idMhrtxIH7T5NHakBqZMEJJDirnpCHIhBdTD/o4eOWLc7awoN8Jbp00EFnBF03mBMSkRCZmAr0X2gC9vPofQGK+M/3Pe2JsR6LAmGAP/DIuz7pBjYXr+WMtAzfyBuS5rKMa2vPl03NbG+Xq5Wo95uxyyw1YCuC0T8BVZy5Hg6+wm4JtxJOBrWwK+Ims5EnxpZBdyjME6qWF8nhPab8x8vSzudraM6wn4KiUFvnSwlSb66vwV9khkLYVQylpKrjoeCC7qpgGV6xKMGepnUjeX99wSomsqHHHBO9QFNZ731Te+2fwABOZ1jWcc8475MNHj3bkgi0sWhBZ3Q49fQ+Kdl7UJ+IqsJeAbawK+GUf2gG8v5XvZiabCaB8deWIBOepyuB5btNww75iAAuezGTVczR+pyoFx/0bo3uEl+3ijyqO+6L8vOrDR5/dQ7Z9rvxTXOq4L1lEtji/KcqJEL2/UfcUvTnQrIUsL8GWUrMEb/ig90FtH4sbdjD5Pzgss6Kqv01h36Klw/VnZOtP8Y/bJ+9VAbWf9edihJ8JQWV1/8e5e+vqNMVpZ3rVbGYQyQ7z1Z2w5XquxTUIm4Jt6cjT4OrsJ+FqUFPi2WhoID38XtFkRqBO1mVPS+N0AvYyDKrv7ZNG9CekYGr3tr6d77wjRjpnh/vzNPbUTrj/LX+e09Nwcgn67Q/U+DKv5oh9c1TIeo8v3wXqYjqYKjvvuDNV5M8GFk3b0Ar4iawn4xpqAb8ZRUuDLDjSeAVm07+WQSswR7LU9OnhAwKOvpZ8luPX5PUT7bEIgm1fLj/SBZ5ALSvb2RrbK7jo3kb3P6Zsjyrnrwfdp/CQrh2WqNN4HIy9GwD+XK7JWcEfZYT66jMjfwhMTkvDZaQG+ZQZ56y9h8a9/HlcU6+Kl7yV744cUcdXlCIM2BISSfbx0JyRWCLgtobfHbyG6937rpUEx4Dv6WoTO58xZwx0VVWXD3T8LarwQfR4tPwrUAaMSPbx0UIhjshr7S8gEfFNPAr5xTcDXoqTAt1BbT+2gjGlGEHLX99AvPV9s1mI91IveZUM0FFd+1FevN/JiONy8onsxcnr8HeUclaOhIzD2ReMPUaKXF4orx0DHwmiv3r9lOZO7sygHO+R44jVlAV+RtQR8Y03AN+MoKfAtPcAbeRoqgGN6WWRW5GvkoVvq6K/ZKscWOUZ42bs8T3135KjurlvxmJ7mE+6CVhaoY0sexwxt8SE/rZpVR4kNa61AmLA74lw4mi0MgF8OVw2APD6HWHJxy4KBhxL32Y4G38FHwzTkG1Hq7puix1U1zrPDl0EaCng9nb8L1uUXv4zFdQnD2Sop2FfXxRZMM/hyaDm2WI69Gf2bNHrLH/maqfuvfqOw0m6o8oivbsnk/eX9bDIvIGZbWybgm3oS8I1rAr4WJQa+BFHWeBvPiY7w0potCIB/7ljHy5eZ6QyM0garGrOR9kDnyCRsOoyhJ8LRdG4A3P2y6GivsS9a1x+CNTgbYMsBmXsoh2QsZ+TXVTmgMRanmpAJ+IqsJeAbawK+GUeJgS+hj36YEVwDrupM80NYSbeY9IZeW6OjvPSZhLuem6N9MvtiVH3CFyMvRHee4V+CcOsVsZBHo48PyOOK5osC9Xz6dqZVTLR0yOm/L1RHlfv8kXiKmqPBt9WyQP31qzGW/ifjbivQz6rAfkn0dbCSwACMX04XnWJXqJ2nrjxwXQIDgzgsmxjgMcCXZWThDp6oONYH/feG6VbREefDdQWDlQKWiz1+iR7iivsp0tETpVTFxOi8ZMsEfFNPAr5xTcDXosTAl1EA/ZIrh2HMY74SnSGdpDGv+jO+uhbMITWMeYYx14uRXkZt2XRmRAVodN6563lop2HexljW4sNAeAa66G9Qmx2vLRPwFVkrtcCXnxq+2KdPurbzvXsL+GYQJQa+DDQwVaHNZ7GwyogtgxXMbzXWI6iyDwVTG6xBka1zpft7I6iAKyLKu8Xx9Vy3xvMKpEu7xUCh2RgI4VBObNI3b2fLHA2+9V/3R2gpftkq9rxDi7uiwazYSsLQk2HwCsqiKwaDDsePWPP+8l62XmYBXwUS/FoWgz+MHnuFuOj733FdkE4FZDoIPxBlbF9hnA8KtvIU8HWQBHzjmoCvRYmBLx2Eb3YXtFQAasxr82mgbtbiKA+c5ksaPZyGm+7ARsdhrEvjjWbNl81frF1XezoWjhl5YI148JG423D9gm08tfOp87Jfgk7ebAK+ImulFvi6KGA0Poudno3XIeCb/pUY+DKKyWBBu1Wx4GukJRjgS3jLU99Dg2+eeh4Yr6bN++DyOtP9dcSTMMftjX0x2stgSMtPYufRGPnk4PrhCojZSshcWGNZQuZo8K0z3U+neJiHfCLYE4iNbTp/G93HhP1R2q+OG+mm2QLf4CJueh5HOGKghx8mYMWAnbIJvizPjO2ZClighYCvo5Sa4BtayAMlenrrDpzp1np66WdSwDcR8KVFlHPTvXmNaQ6uTGdBR8emsyIdvHRtl2kNrOUX7eKlnUHf3aEoqRwbo8bcjo6lZF8v7UyNfZUf4YO8jTz0vox5oy5HILiwG3LV9dC5V+ZliZmAr8haqQW+ZUND9Ri66dnuDBwoEd8MosRTHbJG5+UujgXTxu8FIKRobKSTqWv8ilTDNwLgpiCvydzonFO2xukRIJT/5nrMSy3UxlP38zDAkPmvvgp8jVELDGO5ED3qj09MqkRS5mjwZW5tcCFXnYbAaZZfgflc1TVF3ytGq5kSwog1yymmjJhbKGm2wJewz05+xnEZ5CE899sTnfIx4GBsYIed6kr0llQHRyk1wbdyRASmVamCV6pWTbc2TZmbKgcEfJMA30oTfHRvVAIsIwY5arij8qTo1AQ2p/HF7rA2WE+3Xhqok/9ZUx5wMPqb0l1/jP6WNJu9CNHGtnQgQQVdtcM0jkVjhJdOmp3jeEzDkgJgAV+RtQi+ixcvtkylTJLjK3I2JdW5LV9jD5QboUDMAlfs7MZhtuiH2ZeCqWqVJ0UPLcmhzdgSR9ji8JMctnLoqWhQo88t2dsLRTpHb8vpAi099VBgZrjs/kt0J7HogfcT99NmczT4MgrNVkR2cuM0Wxp5vczd5bWxozZTFbicaQ5MeajySNxUkHjgq7YjKHMECON+cyQkVg6M6Dj7xXBdgjbLQA6HltA50gR8U0+pCb79ihVDpPKjtvxrejGWAx7Kfwj4JgG+bL5hCgPzc8PLuGsnyY9UcBs2aRkRXq5LZ5yvqYcG2lFXInStmflOBVqx9uwG3xzRToXrctxDNrVZj9HLZiB2uGDTnGHsSMFvU5vXszYBX5G12rVrh1WrVlmmUiYBX5GzKSnwbapAi+kOLZcEouFb/rpTcbvVQXqbop2i82/ZssZ1h58N1+lsHFmHQ3rRpxfp6IWuG0LQ8A1/eCgwbP5BdESUub8cyqu5KZpMqzjOB/5quzov++sxbw0zN/HbMkeDL9PzjE5rnb8JRn5VVrFcY2Cl9/YQ/cnXOjOioZRAW2uynwZlLjOu1xp8OY+pIAToRu8G6P1y7N9yw6PHSuZfln0MDlWa6KOHlrOVO2w2Ad/Uk4BvXBPwtSgp8OXLPfBgmO7QQEfA705zPhP2230RhBFWzVoc9FvPPx+uo7xN3g/QA6E3fCtAO1ljPYJx+5VBcTpc8FjdfgzR21tbnPVsmICvyFoCvrEm4JtxlBT4Es4qjPWBV6gLfLO6ouYL0f0kOC56rtoe+pv/ZnBtvihAf4yo/8FQPSpBeCk3DXIMYNSeEtvHgpHgnDWjU9CMbWkcritHDY94NsDqq57W5mjwpfXaFqI7oxFy2ZLJdATOr6yglMA/7lbsfWX5xVSPyur6jH2yQx/B2RgHmfMY+Kk7zQ/+OV31uMfcj1GmjroUrvfhEeCiOwu2UsCcWJoDTcA39STgG9cEfC1KEnzTiQn4iqzlaPClU7k1YADuDhqE/9nhILkO1/2nf3/8N3hwzPz76n9OWxv3z+X8y21uKLPXEQv4ZhwlBb40RiwZLBj/b9JpYtZGuCMAEqCTu21yLC3AlzbRcn1J3cPkGO+TkQ5one7B6dj7GXc7Wybgm3oS8I1rAr4WCfiKMqocCb4X+vRBk1y5dMeBMC8vvFWzZqLwy2VzatdGqFqXIy4UCAjAyqZN9bJ+RYogj59fPPupTRtc6dsXrfPmhavahg6Mxzzbu3e8/VubgG/GkT3gmx4srcDX2U3AN/XkaPCNHDwYyxs1wrjSpfF69eq43q+fzfXMdrJHDzxXsSJGlSyJeXXr4vaAAXo+9zO7Ro14dqZXL11+fNOyJUaXKoUJZcrgO/V/lDq29b6tTcDXIgFfUUaVI8F3sHKKJVVhtFkd8+1ateDj5obdnTrZXJd2XDk7P+WQny5fHjs7dkRfBbs5fHxwUzm9r1u0wPt16sRY78KFNUwfU9s8Xq4c8ioI/lFB8I+tW6OAvz8GqWMndX4CvhlHAr62JeArspajwZejPvir43UtUAAFlW+ulyOHHlXH1rq0qwqM8wcEoEhgIDoXLIggT0/0LFRIt/B1UfsoquZzGS27Kh8Y8Njevj2WNmwIb1XGtMqTRwc/CLPLFCjTz9s6jmECvhYJ+IoyqhwFvqyhRygwXdKggZ6mcywTEoLJlSvj3dq10S5fPlxTDo619JfUvGElSmB548Y6ims4xV0Kkr2UQzrRs2ecfTNiUFg5xoX16untq0ZEYKpyrsbyyZUqoVhQkIBvJpKAr20J+Iqs5Ujwvdm/P7IpOGVrH/3tX127wkvB6c9t22J7hw74XZkBpge6dMEONf2JKjNy+friXK9eev6HapplCcsLprzds9gdVU4QhPsXLarLjIYKqFmOEJAZZSZoN8yZU29jPidrE/C1SMBXlFHlKPD9Uzk41sQPqb/GPNbaexUujNMKZOnIHitXDltVTZ2R4M+bNMHtgQNxrndv/Kv+crvBxYtrgOW0sQ8e88ny5VE5PDwmx/fL5s1xrHt3vZzTPQoWRJ3s2QV8M5EyA/ju3bs3TuFsDb4EmcOHD+v/DQn4iqzlSPBlax/9O1MXOE0gLR0SEjP2L5ft69xZp8VlV7BL3850hVnVq8cA8eL69XVk1zpFYnXTpsip5rM84X5b5s6NtYpvjHQ6thxWVOWEgK+dIvgOOBCmR2FIqY20mK1ljrKctdwFfEVx5Cjw3aaA1k2BrznXlrlXzMXldu/WqqXTGkqowqqzqpmbneeGVq0Q5OGh83yZ40WnZiw726sXQj09tdMz5hnGzm3MI2Nz1yoby61NwDfjKDOA76ZNm1BSvQ+fffaZhhYDfPn/mjVrULZsWWzbts2ydrQEfEXWciT4ftq4MYKVv75rCV4QSpmGMLFMGf0BIQYwmitgHVi0qE6L+8cEt7+2bYuehQsjQJUFbMUzlwMMhpQJDcWUypW1H+d+jb9cvlfBdG4/P32cxM6PJuBrEcHX/FnTlNjIcC8MDPW0ucyRJuArMstR4MtcXhf1/P1taa6iDS9RAt0KFtT/s2mqrKr5E1IPdesWs46x7JSqxTMv2F2B6XcKhI1lU5WjY8SA0V7zNnSShGimSjACbF6WkAn4ZhwRfMsO9tZfSXtY1mCEL9qO9rO5LLUsuKhbguAbFRWFunXrwk29M3Xq1EFz9Zz36dMHjRo10vPq1aun1zGL4JutggfKDrF9PEdYreG+6DLmwe4bP4ubO08s+N69exe3bt3S/1O2wPfOnTsCwjbkSPD9uGFD3RfjP0v6Gq1t3rw6QMHtGBH2VO8uO0CzM5oBrrQ/OnbEmFKldCdnQvFl9awby9jJjf0/Llh1YmbZwbSKcHXMZgqoL/ftG2e5LRPwtYjO40Ht4LYtuFu/MH5fvsTmckfZ2rVrce3aNcuVAd0UZCxfvtwyFd18RhNlDjkKfAm83sqZ0LEZ81rmyYNJqgbO/5nL5acKazqcN5Wj4rwP69fX+b7G+nRi+f39tSMzpgm306tWjVmHtrFNG/iqfTGizKiveVliJuCbcfT888/jueeee6j26bC++LNkCJ4aOtDm8tSyP/74w3JV8bVy5UoN+dYBDhf1HDPqa/0s//zzzw65N4nZkjFDcKJUMJ7q18vmcnvttddei7k+Qgp92YIFC/T/ZvAl8L7xxhsYOHCgLgNFceVI8GWnZEZsOcwkpwm2dbNnxwsVK2r/yxF5IhTABqp1ODID1znRowf+7tkzpnxhGhtbB79o0kRvw300zpkTo5S/Nx+bOcBsUWQaHcsMlhfGssRMwDeVdfC3X3Cmf2vcvn3bMsfxIuTkVA/JO++8o2vJBN9ly5bh9OnTGD58OIoUKYJ///3XsrYoo8tR4EtnUkGtM17V7Pn/YfXcMX1hXfPm2iHVyZZNO6lnlQPk8GUc0YHpDzl9fXW+F53bnk6dNBzTeXKf+zt31hFgRgLMx2mknm+OAHFLFXRsAqOx44OxTkLGbQV8RfaKELV15lScaVMVl86cscx1rO7du4fS6p2yBt8ybNJ14ujmtrlv4WKL8jhzJG4O8oNo0aJFOtJdrlw5LF26FIGBgfjkk09QTMEYKwds2ZR3O74cCb6EVrbq/arKHZYXHKEnwttbp6JxqLGRJUuiaFCQDnCwkxrzcUeUKIFOBQrE5OYSaDmyA9PbWC4wX9hPlSXft2oVJ0LM6HBxVfn5Sx0zsbLJ2gR8H4LS2hnx+CXUg0TnWLx4cZ0j1lQ9QCEhIXretGnTLGuKMoMcBb60Txo21M1YDXLk0M1SxjA271iGNmMeFiMBxZXjY57vRQW8HJaMxugwgZhQa0Dsgrp19TxzZzc6UuaQMWJAaDaMUYWkzk/AV5QS7ft2He6nciGZHM2ZM0dHeA3o5f/z5893+ud433frcffOHcvUg4sBpYIFC8bcB7NVqlRJVxJE8eVI8GVeLn0xR1fY1LYtBikGYSc2wizT0zhqDyO57NzMsuLbli11ucHhzzim+7YOHdBPAXGYgmUjIszlTJ+4ZEp94EeSmObGUR7YgsiIL02GM0tjMVpw8LdNlinHat68eXEcpWFsGrpy5YplLVFmUJs2bXT6y4PIXvBlbfyH1q3xVPnyOl/XSEP4WZ0DnaBRWz/YtavOy+UX25jbO6NaNTxdoYLOD+M8Y38c6YH7M6ZpzB1jJIARBLOxg5x5PVsm4CtKj7p58yZy584d48f5f2ZttZsxY0a81A+WdYwGy3ttW44EXxqHKasUHq6DHYUCAzXccpv+RYqgjzJGdlkWDFCA26NQIR3YGFmihIZbAnDZ0FC9jVFeEGy7qwqPebQGthJWUcdghzezcRzgpM5PwPch6tzp07javCx2LV1smeM40SnmypUrjnOgTZgwwbKGKLOIHWB++ukny1TKZC/4OrsJ+IoeREwdOzGiG04cPGCZ4zhNnjw5JpjBVrv09AyzFfLo2L44/Pt2Uphlbsp06dIlRERExCnXChQogBs3bljWEFnL0eBLY0sfI7Tm1rrEjJDLqDBzgK07Mqe2Cfg+ZB3duwf/NiqB3V8/WMQtJWKOr9k5eKna1IkTJyxLRZlFAr6xJuArelDtnDkV15uVxVkH+9Lz588jKChIG+EvvemPeW/hduOSOL5/n2VOysVh3cwtmq+88oq804koLcDXmU3A1wH66/cduHTunGXKceLQL1mzZo1xDr05DIgo00nAN9YEfEUPKj47e159ATvnzHrg6GVyNXr0aEyaNCndPr+7352JXerePej5Hz9+HP7+/rpcY9qHRHsTl4BvXBPwdbAcPdQKh4Shc2DtOLEhc0QZVwK+sSbgK0otpcWwWUePHtXQl56VWvetb9++ulybMmWKvM9JSMA3rgn4Oli7nhqL3xe9b5l6+Lpw4QL8/Pz0RyzEOWROCfjGmoCvKLV1+sRxnDt1yjIlslcXz53DycN/WaaSL/qk8PBwXcaJEpeAb1xLt+B79uzZdGlb1qzEP7XyYfNHC20ufxjWvXt3LF682OYysYxvNWrUwOeff25zmb323XffoWRIiB5eJj0bB0kX8BWlpn5fsgDnW1fByUN/WuaI7NHOVZ/icosKOPzHjhSljPAdtvUBD1F8CfjGtXQLvkbeanq0Ul6ueCe3L/h5V1vLxcTEHp6xeVQKy/QvdnBivqsz2OwqxXCrcUk8M2mCzeVitu3lGmVws34RTJ4wzuZysdSxiRMn6iHgOKqTreX2WosWLVAqJAQTSpfGxDJl0q1NUMYASLoEXym8RCJRcsT8QhYA4jvSv/g7jh8/XhfqzmBfP/8YJtmYL5a4ffncY3jMxnwx57PmzZsL+CYiAV979c814LvVKWrqEYlEyZOAb8YRf8cHbbp9aPpPviCWIsl9c2oxZVJSHRKWgK+9OnMSaF4aWPKOZYZIJHpYEvDNOHJa8L35D9C7EXDskGWGyC7duQ0MagXs+11NyPvpjBLwTVwCvsnRgV1A4+LAri2WGSKR6GFIwDfjyGnBl8/Wuy8D7SoDJ45YZoqSFO/bkreBlmWBg3ssM0XOJAHfxOVw8D1z5gxmzZqlk7enTp2KAwcOxCvc+NnEL774Ajt27LDMidaxY8fw6aef4vLly5Y50dqyZQt+/521z7jiOIpc3zDu888//3yw8QlPHgXup+6PIBKllW7evBnnHTHbqlWr8Msvv2DPHscXbgK+GUe2wJc+np8VZoGWpr8xy4IPFcStXCJpbMkR79sXH0a3gMp9czoJ+CYuh4Lvb7/9htDQUGTPnl2PV1uwYEH4+Phg7dq4nwnevn27dpYVKlSI4zDnzp2r9zd8+PA4zrJbt24Ywh/YSgsWLICbm5v+PjiNx+b066+/blnjAcWmMpEojfX222/j77//tkwlT0eOHNHf06fxE6t8v/iecLpw4cK6kwR75TtaAr4ZR2bwJfAy8FG8eHE9bnmuXLkwbty4eF/0YoWsVatWuoe6+RnYuHGjHu+aw/6Z5/MdePLJJ+M9LwyecP26detqq1+/PgYNGoRDhyS9QWRb165deyC/w88ym585s7344oto1KgRTp8+bVn74che8CVYft+yJaZWqYKPGjTA7QEDbK5ny75q0QLbOnSIM2b8LbX9QnXtTyt2W6zetX8HDoxZtr9LF7xavTreqlULZ3v1ipmfmKV78GXtvlChQmjcuDGuX7+u5925c0ePXZsnTx79vyEWtIRjQiojwoYIvhziyMvLK87XzRIDX34m8d9//9U37vbt2xg8eLB2tjyfpGSct80IMeeN7AQsn2+ZIRKljejkAgMD8eyzz+Lq1auWufaJzzbfPdoPP/yg3znCMKf57J8/fz5eCwu3Md4JviO2onacJuxYz7dXAr4ZR2bwff755+Hp6alb/FavXo3p06frila/fv00FBv66quvtK9nZcz84QMCL+ezLGE5YoijRrRu3Tre88JxrXn8yZMnY9q0aXjqqaeQP39+lChRwnYZsH8ncPywZUJkt5gnfXC3+if9v6/79u1DSwWDW7dujfFzydFnn32mK2FPPPGEDh6UKlUKjz/+uJ7m+Lpt2rTRLd8PU/aC75zateHn7o56OXIgq7c3Oqh34z/FSLbWNex/ap/nevdGEfVuzlQgSzjlfG7XJm9e5Pb1RZt8+eDn4YEny5fX57C1fXuEKm6rEB6Oomq7wqq8sgd+0z34fv311/r/gwcPWpZEizXvzp0749y5c3qaDpLR2dmzZ2sgfumll/R8iuDLKHHNmjV1xNhwlImBL/dhHTXOmjWrhmE+hIwoGPr444/x6KOP6v937dqla2jcnh8W4EsQT0f/BNpUkg5vojQVn28W5Hy/WKl7991341Qk7dWmTZv04Onm6DHTkebNm6ffl3bt2mHmzJkoW7asduYrV67EAFXDJ0g0adIk5h2+cuWKns/3uGrVqikavF7AN+PIAF8W9r6qUOQzZQaKRYsWaRg+efKkZQ40CDM66+/vj08++STmOSD4eqsCmhU9lg3G/MTAl5U5Bj0MsSziOfF4//zzD/7666+Y7f79ZC6impayQFx0eh2PyS8qpnbhm6H0/WqgcQng998yROoDWxv4TPZWgMdnIKXq0KED+vTpE8MqfA/4OWs+SwxS8P9Lly7hyy+/xOHDh/V7QdbgNJ9NQ3w++QU8to7bEy22B3z/VT46t58fplaurAFzV8eOGjK3KUg90r07jvfoEQO1hNRjah6nB6n9hql3kOXN6ybwXa8qC0Hqnu3r1ElHgd+uVQsFAgJ01LeTKiNaKpb6d9AgXFfvNsHXvG1CxuXpGnzp7AiR5lq9LTGnkI6NTpIpDRUrVozZhtBatGhR/Prrr/BQtQlGDKjEwDcsLEznK9J5vffee7qQHjNmjF5Ox8kC2xAjAmza5fEqq4eB0WFGwXqoB6B06dLxnKrWsb8EfEVpLiMNyDBCpwGs9soW+Hbt2lW3wLDpmRVGgvXChQt11ILH4V9WINmy8txzz2nH3VE5UMIx3ztG9vg+syKZHAn4ZhwZ4MvCmM8CK0Zm8RmlnzXSHRjJZarNihUr9ED8hAfjOaAf5zKWJ8HBwbofB5Uc8GXFMEAVyAQLPqOMyhnRX5YpT+f0Q1SbSvji4490xJlpGQRtPtfmIIrIJN73FQuBZqrScC15rU7OKKP1iz6OzywDZGz9Sq6swZe+lemdhFz6ZzJRzpw5kS1bNt2SzfX5XPP5ZHCBAQxuO1RBICuBXJ+VR75L5sqjtewB3+0KcH3UNR5V/ERQjVS8U0Id+5WqVfGs4q4AxVhH1LJrClTzqmOPUedzX63zjQLcpQ0bIp+aZ474ctzddvny4YK63oOq3OB21/v31+kPOdU5L2nQIGbdoeqdaqWu5X4i50dL9+DLJiYWhon9WBShtKG6qVxv/fr12mkaUWIDfOl8BqpaRMmSJbVDSyrHl1FiNo2x0CYwjxw5Uu8jIfDlw8YHjIU2a2VsamM0OKlzT2/i72Ju7jOmDTOU2HwWVixArGunxjx75lMXL16MMa5nKKH5rCVzHitI5t+F03QuNHMlK6H5LDh3796tzXxtfOZszWfnSGO+OarKvHRGhWjmfEXmGBrzzdfMVB1jPq/F0M8//6w7YdLMTbyEUmO+2QGzEsjn/M0339TPtgG+NDYJs+LIwtwex2EP+LLySDHyQAdsRB/4PtLBnzhxQkdKuC/e53v37qG6co5sak6O+JsK+GYMGeD7wgsvoJgqjJN6FvmMM/2BKTZ83ggCfNcpgi+fQ8Iz/T+fOz4rSaU6MK+SrYR8Fvl8Mi2I29kC30Kq0nh351Y0bdJYfwyAzzHfbx7XAG2RDdEP71cV3KjEg1vpQXw2qlWrpn2o4U/5+7/22mvaF9qrpMCX/papEcwrLqPAkazClghGd8kuRpSXFS/6VPIO36McOXLESfWxlj3g+3njxjpCe8eSh8sUhiYKwh9RnHZDASshuIs6n/HqvBi5vaSuw7w90xbM4Ms0hwphYcimKgre6twJxutVxfV0r17wUdf5a9u2MfnAL1epgmrqfhKkzfu0tnQPvkz45o9lhg6KDoc1ezo2FpKEU0InHRVTGrj9yy+/rNc1wJf74AMUEhKiO0rYm+rA7diEQMfHGp01+PI4BF+eL5t0WdOjA2azBx1okoXwicPAR++S8Cwz0lZ00iwcaHT6hnjvOI/N40zjMMSmakbEaYx4GyKYGfPLlStnmQsNcszFpkNghNEQX07OozESaIgPrzGfNVyzWMNljZZmfsgZsTfmm6M23J7zCHt0GobC1cvIgo5mBkc+e8Z8c1MRnyduQyO0GeL1G/PppAyx4DTmm/PPWegWKVJEG3PEDNHxGfPpxAwRKI355nx1tnLQ4dK2bdtmmQuMHj06Zj47iRpigc/fls+tEaEwGx0rWy7M9ygh2QO+P/74o57/7bff6t/GAIZhw4ahZ8+e2LBhgy4s6MB5b2n8bVnZTA7ECvhmHPF3pA9m5cce8KU/Z/CDlUw+Z3yuly5dqp8FA3z53BFSGSXbvHmzXTm+LIPYuahBgwY6ksvKLcueeOBbqJCeZksfy6M5M1+PqQA7+/PI1heWiTRzBZn3b8aMGRr4zfD+wQcf6Hk0c4c/BnqM+Xv37rXMhb5fxnz6LeN+cAQYtvgwl5UdEPX827c01NF3jRo1Sv+WxvpMfzLms0w25n/zzTcx8/lbG/Ppd4z55tQXzu+lwIq+55133omZz2fCmM+ynP6E4jkzfYHzGegy5u/fvz9mPvPQOZ/3jM+OtU/l88HrNY6VmJICX5abxvvAVDIG/nhsvi8Gp9B3sjzi/aN/5fXzuWcrWkLnYA/4fqzesXC1HzN8MmI7pnRpvd13invclS93U7ZScRLB2Ly9NfjWV2Wsn3pXP1VAfbh7d3RW11ZEATs7tbmr+/i7uhcG+M5S3FFelR8ZHnz5QPN/cyFPGY6JMML/CTJsxuLICzQ6wEqVKukHxwy+FF9kAgh7UNqb48tmNUIQ90XwJWAbYnMGAYIPHqMNRqSXie7sgWzkMCYoJvhznN/Fb1lmpK1u3bql7ymNUGOI94Dz+BKZh6pixYMRSpq5aZoPnTHfDG+8r3SWzFMy50Hx/nGe9Xw+B8Z8mlmMrBtmfpmTms9zFiEGOA3nzHeKz63590pK9oAvI8wUnTDfPeP+G+DLiDUdNgszgjuN52ad25+U+AzxGhJy7KL0I/6O9BXz58/XlVXr1h5WrPmsEi4ZyWVAg/6WcMpIF59JphnwWTCDL8sBbkeQJRTZm+pAf8YKJyHYGnwJagb4EhyfGjYYe0uFopSvB+rWrROvo6ezia2UXRRo0Mw+lp2tCPJsMmdOsyFCIefRzIBLiDTm0+8b95Wwxned8+kLjPkEbs7n78CK+f/4G3erg7UzXsKTTzyhO3axdctYnzxgdAAzAzFB1phvBmIey5jPFgFjPsuvV199VbMAI6PGfPobY755fXbcNebztzfmM+hhzGeZz/nsZ2QNvoRWwvfZs2f1dkkpKfBlHwhjGdflNdL3cZ4BvvTBfBfYYs7Ak2EPCr5fKdZhOsPN/v31NMGW8PpcxYoaOBn1zabONVidx0WraC/NGnybqEoic3kNmCXoeql3jx3bGFn+ke+nZd0XFdM1yJkz44MvC0jWbgiydB6cxygvI1iMuvKHJryyQxl/eEN8+Om4WPu3Bl+CHfOvWOAnBL6ssTPaxYKbf5nfRUfKGiFfejo5giCbp5nHS/ClI2ZEkY6YOnXqlAZy1gqT1F/7gPZVo/+KRA4SC32+a3wXqlSpogsW4z2xV6kBvqwsEm7YYYniu8539KOPPtLT9krAN+PIAF+2kPD5IgCbfTynCbp8dhhlYyFPX8v0JBphhC1v9Mtm8KXoo5lyQz9uL/jyvWA5wqglUx0YHDFy4Xkso0zgM3xWHZ+BjJPlI1DO2xXLly+XZ9Ie8R5xnF9+7fSPzU7TCmqv+PsbbGH41fYK4PhcJuf3Twp8yT/GsoTAd8SIEbpVzwjgsXL4/vvvxxsC0Cx7wPeQ8u1e6t3cwUqlmmbKQw71Li1v1Ejn+3JEhrzqveRoD2Mt+b3m7a3Bd6B6p9rmzRuzHnOI/RU3MU+Ykd/ZNWrodQm/BORRap+JnR8t3YMvxYKV+VrsnMAfnH/zqhtFqGW+JB0aa1lm8cflNmyWsAZfij3LEwNfOl1CLI3RA04zb4sPFz96wYeLwMsIAM+F4Mv9s9MOHWNL7LIAAPoNSURBVCJ7FzMtgE3cdkcXbySceyMSpbYYqSFQMBWFkZeURsFTA3z5XrGpkDDCd4gQwUiFdZQvKQn4ZhwZ4Esx6siILmGX0TrCJaf5jPE3Z3OvEd01xMgl086WLVumI7Jm8OV6HAeYZQBT0qyfF4Ivj79kyRId4SMQdOrUSTcVM5LJZnkGNQi0fLb5DjFNh/tn8zIjmAzQHJn2FBoHeuJbVaGUZzIZ+vpT9SOsTnfgy2eNzw35hd8TYDTZzB32KjXAl8E/bsNKGvN/mdfOjm8M/CUke8CXgFpNMRjTGw506YLHypXTqQ/M5d2p3kF2fGOHtA/r19eAvMmUo0uzBt+1Cs79VfnBbf5UsNtW7ZcR5LuDBum8YQ5jxhEjuJzrsZOcdfqEtWUI8KXYfMRmlGeeeUaDqTGmL3/EdevW2cxFpENiky0jrzH5QxbxIaFzMzfTGOJDxvEgDWMUjE0axvb8S+fHfCg+XMx9YicGigU9a1WPPfaYBm5Op0jnH+5A1SIROzuwmc4c1UqJmDrCoZ7Mnfb43rHZkODy/fffx7yfjOTyveP7R/H9M9JjOI/7Yc4f353EOmEkJO5DwDdjyAy+rAD17dtX532zYGcwghEt+n8+JwxAEDqsfTxT0tjETABhoW+AL0UwZXSOOZrWzwtTbxj0ICzT2CeBfUfY/M39suLWVhXoPB+uxyZ8Nj9z/ywvuD4j0CHBwXqIvpRWKjOt+Huks3eY0MlnhJUgVtDM/jC54jPDypPhJ5kiwQAbWYOtYEagjeK6xlB/nMf+MQxG8P+nn35aBwD5vjCYwPmJ+UZ7wJe2VVU0C6pnn5Abwcqles8IxF0KFEAzdfx7CloZ/eUIDARZ8xi/jXPmxHu1a8eAL9d7RlUSmBrBsYHZOW6XZWgzjvRQV71Lvuo4hN5HFQgnNV4wLcOAb6YSH/Y+TYAFs9Ldyy9KP0qs5p9eJeCbcWQGX4q/KdMa2NLHZtu0/o35rBFIbLVKcB4rdXFGj9n4dfSHLkTJ09aNwI5NTl8WsgLPFmZ7OgQ7UuxjxEixPSBuL/jSONwY0x6u9etnc3lyjBHc8wpyD3frhjsKms3LCLpMe+CYwElFeg0T8E2vOnMSaFEWmJ9Kn0kWiTKBBHwzjqzBN93r0w+AJiWAP2M7Bovs0DdfAPULAzu3ODX80uekd7+THPB1ZhPwTc86cjA6SiASieySgG/GUYYDX0Z+F8wEejcC7qW8GTzTie/yigXRnb//fbC0LFHiEvBNXAK+aSG5HyJRohLwzTjKcOBr6Er0RzVEyZTct4cuAd/EJeDraDHPad5rAr8iUSIS8M04yrDga4jP6PX0/5leh0vu20OTgG/icgj4sgcjR1MQU7bxe1ypkRdRC2bh1Ekby8XExPSHTwR8M4YyPPge/wtoXwU4KDm/ydLFc0DrCtE5v0wfEaWaBHwT10MHXw5ZIxbXCvp6YkfJEBTz87K5XExMzFOPtSrgm/5F8OXn4PnJ4Ixq77Wog3v1CuHrV1+yuVzMtr3Zvinu1siDH2dMxgwby8VSZhx/vVJ4OKZVqYJXqlZNtzZNGT+ZnO7AV2RbGToC8pDFe8fhkEQikfOLA/hzjN2MbosGdMNj/TPHtaamze3fDc8OkPsmlrAZYx2nlgR8nUDH9u7WOY0i+8Qv2PDreyKRSCTKnPrll1+k3BSlSAK+aSzWZC53rIW9M563zBElJX4+mt/2P31avoonEomcT38seAeHft9mmRLZq52fLMa+X35KMsWJX6nkF8w2b94s6VCiZEvA1wl0+vgx3GhWBn/MfdMyR5SQ+Ilpd3d33WnyiSeesMwViUQi5xHB92aT0ji6Tzq8JUc7V3yEfxsUx5/bEv/IxQcffKBzx3v06CFRX1GyJeDrJCL8Htn1h2VKlJDGjBmjoZcWERHhdJ+VFIlEImrbRx/gdN+WiLyfuh1zMrp+X/UZLnSrjzu3bX/kgn08KlSoABcXF/j4+OhPX4tEyZGAryjd6NKlSwgMDIwBX9rkyZMtS0Uikci5dF0q5ilSYvftyy+/hJubW0wZMHbsWIn6ipIlAV8n1O9LP8T2mVMld8lKhFwz9NLCw8Nx8aJ8CUgkEjm3Lp0/b/lPlBxZ37fGjRvraK9RBoSGhuLcuXOWpSJR0hLwdUKdO30aZzrWxv5XnpOarEV37txBzpw540CvYVOnTrWsJRKJRM6no3t24X8NiuLPzZvkq53J0N9HDiOyUXHs/3adDgRt2bJFj/FtXQZMmTJFykqR3RLwdVJdOHMGZ/u3xrUrVyxzMrdWrlypOzPwowbNmzfXEFylShXt9HLnzo1bt25Z1hSJRCLn0+8fzsddBb/H9++1zBHZo10rV+j79ufWzejevXucaK9hefPmxfXr1y1biESJS8DXiZWSQZvPnj2rPxGdEczsyJo2bYpGjRrpGj9HdqhUqZK+P8z3qlevHmbPnm1ZM65u3Lhhc9/p0fjbikSi9Ks9Sxfj/N9/W6ZE9mrvqk/xy1drdWc2pjZMnz4d2bJlw2uvvYYiRYpo+J07d66kB4rskoBvOtHudWvsaspp2LAhPBkZdXNL18bPFM6cOVNf05UrV7B27dqYioABvoY4//fff7dMxdW7776r92XrGOnJ+L3ymjVrWq5KJBJlZnEkA/q2d955J0OYPcD65JNP6g8XGV/tzJMnD06ePKnT4Bj4aNKkCe7evauXWWvFihU2j5sejR/uEMB/MAn4pgPdunkTV1tXxs7pz8Z74I8d2I/9G3+wTEWD7/etWgFDh6Zrm1C6dAz4WuvAgQMorZbbUxFg4TC8RAmbx0hPtqltWwFfkSgDaffsl3F0z27LVFxdu3TJ8p9tLV68GHn9/dEuX750by5ZstjVunnmzBn9d9fcN3Fw8686xY3ga+jy5cs4c/yYZSquKlasiPo5csQ7dnqz0iEhGD9unOQzP6AEfNOJzp48gRMdamPHovctc6K1Y9Fc7H98pGUq44Dv+ETA99ChQyihYNYeZyngKxKJnFG/f7II15uU1LmrQGxAg+PU7pvyWKKd4Ai+fYsWRdSQITb9RXqx/6nzZ4ucPb7c0K41n+OfxiXRLqs/Tp2MBV/C4MHJj+J/NqCQ4Pt7x474n41zSE82s0YNTBg/XsD3ASXgm4506cIF3enNrL2je+NOg6IxnbsyA/j+9ddfAr4ikSjd6/fPl+HsoPaIirxvmQMcPbAf9+sXxlVLk74tZWbwpXZ/8xW2lI7A6VOx4MvRkKLqFsSZo4ctc2Il4CsyS8A3nerevXv4999/cbthMaBCKPauW6PnZwbwZSev/Pnz63uQlAR8RSKRM+u21RfKti+ai/9VDMOOjxclmMuZ2cGXKpI3OsfX0B8rP8X/KoVj67sz1X2LC4YCviKzBHzTqTa/8QoOj+kDVIrQ4Luf/yvZC750OP/074/zvXvj3qBBNtextv8GD8ZZtf7FPn1wX/3PeXS8NwcMiGf/DhyolxvHOdGjB66rv5w27zMhSwvw5TmfU9d3S52/reXWxmvnveA9uWu5h7w+bm99PzjPuPY76jgne/bEpb59EWnn/RDwFYkytpjicPLPA9g1qrcitTCcHtSO7feWpXEl4BvbuY0QeOLgfmx7aoyuMFzpWg//M0XQKQFfkVkCvulUB9atjoFebbXz4/rVq3aD79w6dRDq5QV2LKgUHo7D3brZXM+ws716oWa2bHp9jhrRNFcuXFHgtr9zZ2Tz8YlnTdRyOpkP69dHmDoOh5sJ9vTEq9Wq2dy/tSUGvvxSG8dtTKgHr1n2gu+Wdu1Q2PI55Nx+fviyeXOb6xn2nwLdAarg4b1wVduUCgnBjg4dcEfNLxsaGu9+5FL75P36QznfYkFB+jjebm7oWahQDDQnZgK+IlHG1qHt23C3QTFE1c4X7dOrZMdFq9Q2Q/aCL8HyUNeuWKbKhd+UjzMCFokZAwDrlP/7qEED7OnUKeYY+7t0wdb27eMZK/Y8zt+qMs9tVjRujL9VeWG9X1uWGuB74uAB3GtYTKeH6PtWOStOKhA250jbC770xd+2bInljRrpgIYRrEjK6PfXNGsWL4jEwNIn6t4vUfeF+zPmM+DB8oLL9qoy1N4KjIBv6kjANx3p6pUr2PXxQlzsXBf/M4DXZNtXfGwX+BJyfRV0zahaVf/fKGdOtFROJLGXfFTJkhrYtihH90ubNsihYG5ypUq41q8fPlbHNGyxAt3satmksmVxWYGen7s7nihXTjvFaVWqaEjki27rGGZLDHxv3rypx3C0biK0JXvAl86O4NqtYEEc7d4dj6hz5zUwQm1rfdqnyrnz2j5Tfw+oAqFu9uxoqO5jpCpYvmjSJM49qaOW1ciaVUd6WXlopioFPA7h2lft491atWwew2wCviJRxtXNGzewgx9qaFoqjk/f9t5sm+kO9oIvfRF9fYGAAHipSvroUqUS9fP0hfRj3mrd/GobdwWlLyk/H6X8WnXlwxj4YKXdbL8q37RZQTUDKbl8fXVFP1z9z2BCUqD5oOD718GD2PnVavzTqlKc+7b9lefjdHKzB3zZosly0F/55Dx+fvp6CPb2RInXKujlNTO4Ycw7qMoFBlEKqvuYU90XBj/OqAoBr3lK5crwVL9LocBAPVTlnNq17YJfAd/UkYBvOhEdw573Z+N6q4pxI70mOzKgnV3gO6t6dRRRL5xRO/1KARhfdkIwI7Uz1XK+7EcUnBHavmnRArUUsL1jArTuChIHFCsWM03jC/2mgrNSwcG6aZ81Zx/1chtpD4ySMuq7sF69ONvZMkeCLx0iI7d/WaLeF/r0gZ86b0Y9uG2/IkV0pITg2qlAAUxXFQbCPEHZ2AcdFx2cMW3YduU4ec2MltxW98RDOfmfWrfWy3i/WuXNq/dvvZ21CfiKRBlP/JjF9lcn407T0jZ9+oXujRH533+WtWNlD/gSYunnJ5Qpo339D6pcIMju69wZV/r100ELA4JvKN90VU1/pQAuSPkrtkwRBKdWqaKDHDf799epWYxa0ghwQ5VvZPlAX98+f34NjfyfqW2cz+G3koK5lILvxXPnMKNMfvzTsLjN+3a9TRXcu/OvZW37wJeR6gAPD31/eL86qGtqrfzzbeX3WSYYLXO8Jt4Llmt/du2Ktuo6GQQJUffNAF9eF8vIZrlz64g4g0BsUZytwJVpfyxvP1DlII8zS80L9/bW99h8PrZMwDd1JOCbzsQH/sieXfjjjen4u1tD9UaHx77w1XOhdZniSYJvf+UwOyuAM6b5IrImv7dTJx2V5cvP5jFCXtWICNxVLzhfXL7oXHd106a6dju/bt04+2V+LOd/3qRJzDTh11jOtAhX5eS+ViBtzEvIEgPf/1RBwK/32POZYnvAd5FyQDlUjdzs2Oik3lKgubFNGw3FS1WF4g3ldAixjNbeUE6KDp45vmxCrBIejj5WAEtYZiR4XKlSeprgz8gAHSGnCcKEZUK0eTtbJuArEmU8Hd35O7ZOfRrnOtTS+almeNOm5h3fv8+ydqzsAV+2rDGayMgjp+mPGMWdrfzIo2XLIq+fHy4qH81meqa7DVN+8sMGDdBf+TG2XHGbL5W/ItARks37/r1DB53CtsuSClE8OFj7UQMsn69UCWVDQh4a+J44sA+zSuXGyTbVdIe2ePdN2cHfNsVEy+0B30HFiqG9glgjHWS5AuFAVRbS3xfw98dj6p7xvqxU5VtWVRlgNJjl4ctVq2Kg+i0YITbAl2VDVgWzq9X94/1l2cLAEisMS+rX18sI1FyX5SQDIj+2bp1kdFnAN3Uk4JuOxYef4/tuWTgH+4d2xf3a+TAxwitJ8O2oarKDTdFawhsjs5sU5BFuK4SFoXhQkG4i26ZebvO2dAxsMqMz5ItvzKcDe1wBHEHZcJrmZd8pAKajJQjak2eWGPhSAcqB83PEScke8H1DFQQEXZ6nMa+yKgheqlxZz+P2TH2gY2NE27wtc5ZZe2cKx3u1a8dZ9nXz5tpx0tmZ53OfjC7zXnC/J5XzNC+3ZQK+IlHG1ok/D2LH+2/geF/lv6vljAG4PW9Mjzemrz3gyzQHBjEYuOA0/U6DnDnxqPLTDGQwLYGw+3KVKjpgwXQ0Y1v6pzcVZBVVfnFw8eJxfDr/b5I7N4aq+Tw+98tosRE44P8sQ3oULvzQwJcycnz/PnoE21QZeHSgKo9q5IkF3ymPx6Q7JAW+PI96yh8/Xr58zDkzB5fndkaBKVs7mZb2syojWVaMKlUqzj1hmWtOdfira1cdMGGrYIAlGjxOlWlsNWSloGbWrDEdmxn1ZVSd+b48D2OftkzAN3Uk4JuBdOXSJfSsVTVJ8O2lHJI5OskaJ1/SncoxcJoRXeZu9VXrWL+IjFYaecGMEhjLGQHli8+cVvP6jGoSHNmRa0TJkonmzZrNkeDLjn75FJQbDo/XVC40VDdLcfq0Alc2ZbHZ0HDuhrE2T7BlXjDX4b3kfO6rhaVwMK9PZ8ecXkaOmUvHe2lenpAJ+IpEmUOMUnK89u1LP8SREd2U/2kWL93BHvBlRzNW1s3rsFmeeb7M2WUrFv0+gx5zrXJMmd5WKSJC+21uY6Sr0ZiqxXQIIzXMMPpN5vuWU9DLlizCn3m5LeM2Dwq+hnjfLp0/jx2ffoK/xvTBpY618N/dO3qZPeDLYMfkypVj7gPTGJgacrh7d91aVztbNh3IyO/vr4NF5u2twZcRcV5XeXUv2OrJMoblw/vqPvOrpI3ZH8RyHAaCCqn7xRbUxH5PmoBv6kjAN4PJnhxfNtkwB8twAgReOjgCHF881lLpDJmQz9wm5m3R+bGHr7EPjtYQpJyAUeulEyXMGc34NC5jjhRryAQ3Y749lhT45lSOg8OaJSV7wJc5znRohtNiExQjsYyYcJq1fUa5WUiwOYrzJpYpo3vqGvs41aOHrixsVw5PT/fsqddnR0BjHTrXV6pW1RFi5jnbO5QZTcBXJMqcun7tWjwwtAd8OcoAfY1RWaf/YcDiqQoV9P+MNLLJnX6bgQvr7Vk+MC+YfowtdkZ50bNwYXQpUCBOxJPwxkimjzoegyocBchYlpilJvha68Y//+i0OMoe8OW9YaulcU//sMCrAbkLlM9mqh7LT+v7bg2+xrZM6+MxuX/eMwadXrSK+BKqGfFlh2muZ96vtQn4po4EfDOY7AFfOjE22zCJn86LEYAqqnbPl5nOkpDH3C7WbJn3RAdZNCgIj1mcAqfZIYvbGPvsVagQ2irINR+HzULMXWKTESO9hnF783q2LCnwpdM7deqUZSph2QO+7KhAiGdnAzoeDv3D5ilGb5mGwFw2dmhjikiZkBBdEeBQZkxVICRzm3mWGv0FS8SX09zOfK3svMBICUHafD+MXK/ETMBXJBIZsjvHV/lf9q3gNAErr/LpzDHldkzToo9ipf9FRjpVWcBWOfp8Y7/0TQRjDu9FgNO+Uk2zH4cZIl+rXl1HlxlESOycrI2+82GBr1n25vi2MeX4MvWAozsw2s2KAdP/WCbyOo9ZpadZgy8DHyxHWQYax2SZ0VuBL0c+Yme2Wxa/z4ATfyfmSyd2fjQB39SRgG8Gkz3gywhAgxw59LAzzMVitJegSwhjdNZIcVimnB2behjlZP4qHRTTGwh/hDw6Oe6PjoJgzFwx83FmKMfKKChfcrMtVfs1r2fLHAm+dDaMgrAyUE3VxPn3KUuuF6PfdHiEXaYlEIiZ+8tez1yP96tGtmzayT2nnKuxz4HKiXKsY/NxmC/N+8GCw3w/WPEwr2fLBHxFIpEhe8CXoFsiOFiPvvBPv346xYp+m6B1rHt3BCo/xBF8Xlfmp+CXI8+wDwM7btG/0edxBCBGcY20BZYTeh+WCj7NCIyMVNDMFi8GOmgc5tFYJyFzJvBd1bSp9ukcmo1Bj2oRERhkyW9+WpUP2X19dRnAe9pVlQsc9cLY1hp8WSZWV9uzgzjnMcjEVkSmM3BUjEB1HHaWZqdBVjb0KEum/SVkAr6pIwHfDCZ7wJfGlAQ23UyrWlU7Kc5jp4QNalv+5TRf+F8UcHGEBzoo5nZx/XcVBJvzu7gea7YcrNuYR+NwaNyftRl5sIlZUuBbQjnzgwcPWqYSlj3gS+M1MNo9VcE7nTun6dg4qgN79RrrsVbOsYz5P3PAWGjQrFM5uB6Xm+exQ4mt+2FPASHgKxKJDNkDvjQOT8YObjQGMWYrX8Vt2ufPr8cuZ2crgitzUTn0FiGNlX83VUFnpJdBkZnVqsUc54VKlXTgwwx99OdMjWOl3mxl1T6TOj9nAl/6fI52xNQOL3U9hNHjPXpgj4JWwj5b6ng9LB8Y6OAIPcb+rMGXxkAHI8ZMN+E+jaHReM2MkHMel/G3WWdJiTC2TcgEfFNHAr4ZTPaCr7NbUuBbpkwZ7NmzxzKVsOwFX2c3AV+RSGTIXvAlZDHflh2sWIHnNI3RXHNHXf7PeVzG/zliDwMdhFrOM69n7uhG4zkwkGJt9qRwcd/OAr40wi87pvHaeQ2cR8jn/8a9Nu6fOY2N2xn3z5hHYysq98VAiLmywPWOdOuG79XvYk8gyDAB39SRgG8GU2YC3z/++MMylbAEfEUiUUaTveDr7OZs4OvsJuCbOhLwzWDKLOBbp04d/Pzzz5aphCXgKxKJMpoEfAV8RSmXgG8Gk4BvXAn4ikSijCYBXwFfUcol4JvBlFnAt0GDBvjxxx8tUwlLwFckEmU0CfgK+IpSLgHfDCaC76L69fVIDOnZ+iunnhj4tmnTBmvWrLFMJSyCb/eCBW0eIz0Zx5QU8BWJRJSAr4CvKOUS8M1gat26tf6cb0awt956y3JV8WUv+M6fP9/mvtOjNW7c2HJVIpEoM4vgWy9HDqxQPoFf/EqvtqJRI/01NEeAL8eVt3UO6cn6qcqOgO+DS8A3g4nfK88M6tKlC1asWGGZEolEosyjr7/+GrVq1dKtQBnBUgJyyQHf/v37Z5j7NXv2bAHfB5SAryhdqk+fPvjwww8tUyKRSCTKTEoO+IpEZgn4itKlBHxFIpEo80rAV5RSCfiK0qWGDBmCefPmWaZEIpFIlJkk4CtKqQR8RelSY8aMwZtvvmmZEolEIlFmkoCvKKUS8BWlS40dO1bAVyQSiTKpBHxFKZWAryhd6tlnn8XkyZMtUyKRSCTKTBLwFaVUAr6idCkBX5FIJMq8EvAVpVQCvqJ0KQFfkUgkyrwS8BWlVAK+mUxnz57FwYMH0709/vjjGDBggM1l6c1OnTpl+XVEIpFIZI8EfEUplYBvJlPfvn3h4+aGIE9PMScwP3d3NGrUyPLriEQi0cPVlStXsH79ev31t/RsEREReix3W8vSox05ciTTfHk1rSXgm8lE8F1Uvz4wdKiYE9h3LVsK+IpEIofphx9+QICqdJcJDRVzEovw9tape/IpYsdIwDeTScDXuUzAVyQSOVIE3wa5ciFqyBCbPknM8fZ0hQp4acoUAV8HScA3k0nA17lMwFckEjlSAr7OZwK+jpWAbyaTgK9zmYCvSCRypAR8nc8EfB0rAd9MJgFf5zIBX5FI5EgJ+DqfCfg6VgK+mUwCvs5lAr4ikciREvB1PhPwdawEfDOZBHydywR8RSKRIyXg63wm4OtYCfhmMqUl+P43aBDO9e6NOwMH2lyeGnZrwABc7dfP5jJnNAFfkUjkSAn4Op8J+DpWAr6ZTGkJvovVcbNkyYKXKleOM/+H1q3xTYsW+v9TPXvi3Vq1UuyUZ9eogeZ58thc5owm4CsSiRyptAbf4z164HC3bjaXpYb9T13XX2r/N/r3t7ncGU3A17ES8M1kSivwpTNqnjs3vN3cUDY0VE8by0aXKoUBRYvq/wnBIZ6euD94cMzy5JiAr0gkEiWstATfu4MGIZ+fH/zd3XHN1DJ3e8AAPFuxIi736aOnP6hXDxvbtMH/LMuTYyxbigcHY3XTpinaPi1MwNexEvDNZEor8L2gHJqXqyumV60KlyxZcLBrVz1/c7t2qBQejjIhIVionF3vwoX1epMrVUKkgt+zvXrhiXLl0KVgQTxStiyOdu+ut6ND+1k5xp5q/a5q2ScNG2pHbgZfplS8oo63gmCpprnthDJl0Ettw2PdU06Y81c0box1zZvjRXXMDx18bwR8RSKRI5WW4Ptjq1bwcnODp/Lxy5TPNsD0kiqX3F1cdKSW001y58bLynen5BwFfEVJScA3kymtwPe92rWRW9X0CaPZfXwwtUoVPZ+1en6ysYRyVO/UqoWO+fNrp/iYglyCb+1s2VA9a1ZMrlwZNdX/5dS6jAZva98evu7u6F6oEEaULKlh+SsFrwb4cp2+RYqgUEAATvTogbO9eyOPOn69HDl0hDnY01ODNM+B8MwocwF/f8yrUyfOeT9sE/AViUSOVFqBL4F0eIkSaJM3r27961KgQMw5jC1dGi4KfOmL31LlAH11tYgI7dMj1TpLVJnVVm3XUvn216pXj+kn8k///niyfHnt13uosmBXx456n2bw3dS2LcYon8/0CpYpLP+4r24FC2KDAnGuw/ksF75X0x1UGUQAdyQ0C/g6VgK+mUxpAb50RA1y5sQ45dzo/IYUL47ypnSHhFId2BmOjo7gymW/KgfmoQCXHdgYGW6snDedIvczUsHvk+XKafBtouaPVfskaP9piSy/UKmSTrEwHCajDaFeXtpx0tmWVI4yLXLCBHxFIpEjlVbg+6/yvTl9fXUaA/txBHp4aP/LZc9XrAhXBb6jlB9f3KABCgYE6DLjR/b/UD6S6z6jAJf9Q0KU355TuzaiVBnB1jumTkyrUgWN1frFgoK0HzfA9w8Fwgy0sGxgmfK25bgMerAMYeodWw7vqWWMOAepsodQfszSsugoE/B1rAR8M5nSAnxP9+qlnQpr2ATQdvny6XSHQxYoTSzHd2/nznhcOa22apt8/v56PwRfgvPLlqgxjWkLzB8j+DJizP13NkUUGGUoFBiI/uo4NNbq2dGODo7gy3Mw9uVIE/AViUSOVFqB7/rmzeHn7o6LffrgdM+eOoix3JLukFiqw8omTTCjWjX9P4Mc9Ov010xd81HgyjQ17uN87966XDjQpQuKKfB9VW3PyDHXZXnCoAfLkDdUGWHsq70qVwYWK6bLDh6fYM3or/W5P2wT8HWsBHwzmdICfAmjTC1or2CTRvBlrZu1dC5PCHyPK8fGThCEXtbUF9StGwO+jN6+Xr16zDFuqnnXVU2fx+L2zNclAP+k9sflrMUzZWKm2sZs7GBB8J1kSXtwtAn4ikQiRyotwJeQyYADo68Ty5TRfS2CVRnAvhs8j8TAl5FipsEReMuHhem0NkaGv7VEgtl/xDgGAyAEV0Z8uT8GQNY2a6bBmAEYNzWvbo4c6Kj2RWOEuL6avmMB363t2zs0xcEwAV/HSsA3k8nR4EvHVUMBJ1MRjHl0UAOVE6yonBj/J/j2L1JELyP40iH+p5zXcgWETEcw0hPYgc0AXzrMTgqiuT2NucHMCyb4NlNOk8dllLdyeLjenjlePA8jkvxDq1Z6PfYmFvAViUSZRWkBvjf790dWb2+dvsAUA1q97NkR4O6ugxaJge94BckEZkZjv2zeHO2Ur2eZ8Z3y4QyoXLKAL9c9o+D2rvL3BF+26tEYJLml5p3s0UODLztLz61TJ8YIxkaqw85OnQR8M4EEfDOZHA2+TCWgs2EnAvP8lU2b6lQDdjigI2ITFEGXndZc1fzH1LztHTpoZzRJOT4OdcNmKy4jADOSy5r/sBIldIcJXzc3bFHbEnyNUR32KCfGdZhPtlv9H6CAmjlhTJFg/i+jBoRmAV+RSJRZlBbgy3QFdkZmJ2NjHsdsp3//tHFjXLSAr5H+RvCdqvw0z5HBiylMQVD/M6JbNSICoxT4HlVlB1MdGPklrO7v3FlHgDliEFMdVqljsnwJUvNerVYNtyzw/VbNmnq/NAZkpqp9G6kOAr6ZQwK+mUyOBt+dHTviGfVSs6OaeT4jreyNy84H7Lw2QsErP3DBZqrnFOSOL106ugduvXpooUCWeVj7lGPjNuzVy32w8wKbv/oUKaJ74xJi2QGOnSeM4/B/wjCdHHv3dlLrN1VOlY6QTWhcZ5kCT+aJGds40gR8RSKRI+Vo8NXBhUKFtN81H5P/V1EQy5F5GBH2cXXV0dwLCo7p10uFhGB9ixZ6dJ7CAQE6YMEObKGennoITIJvb7WMQZPHVblQWq3PVjzCsdG5jcdgmRGmgPekAu3nK1XSrYgMtjDqzIAJ0xsk4pu5JOCbyZQWOb5iCZuAr0gkcqQcDb4MYDDKauuDFATbNxmBVetwyDKmpLHzGwMi/J/pDMzhZboD+4e8U7s2flfLhpYooTuxcVQIDnXZ3dJx+rJal6D9tlrvkAJjHo/9OF5S0Mwx45lCx320zpNHB0x+sZwTo8mMKvOT+ubzc5QJ+DpWAr6ZTAK+zmUCviKRyJFKi1QHscRNwNexEvDNZBLwdS4T8BWJRI6UgK/zmYCvYyXgm8kk4OtcJuArEokcKQFf5zMBX8dKwDeTScDXuUzAVyQSOVICvs5nAr6OlYBvJpOAr3OZgK9IJHKkBHydzwR8HSsB30wmZwDfFQr0BhcvHs847IzhjNmzl1/4qRgejjKhofqrP8bg5rRHy5XTH7swpmn7u3TRY/ryAxfm+YZxcPMh6jirmja1uTwtTMBXJBI5UgK+zmcCvo6VgG8mkzOAL4E2zMsLrfLmjWODihXTzpjDz5QIDkZOX188S4dQpQpKhoToacIr95HLzw9v1aoVZ7/fKIjk99+vqu3N8w17o2ZN/dGMWtmyOY3TF/AViUSOlDOAL8dQ55BktgIgP7dtq4cY47BkXzdvjjb58ukxfWtnz66HPuM4vdzHjg4dMKF06XiBDn7enuO3c3vzfMP4wYxh6jjn02joMlsm4OtYCfhmMjkL+DZWjtfWMtrT5cvrQcb51TfDeV1W503wfUot43RywZf7qZk1K2oq6PVU6xxV+7ZeJy1MwFckEjlSzgC+1/v311/0rKZ8Mj9QZDbCLsGX8MqPSjAoMqNaNQwuVgzeync/UrasHhuYX/oM9/aO5+/bKlBmC6Gt6+Mn6/nxC5csWTCvbt0E4djRJuDrWAn4ZjKlB/AtHhSEsaombz3YOb/OZnz6OLngy09Xeru54Ze2bfVnK/k1N+t10sIEfEUikSPlTOD7s42PWtDow+mnR5QsGfPVT0IqW+383N31545TAr57O3XS8Ez4JWTzwxXW66SFCfg6VgK+mUzOAr65FbiOU3Brtq9btNA1ctbyP0ziHJMLvq9Urao/ackv9/BTlbWdJN1BwFckEjlS6QF8v2jcWPvy4z16xJl/Xfn292vXxvk+fVIEvs9XrIiqERH6K3E+bm5Ok+4g4OtYCfhmMjkL+EYoh8XvsZuNjoy1ezrEpQ0b2tzWsOSALx0gO8kRrpkyMb9uXXip9ZhKYV4vLUzAVyQSOVLOBL7dCxXSqQuGPVaunM7hnVa1KgoGBuLOwIE2t6clF3xZtpQKDsYMte/LCpz93d2xwEnSHQR8HSsB30ym9JDqwCau6co5Wc9f0qABXq9eXf9fNCgIr1WrFmf5mmbNEOjhob/fbp7P0R4YRfZVji7Y01M7PHZye8MJ0h0EfEUikSPlTOBbI1s2tM6bN8YIrYRddmgupnz8XUuagy1LLviyMxwDHlvbt9fHb5QzJ1o5SbqDgK9jJeCbyZQewLd9/vwoHxam0x6MeYwC0BEyIsDpBjlyoG+RInFq64TlAgEBMb1+DXuhUiUNyrs6dcKezp21tVfOsU727Gle2xfwFYlEjlR6SHWYW7euDlJYBzFuDhigy499yoevbdZMr8OhL83rtFQwO6pkyXjX90T58nBVxwxR27DzNDs5E4Stt08LE/B1rAR8M5mcBXwrKLBlZzWz/di6tQbRn9RfRmjpvE706IGTPXvq8XcDPDxwxDKW78zq1XUE94smTXBJXRO3z+7jg5ElSsQ5Fnv/Mrf3cQswG7ZMwSad3vE0TncQ8BWJRI5UegDf3R07wkMtX9awYZzlq5S/12lqqlxgBJfr8K+xjhEgmVq5cpzr4/yigYGYoMoeRny3KWM54+vmlujQZ44yAV/HSsA3k8lZwJepBtbG3roEVa7DPNwgVTN3VfNZS8+qoHZ106YxDur2wIHoWrCgHpaGjpDb18ueHResau+7O3XSEE1HZ55/oXdvnfLwjlWesKNNwFckEjlSzgS+7yr/+1u7dthsstO9eulza5Y7N/L6++OHVq10pJfAWljBa7dChXRrIMuAwgEBenSG0z176vHfJyvg9VIwu0Wtawbm39q21eXE3s6dY+azLGmi7kObvHnTPN1BwNexEvDNZHIG8KVTI+DGMzXfAFv+pbOjI2SNnrle1rVyTjMazKgBv+pmy5FzHe7b1rY8Xlo6f5qAr0gkcqScCXytgx+0FytV0ud2tndv1MuRQwc3mJbAZUyRO2caiYH+ky193JdOXVDQy+3p883HY7ClfGhonPQ52ls1a+rRHa5Y5Qk72gR8HSsB30wmZwBfsVgT8BWJRI6UM4AvAw+M0NqyO6Y+Ghx+ck+nTljXvLnO6+W0eT80DnHG4AdH9eH4vtZBDhq/7mbrU/bcH48pEd/MJQHfTCYBX+cyAV+RSORIOQP4isU1AV/HSsA3k0nA17lMwFckEjlSAr7OZwK+jpWAbyaTgK9zmYCvSCRypAR8nc8EfB0rAd9MJgFf5zIBX5FI5EgJ+DqfCfg6VgK+mUwCvs5lAr4ikciREvB1PhPwdawEfDOZBHydywR8RSKRIyXg63wm4OtYCfhmMhF8+Qlfjo0rlvbGD2gI+IpEIkdJwNf5TMDXsRLwzWQaO3YscubMKeZE1rVrV8uvIxKJRA9XBN+a2bPrMW/5lTSxtLexpUoJ+DpQAr4ikUgkEmUSEXxdLV9CE3Memzx5soCvgyTgKxKJRCKRSCTKFBLwFYlEIpFIJBJlCgn4ikQikUgkEokyhQR8RSKRSCQSiUSZQgK+IpFIJBKJRKJMIQFfkUgkEolEIlGmkICvSCQSiUQikShTSMBXJBKJRCKRSJQpJOArEolEIpFIJMoUEvAViUQikUgkEmUKCfiKRCKRSCQSiTKFBHxFIpFIJBKJRJlCAr4ikUgkEolEokwhAV+RSCQSiUQiUaaQgK9IJBKJRCKRKFNIwFckEolEIpFIlCkk4CsSiUQikUgkyhQS8LVbt/HnZ69iwdY7lml7FInDy6bhrZ/Pq/8eVLdxZO1rGNenLRrUbYBW3UfixblfYc+Fi9g4dRLm/vngR3joirqC7R88iSEDh2Jon+YoVyAfStbphmc/P4x7llVEyVTUDRzfvBJzXhiODrUb4blNcidFIsdJlQufv4aFW//F/yxz4uneRez/8RO8NrEb6td/HBv+/Z9aV5UNy6fj7Z/P4X6CGyaiyMNYO3sqpkyZEs9eenkGZr+7EMvXb8fxf+5bNnCUInHjxDasXTAVYzrXQ71Hv8W/USm5QMco6uIqPPP0FziXoh/B0YpS93YLVr33IkZ0rIPGz/7s1PfWmSXga4/uHcNn49uh16xtuG6ZZbfuHcXykW0wYOFB3LXMSrYij2PZoJII8MqLpo+9j9UbfsDaxTMxsVVh+LpkQRa33Bi6PsV7d4yiTuGzQaVQvNfHOKrZLAqXv38UlQJc4RLUGUtv6rVEyVIULvyyCK8+2wUlfV3Uc1AQY35y8udAJMooUuXC5xPao/esrbiWIH/cx4GVM/BU93IIdMsCt1yD8ZUGXyVVNqwY1RYDFx7AnRTwy71rx/Dza62R0129+1lcEVSpD56dPgPTX3wSo3s1QYlQD7j65UXtAa/jx7ORCYN5Kiry5AbMffV59CofAFcXV+QcuBa3nRbOInFkZgME+FbH1L334OwMGXVhEz58/Tl0Le2v7q0bCoza4MT31rkl4JuUIk9iWb8KqPfCFqSYze4fxaLuddD34+MpiPwqQFzWHdlc3VF0zA9xzyHqKrbNao1c7j5ouyjZSO5AKUBb2g3ZvWpg+mHzHYjEqfWv4enXv8XpKMusdKcoXN29E8ds/bDq99m981gKfvNkKvJPTKvuKeArEjlKqlxY3r8S6r+wGf/YwR5RJ2ahvrcL3M3gS6myYXHPuuj30dGURX5vLUWXQDe4ZPFAtZcP4j/TPiLPfYdHqhBAXeBf5QVsNR/3oSoKx2fVh4+rm3OD772teLKMN9xc3FF41Pe4Yc95Kp++Z9cxG7+VKgf27MIxteDhXm0kDr1SS91bdxQU8E2xBHwT1X3sn9UQOapNwa4HbEGOOjUfbfPXxks7kpMqQd3B6n5Z4ZrFC83ev2iZZ1LURXzWOz9qKKfntMkOURcwr6UfXIN74NPkXr6TK/LER+heaRDWxruuSJz4qDsqDVqrfsGHrKgTmFnXS8BXJHKIVLkwuzFyVZ+MP+wM1UadfguNbIGvUtSpBWhfsA6mbLudfGi6swr9Itw1+NaYfigO+FI3V/ePjgi7ZkPflTccFNWMwrl3mzg9+F5fMwgFw0MR6JoFruGdsOTc/STuv/LpH/dE1cFrcMvqmiJPfIxeVQdjza2ohwy+UTg5uwF8BXwfSAK+iSjy4Cw0CA5Hl6VXLHMeRLewfmg+BCiI3pksiL6Njzv6KcfmirC283HSRmT07k/j0WjcDylPpXjYursBo/K7wTXHQHyZkcD39h+YXi8Y7tkGxAPf239MR71gd2QbIOArEmUkRR6cjUahEejyySX8z07uSAx8WTZ8M6wAgqpNxu/JzXkg+GZNGHwj901BVS8XvbzmjMPxlj8cpQPwjTqDBe0Kot07SzGqiCdcXXxQa/p+3EvkXG/vnIGGYZ7I3n9VXPC9vRMzGobBM3t/rBLwTRcS8E1Qt/Dt8AJwD+6CT65ZZtnSzQNYNfspjOjdEe079sLw5xbgl9O24ePOukHI5R6GjkvOq8fXXt3H3hcrwYO5vK7BqDJhDU5a91eIuoxjx6/G2eftk5vw0UujMGXtVdw//xsWPD0QHVq2QfdRz2Puj6dsdia7f24zlrw0Br07t0XLFu3Ra/QUfPjbOXUGtnQf5zYvwUtjeqNz25Zo0b4XRk/5EL+pWnOs7mPfshfx5KOdUIrON6Aiejz6BJ54wrDHMHHscAzo3hUv/Wi+Z/dx9eB3WPDCcDz3hbpX905gw3vPYliXdug06Dks3Ws76STywhZ8+NJ4DOrWAR36jMIzry/Bd7tP40YKQuH3z2/BkqmPYOy40RjUvRN6jpqGz/fHHjfq/E+Y2iK3/l1c/MujG6/ryRexbN89nP9pKlrk9lCFjQv8y3fDo+pan3xxGfYZt+b+eWxZMhWPjB2H0YO6o1PPUZj2+f4EUmlu4sCq2XhqRG90bN8RvYY/hwW/nI5bybEBvlFnf8PHsybj6Sd5n5/EM1Nm4qPfkvPciUSi+LqF70YUgmdIF3x8JaFm7Uic37Ycs58ehp4du6Df+Fn4ZutMNEwQfFXZ8PVg5PEMR4fFZ5OX8pAE+N75bgTyebggi0sg2i++bDPie/f495jz7Gj0ad9a+ddH8PKSzThvdRK3T/6Kj6eOxpQ1V/Dfud+w8JlB6NiK5clzeP+Hk7gbZ/XEwff++a346OVHMS7Gt76Mz/bdiKlE3P/zc7z89FOWMuJJPPX8a1i67TIi9fLb2L9qJl586kntbxdv/8fuyodZkQemoXaRgVh57R72TKkGHzf12xQZh59u2wLXKJzfOA2t8nrBlT69XFdMepw+fSl2//0TXm6VF16uLAfKoeukx/G4Oq+le+/FXg+vd5rV9e5N4LxvHsTqN5/ByD6donni2fnYeMrccdIG+EadxealszHlGXVPWNY8MwUzl/yKsynKnckcEvBNSNeXo1uoKzxqv2Y7f1M9gBd/mIJWZatgwJyfcez6fdw9Nh8dsrnCNbQOpm69bVnPpMvz0crXBT4N3sDxZBBI1LlP0Tc/QUrBr4sHstYYgXlbL9pMbYi6+ivmjGiAvAo0s2TxRN3xk9GhZCFUrFcXFfMGwp2g5p4Lbd47YALaKJxeMwHVchRGh5k/4dSt+7h+5Ce8N6gcAtxDUHX8apwyHyzqNNZMqIYchTtg5k+ncOv+dRz56T0MKhcA95CqGL/6lOXclAPc+S3WrpiIqh7quIGN8NzKtVi7dg3WrF6J5QueRtOcbgroQ9DzM0tcNPIw1kwdgKrh0XlrtZ6cjydaVkP9Dn3Qq1lxBLm6wC2iHRaciHv19w7OQ8f82dBg6hZcuX8LJ756HNWCXNU9cIFnYDiyZiuEwavsi73e2TkTTXP4ofJTv+Eaf6c7B/Fu6wi4hzfF2wejjxt5die++/wRVFPX5RrSHC+t/Rpfr9+A3ef/w9md3+HzR6rBI4srQpq/hLVff431G3bjvN7XTsxsmgN+lZ/Cb9E7x8F3WyPCPRxN346brhJ18QdMaVUWVQbMwc/HruP+3WOY3yEbXF1DUWfqVlUEWJRAxPfmj2NQLLQc+r65EWdksAeR6MF1fQW6K9/kWftVHLEZPr2OzdObIU/eppi87jCu/ncX5357Bz0qhMNfwVGczm1mXV6ANv6u8K0/G0eTAyyJge+9Q3i/bXbl8xXU5e2PLy5aN+XfxYHFg9Gk3eNY9OMu7N+9AXMHK5/v5oH8nRfgkNpZ1NXf8N7IhsjnTV/qiTrjXkSHUoUt5UlQdMVflSet392HezE7Txh87+yahea5AlD5yU3KT6v5yrfOaZsNnhFN8Ob+/ywwGImzq4egmKc6pnsxTPj5thWwX8aCNqEoPvpbXLFF8knqDn6eUAplH92kR0WIOvUeWoWo8sY1K7p9csFG5UCdz67v8cWjNeCtrimk2WSs/mqd9umn/96J7794FDXU/XELaYbJq77COpYD56I7E97ZNRstcqvrfeIXXNbX+yfea5c9+nr3mTvUKZ74cSralq+KAe/8hCPX/lM8sRCdc3rALbQ2pvxmpKkkEPG9+RPGl4pA+T6z8cPfd2zAu8gsAd8EdPe74cjr5orwPittNlVHHnoXzSOyot3Ck+pRNHQLXw7KBbcsbsg15Ov4qQf3fsGEospJ+bXCfBvpuonp9p556FXcPxp+lbl4ZEXVQW/j1wu2CPo6Pu4YpNZV4FXzSXx71oK4kWewZnQ5+Ctn5RrcCvNORW8buZ8pHR4oPHqDugKTFIS+2ThYgVYw6r++3wLKkdg/qwGCPQpj9IY4a6vV30TjYAX+wfXx+n5T5PfaArTyUscM7Y0v4tzMi3ivqQI21zD0WWlecA+/TioGd3X+gWWH4JNDlmVRF/BRp3C4unii9mtHYyEx6hTmtgqGW3A3rIg5pXvY+nhJtQ835B/xfTLSDe7gi95h6hiB6LI09vquL2oHX1XpqPTi3tgKw9V5aMHrspHqcHVeC3ip87dOdbjzRW+EKXgP7LI09l5fX4R2qkLkUelF7DV2HnkI7zaPQNZ2C+Okt9z6chBy697hQ/C1seN44BuFa5tfRcdG/TF/d4q7ZIpEIivd/X4E8nu4Ibz357gdL2QXhQsr+6OAd0EM/epqnIjejXVDUMBDVdoTAt97mzCxuCdc/Vpirqoh2w0uJvCtPu0Abt+8jFMHNuPLhS+gbxUFlArUgkv3xDvbrseLMN7Z8jQq5myJ946bgPjGVxiS10NBYAS6fnLRAlvX8UnnELi5qPKkxhNYf1oBKmer8mTt2AoIVP7MNbgl3j9h7Cch8L2DlX2zwt01EJ0//icG+q4v7qBg2xMVn9+Fu8bMyGN4u6ny6a4+qD3jQFygv7kaAws3xGt//Wcqe5OhK5+id8F6eGW/AZ7X8EXfXAriXeBX7zUcumf7/l9d0FoBpxuyWac6XF2A1r4KfLP1s0p1UNfbLxs8eL0fXbdErNX1ftgRge5xrzfyLwXf2bOj3fxj+C/mom7hq6H59G+Ya9CXuKV3EB98o65twetdmmDAvJ24bj4vUYIS8LWpKBx/vS48s7ij+CO/2UgLuKkB1yNHf6yOy36IPPElpowcjzlbbIyyEHkEM2p5qFpsYYzbmIIQ3I19WPp4CxTyYzSXAOwCz9zN8dJG5aAsq0TrDr4alAOuqobe8K2zcZfdUfBdzB1ZXLzR4I2TaoZ6uQYrWHfLi+HfxUN1DVq5NGgNwpe81ltfYXAuN7jlHY74q5vAny+qZW7C4HsV81oQfMOtwPc+9k2uBA/lzEs/td0UmY7E4VdqqvluyDdyQ2zF4sZH6OCvCpU8w/Ct6Zzub3sSpT2ywKP6NNg/zLE69vs9UbNWb8yNyU1QFY8V3RHs4oa8I76LPW4KwPf+vvfRs2Yt9J67L/a6bq9A92B1/nlHxNzTmwRcjxzov9oKXCNP4MspIzF+zpbYofXigO8tnFozES3aPIfvdYhZJBKljlS5MLM+vFUFuPikTbhjTZL3d+L5St7wYJP5nbhwG3XqzURyfJVU2fBqHS+4eBTG2B/v2G4Gt6UY8HWBT3h+FC0QDi+mxalzLNT+BSz69gCuxLoxk65iabdweFcYg+U//IiffvrJYl/imTq+quLvquH+pgapO1g3JBfcXTxVmfF33FSMO5swqYQnXFR5Un/WsZiopG3wvY/9c3ujdu3eeH9PbCrA7U97IszNHXmHfxMnOnz9yyE6TcO96Dj8aALK65/3RdFWc3AyRU35UTjxbnPka78Qp03b3900CSW8XOHqURyTfrGOMEcr+eCrrnden5jrNTa5/WkvhLur6x223rKfmwpw88I7Zz98cT3usHORJ7/C1NETMOe3qzH31gy+/5xYg0dat8Nz355J2aggmVQCvjZ1H9ufKq3Bq/xzu2IBxdDdbzEstxs8as3AEbuBSinqHN5p7KmcUjC6f2ojFcJO3Tq0Cs82zxft4BQAuwZVx/O/mQHprgLfnBp8G71zLi74qmU/jikYDaeD1wH3fsb4IgqEPSrhxZhwo0k3PkGnIAXa7kUxcdM9tfp4FHFXMGmOTpp045NOCFLn5V50ImK+pZBs8I1U4FvZBvhG4fSbDVSFxCqifn0R2vq6wMW3JeaZI+k31HxV2CT7dzLr7hls/uhljG9VVN1vK5BNAfjG1V2c2fwRXh7fCkW9XEz7uYtvh+WGm0ctzIgz/FsCigHfXGg5uCOKRDTDuycEekWi1JUqF54uq/yAKhee/cPUtB+t+3teRBX1Hns1n4vLVuSUeOc2JVU2vNvUGy6uwei2/KZN8LIp61SHu/vwZrMIuDG9IXcnLDpiic5a686XGJzTAz4l22L0uPEYPz6+PfLWj7ii6fSuAt/cGnwbvnXaCrDu4qdxheHhEh3siNQnnnCqQxwp37rl42mY0LoYvF2Vr+y/Oi5Q3t+DKVV94eYWhg6LDbC7iuU9i6Pzhyn88Mf9XXihaiEMWn0t7j2OPIDptdSxlI/P3nMFLtk45+SDr5X09U5X11tc35ts/VbhJqO4d7/DiPye8Ko5HX8mEG2OVSz45moxEB2KZkWzt4/iv4TuscimBHxt6h5+mVAU7sqZVHhud3zwvTAHTT0V/CUbqC7i/WYKUFyC0G1FysFXK+oCfniuHsJdoyO/PtVfxr6Yc0kMfKNwSr04ngrKwvqsVNXPZegaSLAthSe22ohC39uMx0ooMHYNQ29FrbeXdUUgwbbUE7C9+mMoocDYNcwEuQ8bfCOPYHYDf7i4BKDJOydirjfyyAzU8vBUhdSO+L9hEoq6tgfLXxiITj0n4Z3vj+KyjvimEvhGXcOe5S9gYKeemPTO9zh6OTriG7ufC5jTVFWQkg2+OVCjXgl4sxDq8EECuekikShluodNE4vDU4FvhWd3xgNftgqFuLnCt/2H8caETRJ8Vdkwt4WPAt8gdF32AOCrtos6vQJ9C3gq/++KwGrP4dd/4h8v6vwcNPN2g3fz92xCXlwlBr6qPHmjkc59Dev9uV3gG3VtL1a8OAidlW99+7sjuLSCEV8CpRX4cj+LOyHC3RXeVadg910FhZc/QtdS/fD5laQA0bZufTcChXx94OfnF9+8PeCqyjYX/waYffheTDliKKXgq6938mB07qWu99vD+nrD3U3ge+F9tFDbeyYTfHNUr4sSPq7qmWqP+TzflNyQTCoBX5u6jz0vsKndHSUf3xIv1SHq7NtopMCX+Vrr4lFNIoo6hTca8EMD+TDie1ObfCK699t7ePOnBD5OEXURqwfmhxtzfj3rY3ZMMmji4Hv27UbRaRyPblaOcy0GZHPVUehusQmysVI15OcqeEQ3o/94V60+ANnYgzVOPm2s7u96DhU81L0pOAYxAzU8bPBVun/0EwwuEwT30Fp4ZOkW/HlwI97qUgYlu76NP2ycZ2K6ueMtdCgUgooTvoORQh2d6pAK4HtzB97qUAghFSfgu9idxwXfqLN4uxGfk1wYvO7f6HUSkznVYf0WTK0dBFfXQNSYvDU23UQkEj2gVLnwYhV4uahy4bHf4n1t7eaHHeDn6gLPujNx3CocmXTE9xTebOQNF/d8GP7tvylIdYjbue3aT4+igh/9ugcK9lmGU9bnc/YdNPF2hUeJR/GbVVpGfCUOvmffIeR6oPgjvyYJvjd/fxudioSh4vhvYj4THJ3qYAt8lW5vxITinnBxy49h66/h7MJOKDfia/s+NmEt9hHpnBd1Ehi2LOrcYnQKV/dS3bNSj/8W73PAKQHfm7+/g85Feb3rY0ZZiE51iAXfqLPvoqna3j3XQKy9mdQX9sypDl/h16l1Ear2FVj9Bfz2T8oqA5lRAr4J6LpusndFdvXiWjGNcjbrMCiXmwaTfiuvWmaadRPb16zHceuI2/09eL6ih4LUWphhZ6j43q+TUKHeKziQwOp3VvdDVkZ9PWrj1aPGSomB731se7I0PFyzod8qhUXK4b7VyEc5TncUGf9z/Hzmuz9gdAE3uAZ3wsfqUqNOKQfuwwhxEYz/OX7I9+4Po1HAzRXBnT5WWGuRA8CX25xeNQ7tuj+CF597Ak++MBtLfjoWO/KBvbq3GU+UUr9RQAd8aBrGLinwXWP1kMSC7xrT83MPm58oBQ+XAHSIu3OriO8drDNypfuthK1RpG9uX4P1xgMWJ8f3Du4ffh+tVWXGxbMohqyWIcxEotTS9aVdEKLgJ/uA1fE6t93dMFJ3YHMN74alVhHJJMFXlQ0vVPaCq2dNvPJXAukJtpQA+LIM2DOzEcLdlK92DUG96b+r87Usou6swYDsajv3Yhj/000boH0fhz56C5+fIYglBr6W9A+3bOj7hdFhLQHwvbcFT5VV1xjQHosux96fRMFX+fVDMxsgUC0PbvESXmxdGZPijfJgnyIPzkDd7M3x7vGE7u9NrBuaH54uDGr1xeemc6RiwXdlguC70gy++nq94aau94NLsUBrDb648zWG5vOEq+KJPp9djOkEF6ub2LH2G12ZUpgcJ8f31r3DmNcupyrPPVFk0Bc4E6cXoCghCfgmoKjjs9FAAZ5ngzdtfE73OtYMIJi4wKNQb3x8xIxgd3Bw8WD0n2WMgmDSnS8xKIeq2RV/FJttpAnYUtT5d9HEJytavnMgPpQqXV3SQQG6cqjFH8FvMSuYwPdtq85tkQfxcnVPVdOfhF80ZCkntaQTIhQ8uxcchQ1WpBj55zRU91Qv2Yhv1eunFHUOSzpFqH1bepXqtQxF4s9p1eHpXhAjvjXlHF+bj5YafHtZge8VC/hGp1HEKqHObWxWswW+kTj56RA0GvwZLj4g5UX++TKqc+g15awWm+o0F+e2gLcC36zKOcec6c0P0Z65xYFdsczqvt38sD181e8S2HVZ7D2K/FPdew9kUeDbPu7O0UIViq5Z+2O1ZefX1wzQoze4eBRC74+PxIH8OwcXY3D/WYgZOCMO+HLNKJz9rC/ysxDO2hJz/oz3JIpEohQo6vgbaOTnCq8Gb8SLouL6avTn+N0ugXoUHHMqROTR11DXywVuOQZijSLQeHhyh52G3eGh/PivSUZgTbr9GXqGRg/9WHXq/rijH0SdxCc9OSqA8iNexTB0tWmM4KiL+LhLhIJZF/iWn4Bvz5sjjcp/fP0o2g1fYRnP1wS+b1p1blPlybSa3vAsMREbY8bANaLAccGXZUlNb1cFvu0UCMYC4sV5reCnwDarquTHB1+la+swtJCHAkNP+FV8BjuY8mBZZL9u4vtRRZGt42KcS4Sa7219EmW8XPVv2PjNI7hnKk9uqnIy0M0VgV0+xg0znd5cgk6BbnAN7IKP/4m9j5GHpqOWcb0XI9VdidbF+a3hz+vt+0U0+CqeWDs4r/qdFE8U7IkPD902VUTu4M8lQzFw1l7LCBBxwZf3Nurs5xhQSAG2W1a0eHt/7MgYogQl4JuQok5hTvNAuGVXMGIjbBh55H20zkqHo5xZcFE06DIMjz71CAa1LIUiTV/HrjiAF63IAy+hqoeCuSfip08kqLvrMTS3Oo5PSfRbuCt6XFmLOM7rY5X8FBzlR58VZ2JerFjwdUOOtnOwP+ZcbmPP262QM6AcJn5vAq/I41jSLZ8edqXWlO2xzeORJ7CsVwEElZuA9ar2ayjy+BJ0y6ccUWAtTNke25geeWIZehUIQrkJ62FaXRUWr6MOYdK3LRaZPwYSdRyv12VnP1+0Xmg6H3V3ooczc0exR3413av72PlsOQXErgjr/UUsUN7dgJH53OGVuya6DRuPx55+DpNfnoGZb87BwuXrsf2k/Q3+URcWoi1zntU5lR26GL9s/wVfvDEBPRsU1cP2eNd8AT9s/BRfkzrv/YSxhdwVcOZF72UncO3kd3h3/kY92sK9n8aikHsWuOXtjWUnruHkd+9i/o+HsbBtoH5mfMsOxeJftuOXL97AhJ4NUDRQOVvvmnjhh4349Ov96mYewfuts8KNOWduwSjaoAuGPfoUHhnUEqWKNMXr5geMlZlqTI3gyBzG/Gv4YWIZBesu8Ck1DCtPCfyKRA8sVS681zIY7tn7YeVNa0CN/pRxmJuqDPuVRK9ZX2HXmX9w7ch3eLVHaYSwIuteCB1fmo/VO6+o6nqsIg9MRXUvT5R+nCkU9oNL5LGZqKfgykX5+nzDvrGMwmDS1Q2YUNZXlQVZ4BrRENN+uxIDVXd2TEZ1+h36o/z1MeDJaZj52hRM6lkDhSoOwxd/G8OTGeCrypM272BvTOj4Nva+0wa5g8phwrfmj2NE4sDUavBS4BvcbRn+sSyIuvAB2nO8XOVbywz5ABu3Kd/65kT0algMQeqeedd4Dt//uEL5VmM8X0ORODK7oYJOb1Sfui/Rr6slpHt7pqF2oDdqTjsUB2bjSZUlowsyP9oF7oWG4itT1PfexvEoqqDYLW8vfHL0Ck58PwcLNl7D/+5uxPiiXnB1z4teHx/FlRPfY86Cjbhy/gN0MK53sLrerT+brtdVX+93luu9f2Qe2uVQZarmiSKo33koHnlS8USr0ija9FX8HhNJjsSf02uqSoU78g5dbxniTHn7Hx9BeT8F34oThnx2HHeT8QxlRgn4JqKbG8agqGd+jPjeBsUqXd8+B/0qRehBvPXYup45UGvkQvxhptMYReLYrPrwDW6OOcnpcc8h0OrkRo3ufdCuRnEUr9IcXQeNwNDeLVE+m6oB52+EScsPmZrTKQN8PVCqXW80qNwAXQcPQc/mlVG6chdM/f5sHKerde8Y1jzXHqXCIlC8aX9MemoC+japhrp9Z+FnG2MF3zu2Bs+1L4WwiOJo2n8SnprQF02q1UXfWT/H5MXymk/9NBdPtytsGWLHD8U7PoP5v5zBvaPf4q2nOqCot4JMOt5iHfD0os1qk1PY8NYY1M/hpue756qPUa+sxP7b5/DznLF6Pscydg2uhH5TV0cfJuo81j/dALn0RzuifwuzufjkR5tZO6yi0wnpDv6Y1QK5PaPPyzOsDDpNWY+TpxajQzhz5twQUfcZy1Bh97H79QaIYHOiizuCK0/AV+csF39/N15vwN7VLOyCUXnCV+CiO3/MQovcnvoaXDzDUKbTFKw/eQqLO4RHO72Iunjm+/PR+7i+HXP6VUIEv7zEa3HxRI5aI7Hwj2uWSk4ULm7+AC8Ma4A8eh03ZK87EtPmbcDxe8ex4bXOGr55HR7ZK6HT+Pfw25WYH0ckEqVAN38Yi+LeBTD8W3NkzqKoy/jltS4oHWL54JB693wKdsAb66ajYUAoijXsh2fnfoODV80VUVU2KLDzD2mOd49Zf2QiAUUexuqXx6FrZUZtLX7OtyAa9H8EM785GScqe2fnDDTQUWHlN4NKou2Yudhyg9AeiTPrn0frotEfNtL7cA9FuW5T8fUJczqAAb6qPGnbK7o8GcTypArKqPLkpW9j0x+iLmzGkqnDUTcnIY7HK4vuz76JdX/xuu5g5+xWyKtAPdq3lkbHyetw/ORidMrG3FrlW+s8pcedt74H7KhcN6wx3jhq5/2J0X3sXTIOTQt6a//qVaAxhr+wAnvvWVdaonDhl7l4dlgj5FdwG+1v3ZGten/MMIYKu78Hsxpnhwcj6MqnVxq31jIk2n3smdUY2T1YPqhyoNI4rDltud43Wls+/mG53hfV9Z7g9bJlIPp6vzkTfU3Xd7yPAVU59rLlt1A8UXP4fOy4Er086uIWLJ48Ao3y8QtyWeCWvQ6GT30f3x+9g2M/zETXohxWTm3nkR0VO47Fu5suSYe3BCTgm5iiLmLNoMLI3fuz2HzVeLqLi4e249ct+3DmZgKJuNTdbXiqfAQavKZqrJZZ9ikSJ3fuiv7ql9LdC/vx67er8NkX67H54DmoiqANxc3xvX/tKHZs2oqDF+NmxdrU3Ys4vONX/LJ5F45fSzpKePfiYez49Rds3nUcdqz+cBR1FZtnDsSgNzfhzz1b8NPXq/HZ0o/w4QcLMPfd1/Hi2LYombsTliT8I8bT7bP7sH3ncVw3/aR3zuzB1t2nre75PVw5sh2b/1DXb/3z37uCI9s344/j1+JWNG6fxb7tO3E87s6xZ+tunLbxg969eAjbf92CfWduxt2PSCRyvFS5sHZwUeTp/SkuJxRZU+/4/i2/YNP2I9Hj6N67gFNnbQdQWDY8XTEbGr66J16HOYco6iZO792MTaoMO3XdlhOPm+N77+pR/K7LkwSuJwndPrsfO+hbTYe6c2YvtinfmlARenV5TxTv+AHOxMmzSAMpn350xxbl068q3DVLlQNHd2CLKgfi1GmUjOu9Zjr3hK9X8cRfO/Cb+i1O37D1W4hSQwK+Sen6L3imTi08/suDfAHrHva+2hDF283FIYc8y4l1bstououdr9RDjtozcChBKryDLwZ1wxwjGisSiUQPouub8Gy92nj8539sdAxLjlTZ8FpjlGz/Pg5aj4/mNEqsc5sDxK+4NS+NYeuuSwRTlCoS8LVDUWdWY0zLPph/wI6IaTxF4sSnw9Cow2uw9TG3h6NEOrdlNN1ZjX5ZXfXg3wcTqFTc+fMDDBu+IP4oGyKRSJRCRZ1Zg7Gt+mL+/jvJbH43pMqGz4ajccfXsPlaMjq0OVyJdG57SLpz+nf8vPkQLt25i2Mf9UTxGi9iZ4o6tYlE8SXga6ciz36HlwYNwZydyYHfSBxZ9hiGvbgWJ5KX3/CAuoVPu4co8GVP34MZu3n8/m5Mrc6PV3giZ/XeeOL1efjos9VYu+ZzfDx3Bp4Y0AqNukzFjw863INIJBJZKfLs95g6eCjm/JFc+FVlw/LHMfzFNTh+19lx7hY+6xmmc3yrvGQ1csTD0L2NGFeEOdIu8PAPgI93GTyy0RgqTSR6cAn4Jkv3cS+ZqQr37zs2Tyfq7CZ88EJPlA+OTqj3yNsUE155Fyt337CskfEUef5nvDm0CUpm91PO2QUu7n7IVqg86rYfjumf7cFVYV6RSPTQlPxygXJ02ZASRZ39FYte7IUKHJ1AlydNMH76O/hi14OmeCSiqDP4fFgpPfKBV9YqGPrRgbhjEItEDygB34ym+7dw9cplXL5stiu4fidz0F/krau4dltIVyQSiR5YaVaeROHujRvIJMWWyMES8BWJRCKRSCQSZQoJ+IpEIpFIJBKJMoUEfEUikUgkEolEmUICviKRSCQSiUSiTCEBX5FIJBKJRCJRppCAr0gkEolEIpEoU0jAVyQSiUQikUiUKSTgKxKJRCKRSCTKFBLwFYlEIpFIJBJlCgn4ikQikUgkEokyhQR8RSKRSCQSiUSZQgK+IpFIJBKJRKJMIQFfkUgkEolEIlGmkICvSCQSiUQikShTSMBXJBKJRCKRSJQpJOArEolEIpFIJMoUEvAViUQikUgkEmUKCfiKRCKRSCQSiTKFBHxFIpFIJBKJRJlCAr4ikUgkEolEokwhAV+RSCQSiUQiUaaQgK9IJBKJRCKRKFNIwFckEolEIpFIlCkk4CvK0Hr33XcREBCA/Pnzi6Uzc3Fxwf/+9z/LLykSiUQPV40bN9Z+J0uWLGJOZP/995/lF0odCfiKMrQIvkOGDMGdO3fE0pH9+++/cHV1FfAViUQOE8H3k08+wd9//43Tp0+LpbGdOnUKHh4eAr4iUXJE8B0+fLhlSpReFBUVJeArEokcKoLvt99+K37HScRyQMBXJEqmBHzTpwR8RSKRoyXg61wS8BWJUiAB3/QpAV+RSORoCfg6lwR8RaIUSMA3fUrAVyQSOVoCvs4lAV+RKAUS8E2fEvAViUSOloCvc0nAVyRKgQR806cEfEUikaMl4OtcEvAViVKg9A6+ly9fxt69e3HixAntBB5UdOgcqof7vHDhgtM6eAFfkUjkaKUX8OX5Xbx4EUeOHNFlRGqcL33umTNn9D7/+ecfy9y0lYCvSJQCOSP43r17F+Hh4QgJCYlnc+fO1etwHNthw4bB398fXl5e2urVq6fHNaS+//57vf7Nmzf1tKF+/fph8ODBlqm4Ijw3adIE3t7een++vr563du3b1vWcB4J+IpEIkcrrcF369atyJcvH3Lnzh3Ptm/fHgO8PXr0QFBQkPbj/Mux6m/cuKH3MW/ePNSqVQuRkZF62lDz5s3x2muv2Qyg/PXXX7psMMoblk8vvPBCqgNnciXgKxKlQM4KvoS6SZMmYeHChXHswIED2rmNHDlSO6H58+fj8OHD2hkXKVJEwy8d2tdff62/aGMNvp06ddJO0Vr8KETlypX1Prgt9/nBBx/oYzz55JNOB5gCviKRyNFKa/DduHEj3NzcMH36dLzxxhtx7OzZs7h//74G1Fy5cmHJkiXYuXOnDpYEBwdj3Lhx2m/OnDkTBQoU0OuaVaFCBTz77LPxwPf69esoVqwYSpcujTVr1uCPP/7Ayy+/rIFzzpw5NkHZURLwFYlSIGcGXzpYWzp58qReTug166effoK7uzsOHjyYbPBdtmwZPD09sXv3bsucaE2dOlV/HpgRZmeSgK9IJHK0nAV8CaO2tG7dOu3HWRaYz/H1119Hjhw5cO3atWSD76xZs3TUmCkOxj75l1HkqlWrpmnUV8BXJEqBnBl8v/rqK/2/2ehwWJMn4BpNV4boBNjMRSeQXPAdOnSodmLWTo/HvHTpUrz5aS2ej4CvSCRypJwFfK9evap9oNl4To888ghKlSqlW/DMYuDi6NGjGnaTA77cZ6tWrdC+fft4qRGE79TqW5JS8dgCviJRMuXM4Js9e3YULFgwjjHf9pVXXtF5XtaOyKzkgm+bNm3Qs2dPy5Tziw5PwFckEjlSzgK+JUuWRNmyZWOsY8eOGv7o221BqlnJAV/+X7FiRTz++OOJ7jOtJOArEqVAzgy+zK1dunRpHKOzYj5XRESETUfEmj7nr1+/XoOvdVSYDtIW4BKI6TCtRcfCfTobYAr4ikQiR8tZwJed0N55550YY6oafWLfvn3RokWLeGUDz5dwyL9MXSD4WsNi+fLl8dxzz+n9GOL6bAmcMGFCvH1yPWOfaSWeg4CvSJRMpccc31WrVmmoPX36tGVOtM6dO6c7NWzZsgW//fabXofDz5jVrFkzm9f76KOPonjx4vrYZn355Ze6w1tCOWVpJQFfkUjkaDl7ju9TTz2l/bV1nwyOBsHIMMsIdnbjKBDm0XoItSVKlMCMGTPigC/FoIgtmCZs16lTB/fu3bPMcbwEfEWiFCg9gi/zuzjaAvO5zA74xRdf1L13GeXlGLwcdmbRokWWpdAdGxgpZsTYWt99950+5sqVKy1zoKPLdHgNGzZ0OsAU8BWJRI6Ws4Pvjz/+qPt/fPHFFzHnSF85cOBAlCtXTrfeseMbO8Bt27YtZp1jx47pMoX+3/ra3nvvPV2W7Nq1K2YZQZPQSyi2TplwpAR8RaIUyJnBl50KRowYEcdWr16t12HNnOv0799fj8s4evRo7QDefvtt7Zxo3bp102P5cugbDjvDJiuOv2iM9WsWa/NMgwgMDMQTTzyhowLM+/Xz88PmzZstazmPBHxFIpGj5Szgy5zb559/Po5xqEtCKMuNsLAw7ffZOjhq1Cg9Nvunn36qz/vWrVt6aDJGgJk+98knn6BKlSq63wg7MluLH6sgNDM9guUI4bhLly7w8fHRQ5ulpQ8W8BWJUiBnBF++xEbOrbV9/PHHeh2CKoczq1SpErJly6Yd14IFC+I0RzHCO2bMGBQuXFgPZcMBypkGkZDYEe7pp5/WKQ9cv2nTpvGGxXEWCfiKRCJHK63Bl1FXfnyiRo0a8YzRXp4X/T7Hec+ZM6cOXBByORKQuWwgJLM8YGCEQ5Vx/HfjAxi2xGBJ9+7ddeAkICAA1atXx4YNG7QfTksJ+IpEKZAzgq8oaQn4ikQiRyutwdde8fyY1sDobkKpCPShzPOl2QOw3Cdzh7lP63zftJKAr0iUAgn4pk8J+IpEIkcrvYBvZlG6BV/mD7L5Vcx5jB9ByCwS8E2fEvAViUSOloCvcyndgi+HXGIOYqFChcScwJi/s3jxYsuvk/El4Js+JeArEokcLQFf51K6Bl/2YudYcGJpb7169RLwFTm9BHxFIpGjJeDrXErX4CsPkfOoT58+Ar4ip5eAr0gkcrQEfJ1LAr6iVJGAb9qIPWX51R2+yA9TzKn//PPPLVPJ088//6wHRncGCfiKRCJHKy3A9++//8aKFSse+jF37NgR5yMVyRHLhp07dzrcHwv4ilJFAr6OF59/fpBi2LBhljkPT6+88ooeDzgl4liOxYoVc4rOjwK+IpHI0XI0+PI4/EjRO++889CDIjwOP4SUkqHK2Cm+WrVq8T6V/LAl4CtKFQn4Ol78/GT27Nl1bdssvsyGE+I7wlx4W86Pudn8uo71e2RsY57PsR35oQp7ZD6+od69e+uvBKW1BHwzjhYuXKg/viL28I0fHZB3JuVyNPju27dPf0yIn6k3i37ZOAf+5Vi9ts6JPtwWFHJda99+7tw5/an7pGRsaz4e/+cnjD/88MOHDuhmCfiKUkUCvo4Xv6rDr+vwPaADY82ZaQ/BwcFYv349Tp48iYYNG+oXnF9p42cjjXfm/fff11/f4ffZ+VnJw4cP6/nfffcdihQporcpU6YMNm3apOdz2yFDhmDZsmV6PoGZ4iDm5cuX159EJoj37NlTf5KS58BzMRzLmjVrULBgQQ3QaSkB34wj/o5Na9RH8xoNxB6ilStaCp07d3YomGQ0ORp8J06cqCOxBE2mPPBra6zAlChRQn+hjf6+Xbt2KFq0KFq0aIE9e/boc6O99957KFmypPbX/GwxfTzn//DDD6hbt67eZuDAgTGwO3v2bL0Ny8RBgwbFfPiC0M19MxWCQZPx48frlj+WU5999lnM8/TWW2+hQYMGOhDjKAn4ilJFAr6OF53P4MGD9f90NvzUJL+1/vrrr+P06dP6c5LGJyVnzpypIZdNS8yp4ks/a9Ys7N27FzVr1tSjcpw9e1ZvP2HCBO2s+vbti1y5cuHGjRuYMmUKmjVrpmGa32//5ptv9HEJyv7+/rrWP2LECO3Y+LlifsedQ9wtWrRIr8fz4Wcw9+/fr6fTSgK+GUf8He9vPQXsOCv2EG3F9PfRpUsXAd8HkCPBl7DLYASDG/zN/vrrL+37c+fOjUceeQSXL1/W8EoY5qfsW7dujbx582pQXbt2LXx9fTFt2jTtuyMiIjSYMoLMQAk/aczobNmyZTXUEhyNVAcGWxj0IFTzOpcvX663Z0CEZRWHnyUjPProo/D09NRBFa73+++/67Li0qVLlit4+BLwfcjiOZ44cQJ//PGHBov0cM4pkYCv48Umopdeekn/b4Ava9/UkSNH9DtCyDWGnOO32p977jk8/fTTOsprNFkRhrkfXhMdIEGX6zMnl45s48aNMeBLEabp6Cj+bdu2ra7RE5oJvMbxGCFmpIhipJdpGatWrdLTaSUB34wjAV/HmIDvg8uR4Mt82cDAwJj0FAN8v/76az3NjsahoaE6Ysvf9MqVK7qF7quvvtL+umPHjjFRW+YIE4IJqyw/uG9u88svv+iAB/tv9OvXT5cDLDfy5Mmjo78sWxhM4TIehzDN/XM+jfeDUWn+TzBmOfPrr786zC8L+KZQ7OXOCJYtI2xQx48f1yF81m68vLy0ERCNXEn+8K1atdL/GyIgED5YW7IWo3vm44SHh6Nbt27x8njSQgK+jhVfXNa6DdA1wJfOjWJElu8IHRqdHI3OZ+zYsdoZMSXBWo8//jjc3Nx0zd7Yhs/sypUr44Avr521d44oUaBAAQ27fNb5nNMZGtvy/yZNmuht+K7yuWZeZlqK903AN2NIwNcxJuD74HIk+BJkCbrbtm3TxzPAl5FeikEOgibT5FiG0Oi7582bpyPFL7/8crzfmmkR9OlMc+P6TJlwcXHR/UsM8CXEskxkIISpcEyv+/LLL7F161Z9fLYGGsdjkKR79+4xIEyeYTqco/yygG8KxTA9HxbWiJhraTY+eKwZVapUSf/YbA4mGBAQgoKCMGnSJL0P5s8wB9Msgi8fio8++sgyJ1bsIMQX6Pvvv9cvEQGETQSsjaW1BHwdKz77lStX1k6KMsDXSEHgMDGGY2J6Ao2R3aNHj2r4ZfOW8f4cOnRIP5vPPvssSpUqpVsojG1+/PFHXbEygy9r+YTo+fPna0imQz1z5ox2pp9++mnMtmzlYO4YRQfD80vpkGipJQHfjCMBX8eYgO+Dy5HgyxxegiajsjwewZeQx/kUI7gMWJBLmJZGY4oD/XqNGjUwefLkmN/62LFjOh2OI/rQ/zPPl+vzL0GVUV7zqA5kE5YJLE/o7xnkYyoDj0+mMY7HAA3LB54fWwcJvjwfR/llAd8UiuDLHyuhIZrYCYjRMqPgNzR9+nT9QPCGpwR8mXdpFiN3zLVJawn4Ol6saY8ZM0b/bw2+rHGzUsTcXoodHFhjX7p0qW5N4DKmQ3A7Fmps3uK2dAZ0VBQjvczn5bZm8KX43DJ/q2vXrvo9pNNjBGHo0KH6fzpZplMQpilWBlnpY0tJWkrAN+NIwNcxJuD74HIk+BIk2brGDsc8njX4Grm4Bw8e1Mv//PNPnf/LIAnLNKbQkUNYNvC8GajjiDzFixfX++A2HB/Y6ChnBl92hOOx2UHaKAuYysDUi7lz5+pniCMGMW3izTff1NPnz5/X5QwB21F+WcA3hSL4MurFWhIfEsP4o1L80atWrRrvHHmjjYcnJeDbo0cP3cTMmhSjd4UKFcIzzzxjWSPtJODreLHzAnvIUtbgy+eLIzHQwbH5itDLtAM6RT6DTMGhM2LKAgGWtW86KVakCMUVKlTQFbsXXnhB78safJnHxXfQ/GEKOlTCLR0iz4UgbPT8ZbTZ6OiQlhLwzTgS8HWMCfg+uBwJvjwGAxnsz8HfzBp8WVawLCCgkinoq5nKwLKBrX8sK6pXr65HcCCLsGMbW/Q4ygPLEqZXMo3NiAxbj+NLrmHKHKO/PBca0ytYnjC9gWULj80+TxTX4zmQaxwlAd8UiuDLpmT2euePaFjLli31cjYNMBqWmFICvqwZ8SHhGH2MKBNSWHNLawn4Ol6sdPH351++C6y5G/njFOcRaJmSQKdLx2aIzxlBlZ3NOCKDIToCwjOHvmHk1yjs2LLBFAhDrNnTIZr3STGKzDxeRovNkMuhzfj8prV4PQK+GUMCvo4xAd8HlyPBl2K+LqOqhFymI7AF2gx5LCfefvttPcTYBx98oP25IfIEQZUfRyI0G787W/44nxFgdlTjvikGNVhWGNfGtE6mvBlBQIpQzDKBx2Ort1FmUY899hgGDBgQsz9HSMA3hTJyfAkIHJPOMPakpAi9bdq00f+bxRvO/F+eO2tJjLyZxWWscTFHxloEh6ZNm+r8Tfa0Z74ka2aMrKW1UxLwdbz4DHF4GUZlnVl0vIws79692zIn7cT3RMA3Yygh8D33zW6sf+sT3Nt8MmbeX19swo/vfYbIrX/HzNu19HtsXfRVzHRy7J+Nh7Bhzgr8z8YyW/bbwjXY/uHXNpelhv1v+xn8Mm8VLn2/z+byBzEB3weXo8GXPpd5vGnxOeDkiLyTL18+h5+ngG8KlVSOL3vIM8/FOiLGJHL+0MzBZP5jxYoV41wHH1hGclmjshbB1zrHl0OA8F5wnNS0lIBv2ojRWqYgGM1Mzqh169bpKIEzOGAB34yjhMB38wdr4erigi0ffBkzr129ZnB3dceRVb/paYJitdIV0LN5B/2/sZ69tm3xOgT5ByBqm/K7Npab7cK3e+Dv64esoeG4oYDZmH/m6z8wrFMfXP8pet6zg8fjp7mf2w3TZuM1FMyVD1+/+XGKricxE/B9cDkafCm2GjMw4sy/G8+Rn9x3ZLSXEvBNoZICX/ZcpGNmyN8Qf1wOGm2kNzCqyxxMcxMyezsyP4ZNDNayBb5spuBxjPydtJKAryg9SMA34ygh8L296SiCA4Lw1qMvaQj899djyB6aVa+/+IU39LyrPx5EaEAw3nn85RhQ5N+o7fFBlvMZKTbWoyUHfD94fpZe193NHetMYLp/xU/w9/HTEWpOly1cAnOffjXOcbh/W8fgOv9tORWzLv8mBb7cT0qWCfg+uNICfBkMSWsuSEpMuWDanaMl4JtCEXwJqBykmePrmo29E/nQsSMa4Zjj9XLYM46+wGnmxFB8KBn95dh4zLdhByJ2AGIEz9a1EXz5xRWmSNA42DSjwzxmWhfkAr6i9CAB34yjhMCX1qhqbfRt1VnDHFMMAv380bFhKwxs213P27r4K7ip7ZnuwOmPpryF2uWrokqp8nh13LMxaRKnvtqB3i06oUzh4qhXsTqWT3tPr28G38htf+PxfqMwoefQOKkUhjWvUR+juw1A9dIVMbh9T739jZ8Po02dJuoc3NC2blM82X8MAtQ5li9aSqdp3Nl8HM8OnoCKxcugUomy+v97m0/o/Z37ZpeOVBfLVwgNKtfErwtWK2CPC75fvLYQXRq3wfE1W/W1TBnxGCqXKIe66ho+nT5Xn/f5b3ejV4uOWPT8bFQtVUFHoK3PnSbg++BKC/AVJSwB3xSKHYnoDGwZhwWh2EuR+ZcEWwIuO75xbD2z+AnXTp066eWEWn72NaFP9/HTgebjMPrLIULMSeRpJQFfUXqQgG/GUWLg+8KwR1CqYDHc23ISr094XkPtxy+9g6J5C+KuAsi3HpuKXBHZcWvTEXwxY76OvBIuZ4x9RkeLp49+SsNhhwYtULdCdQ1/j/UdBS9PL5z++vcY8GXUdWz3QcgZkQ0HPtsY7zxOK5j08fLRKQyvjHlar3dj41+489txvDzqSXiqwnfmxBew+vUP9LLeLTvqSPDcp2Ygh5pe8OzreF/9H6LOiXB+Xx2vcdU6GpCXTFblQZM26jqy4e6vx2PAl+Ac6Oun9vGqvoanBoxF9vCseOORKZjYayi81TV8++4yHFuzRV9PRHAYhnbsjas/HIx3/jQB3weXgK9zScBXlCoS8BWlBwn4ZhwlBr7fvbNMQZ2njmoysvrUwLE6+knA/Wvlr+jbqgva1W2mwbB+pZoY3XWA/p/R0mkKessWKaH2/beG0z3LN+hlZ9fv0h8GYLSY4Mso8otDH0GwfyC2JdBxbc6T05E3ey7c/uUI9i7/AZ7uHlj/9lL8b8eZRFMdvnh1gQZORpMJ6rXKVsFLIx7HwU836nPYtHC1zgVmykatslUVxG5FwZz58MLQSQrIAzFdQTbP+d9NRxEWFILFL76hp2kd67fUkeejqzcr8PbE0pejo9jW526YgO+DS8DXuSTgK0oVCfiK0oMEfDOOEgPfqz8c0FC56vUPEB4cqkE4cvtplClUHPOeeQ0l8hfRKQ13fj2O3FlzoEDOvKhepqK2InkLICQwCPe2nMCWRV/qtAJCaXBAoC53DPB1dXHV09lCI3B5w36b51G/Ug3kCM+Gbk3boWuTtvBSoGmkOyQGvucUZDM6W61UBb1/Dp1J8F312kL4ennrvGXzcbgNI748H9qqmYv0vD8//0WDMlM1jOvLqc6H6RcG+J5Yuy3OvqxNwPfBJeDrXBLwFaWKMiP4cqxmDi2XGYyfLuZ319O78TObAr4ZQ4mBL6GPozZwNAemJBhgOqpLfzStVg++3j561Ie7v51Q4JtTz/9y9of4avYSrFbQuGbmYlxR2zANgNC6dtZiDZGe7p4KfNdp8PVwc9P5sjkjsmN8jyE6mmo+B0aYvT28dF7xY/1GaWtes4FOsbix8XCC4Mv9tKnTGGWLlMRHU97GvuU/omGV2hp8v37rY/h4eekIMrfhuts+XIdbaprgO6JzXx3NLpavIG6qYxz6YhM8FPi++cgUfW20lQqef5m/Sqc6EHz//mpHnPO2NgHfB5eAr3NJwFeUKsps4MsROfgJx8xiHBPSzSsLQoq5pWsLLe6mo2fiO9K/EgNf2qTew3UHZHZKM6D001fm6nls/r/+058akAmV7OTFdTjNdIFOjVph58ffwcvdI2YItF/mrdTDpBkRX6Nz2/xnXtNpFXuXb4hz/NmTJuu8XeYRG/N2ffK9Ht3h23eWa/D18/bVKRRcRvBlPu/d344jf848eO/JV/T5XPvxIPJky6nBl9FZbwW+Rie2bYvYSc8N5xU8Gzm+7JDHjnLTRj2pR7hgxJv5vVw/Up1vh/ot8NLIx2MivgK+D18EX/pQ9vcRcw5jOSDgK3ogZTbwZSHA4enSi7HDpa359tqOHTsQXtYNE//Lmq5twr0IuLgK+GYEJQW+q19fpAu354dM1NDHeX+v+x2+Xj5oUq1uDAx//84y+Pr4oG29ZujSqDW8Pb11ZzOOr5szPDvqlK+GQe16Il+2XBp2+7fuqj98ETOqw9a/UbFYGd3p7D/LqA48HkdxGNaxT8xxaFyXaRbsTHbqyx0KYr3RtEY93bGscdXaKJKnAL59exk6NWylYZe5x8XyFdZRYo7wcPLL7Rjeqa+G2T4tOyNHeFb0VX95DAN8eezJwx/VOcjHVm/Ba+Of0xHufuq861Wsobdl9Foivo7T9u3b9VClaWUcWYojQXFMdVvL7bVHHnkE+Rp7oeOXwei0Lv1ax6+C4OqeRcBX9GDKbOCbnsTh8xo1amSZSpn4ZZ2Icu545H/Z8AjSr02Kyirgm0GUFPiy49eCZ2fiqII/Yx4BcenUd/WX1Ix5BMVN81djdLeBGNd9MH6e90UMKHO4swm9humREQ5+9rNOg+AoERe/24sPX3wrZr09y37A/Gdfx82fD+tpAi7HDGaqgXEcw/gFOeYe81w+mzFfgylTFfYs26A71u1eugGXv9+nhyAb022QHqWB6Q6MRDOye+fXY5j79AydA7zwuZk6qsvzIKCeUmDPY3DkCC7bt+In3UHu01fmadjmsGmMNHP9Gz//hQ9emK2PbX2OZhPwTf9q0qQJqlSp8sAfOvrwww9Rup8fJkXa9q/pxVgOuHoI+D6QGE17//33LVMPT/xEMT+MsW3bNv0AOpMEfJ1X/GAK3xeOL51SCfiKnE1Jga9Y6piAb/rW77//rtN7WAasXLnygXyfgG/iyjTgyxoU83f4QD1s8YMYHBfY+PDFmTNnLEvSXgK+zil2TDOc3pgxYyxzky8BX5GzScDXMSbgm77Vs2dPnfLDMqBGjRoPBHsCvokr04Dvhg0bUKRIkTif3bt3757+FJ+1eL5cz9Z5c96///5r07kY8wzw5brM13kQkEltCfg6p/jRFL4rtMDAQFy9etWyJHlKDvjSqUz6X9aY6aGnwtH522CMvhYRZ72+u0LRbWNIzLr8O+Fe7Hb22gTm7iqztczaBHwzjgR8HWMCvulXx48fh4+PT0wZQFu7dm2K/V9ywNdcBtAm3o/279bzDf9tLges17HHkrOdgO8Dip8RnjRpkv6fnYAIoxwmg06ZeZWXL1/WyzZu3IhixYrpmlehQoV0kjn1xhtv6GGx6tSpo5flyJEDmzdv1suOHj2KatWq6X2VLVtW/0/wpfgFuODg4FT/4VIqAV/nE1MbjJq+YS+99JJlafJkD/iOuhyBQm08tUPxze6KpvMDtCMafCwMXiEuKDXAO8YxDbHMq/yor57X/IMA+GZV5+oSPXJEx6+C9XplBnkjqKBbPOu+MRhjrkegaBcvuLhn0SNOFGztiZHnw+Ock7UJ+GYcCfg6xgR806+eeuop/Z6Yy4D69eunONfXHvAdezMC1Z/2RZ4GHijd3xuDDofpcqPNp4FwccuCVh8FKj8cve7wc+Ha75cb5q3BuPvPISjcwRO56nigwhgfDDul/Lnats7LfiityoLSA+PaoL/CMOFuVtSf5Y/c9TyQt7EH6s/0x3g1z/q8zCbg+wBiZJdDlCxfvlxPE24ZVWMO7u7duzXovvLKK7hy5YoGWn6OmPPHjh2LkJAQXLhwQYMI4YRAy+0qVaqErl27aifTrl07Pb1p0yZMnz49Zj3q9u3b8PT0xNatW/V0WkvA1/nUv3//OA6PljNnTt2ykFzZA77lRvgguIgbum4IQd0Z/nD3zYIB+5XTU8vojOhouv0UrJ1OsW5eCC7kitFXIzD073B4BGRBpQk+6PFriF7mn8sV425FoP2qIDRQTs2w4j284BnsgsHK4VV/1hd+OVzRSUFyx3VB8M/jqhyoT6LnKOCbcSTg6xgT8E2fun79OnLlyhWvDOB7w+BaSnxgUuDLIEa5Ed4IyOWCWpP9kLuuB0JLumHsrayYGJkVBVt5wj+3K0ZeDtfrEmb9c7pihALgYafD4RPmgvxNPVBTbcvyIW9DDw2xVR/3RaG2XijUJtqyVnSHm3cW9N0dioaz/eEZmAVV1DosQ1ju1H/dPwaubZmA7wPo0qVL8Pf310OVUKtXr4aXl5cGwH/++Qd//fUXjhw5gqVLlyI0NFQ3M9+9e1f/jYiI0OsTfEuXLh1TA3v11VdRs2ZNHSlm5JgfDqDodCpXrhwDvpwmdPNBdAYJ+DqXTp8+rZ9Fa6dHmzdvnmUt+5UU+I77NwI+ES5osThQT9PJ0eHVnuqnp+m8sldz1w6r/eoguHpm0VDLZW2/CIKfcn6suXO6n3Jmrl5ZMPRE3Ojt2BsRCCnuisZzoiPJOaq7a+dqLKezZLRYwDdzSMDXMSbgmz7FsebZv4MBMwY88ubNG5P20K1btxRFfZMC31EKaD0DsqDNiiDlo7NpoCWIdlofrKcHHQnTyyuO89Fpbm6qHGi5JDoC3GJxAIIKumo/z311WBsEr+AsuiXRfAyWE4wmV33KV0eJc9ZwR9UnfPU5afAe6Y3sqmyYeD/uuZlNwPcBdOrUKf1gHThwQE8zf3fgwIEICAiAr68v2rRpgz///DMmWstosGF8AD/44AMNvs2bN9fbU2+99RaqV6+uR4rgpybNHdiMHF+KTojpD0yVcAYJ+DqXhg0bpp+5cuXK6UKrVq1aMek0VatWtaxlv5IC34EHw5DFNQsG/hkd4aUV6+6Fkn28YqZ7bQ2Fm08WuCvjMjofzqejG3oiTMMxYZdNXEGqtj/utqm5Sh235gt+iCjvHp0nprZt+1mQburick6X7OuNnDUTj0oL+GYcORJ8z3z9B1rVboSWtRrGs80frNXr3N9yCrMfmaw/D8wxfovmLYipIx/XH6Tgcg6FNrBdd/y35WScfU/oNRSLXpgdMzSaYfzCmvmYbes21UOaXfvhYJz1HrYJ+KY/8bfi8GVkBKZVLly4EAMGDMCJEyf0XwbsDh06lGw/mBT4dt0QDHe/LBhxPhpWGQDJWtFNBygItwTTejP8NfAGFXBFwZaeGG/pn8Hobfs10cBMP133FT8E5Y8FYcOavB+A4MKuus/IRLVexfE+6L6JfUXUcmUVJ/gge1UB34ems2fP6qgaB/enLl68qCNt586dw4oVKzR0dOjQQcNp7ty59TKCLP8yLYLrE3zZAcmQAb7Hjh3Tjv3gQeXklHitHIvPDL5FixbV8OwMEvB1HvG5LFGihI7ssoWBzwjTHljDZ+tDnjx5YvLI7VVS4NtrW4gGX9bwjXnlR/nonF9jms4mZ20P/e52UQ7SmG9Y1x+C4REQnZNM+OX6xrKRF8LhHe6CNp9GR4nNNv7fCFRTtX/m+bZeFh1xTsgEfDOOHAm+f32xCa4urvrDEoPb9YxjOz/+VkPr4/1H6y+4je0+CJ+89A4e7TsSPl7eeKLfaD1mL7+eViBX3hgQNqxa6Yp6W2vw5XjBESFheHrgODw9aByGtO8Ff1+/6K/MWa37ME3AN/2JKZCzZs2K6WTP6C/7IxlR3j/++AMff/xxsn/TpMC39dJA7afNnY3zN/NAZQWjxjYMcAQqoGV/jn57QuOVKfy4BD+WRDBlytxE07HYryMwv0t0q59VKgN9e8cvg+Ad7ILaL0eDtnm52QR8H0DM8eWwYmvWrNHTM2fO1OkIzKHkuT3++ONo2rSpzt1l2sJ3332n1+Nfb29vHSlOCHwJLNw3v7jCfbGjEiHbAF92pAsKCtLf/3YGCfg6j9jKcOPGDcsUYsDXEJexc2RylBT4coQGOrLhZ2LBt+wwb52va0x3ULV5pjAwrYFNVdYjOLAJa/CRMNR71V9/VYfRA2NZ3Vf89eeGrUdv6L0jRJ2Xm871ZQTYvMyWCfhmHDkafD3cPGx+kIJ2eOWv8HT30HBr/lLbjLHP6M8HX9lwIEXgW6ZwCQW5sfvjZ4sJw+ZjPGwT8E1/sk5j4HCrHTt2TFF6g1lJgW+rTwzwjZ3HvN7Kk6JTETjNjslMdaOPr/USwTauTx9yIgxN5wbo/F7ua8jJ6A5uXNZ4jr9uDRzzT9xtRl2JQLnh3ro1kRHg8f/GXW5tAr4PqM6dO+Ppp5/W///99986l4a5t2xOZsoD83jpMDj8GNMfmM/Lv4Rinn9C4EsxOkdA5igQYWFhetg0A3wJzezcZgactJSAr/Nq9uzZGD9+vGUqZUoKfIeeCoOrdxYd+TXmFWipHN5EH/0/O7Exf6tELy90szi+pvMC9DJGCQi7xnb8rDAjAg3fjJ5H2A0v44ZaU2LzeWk9N4foTg3s3TvyUtzmsIRMwDfjyJnA941JkxESEBTz5TbDrv30J9bMXIRbm448MPgSdsd2G4TyRUoJ+IqSJUeBb+dv2GqXRYMop+lvc1RzR+1p0RHYcbcjEF7aDYVae6LGc34637c/O0CrcqXHphD02qLKD0sZM/JSuPbvLB+4LQGZKQzM7TUff+jJMF0+MErMYAnTH4xlCZmA7wNq2bJlqFChgo7AUkxj+Oijj/QDwjQF4xz5wDHKRjhkBNh4ADniA7cxxI9TnDx5Uv/PbQkc3GbPnj16FAhjeLRp06bpYdCcRQK+zis2eT1s8KVTouNh71vmcTFnl8OVsYMCpyuN84F3qIvO4eU0hzbzyeqC4afD0fDtAN3Td7RylszTGngoDO7+WdDhy+gI7sBDoXrIst7bY6GajitfMw8N0owUs5ODNqvogbUJ+GYcpUWqQ6vajdGzeYcYG96prwbW8T2HonLJcvrzwLa2p6UEfAP9/NGhQQttNctWhoe7Oz6bMS/eug/TBHzTvxwFvhyZwcMvC7p8G51zO/Kigteg6NQ2Ain7aXgo386+IBy1J6SoKwo098T4e1l1hzf6dKNVb/jZ6I5yHddFd4wb+Fd0H5Eev8WmR7AsKdHTC7nqesTrBJeYCfg+oNihjeDLnF1HiT8Wo78EaGeRgK/zyhHgS2u+KCB6PN2WngjI44qctdx1Phdr8ozwNnw7NqrLlAiCb4le3hhxIRx+uVz08DUcl5ejQ3AcR+bu6v1+EKAgOouOFhjbj1VO00uBNOE6MJ9rjDGFIrFzFPDNOHI0+Lq5uKFbk7YY1rFPjD3aZ4QFfIegaqkKCnwTjsSmNMf3mUHj8ezgCZig4LpovoIoXagYbvz8V5x1H6YJ+KZ/OQp86V8Ld/TUI/owD5fDmYWVdtMdlZnP6+GbBbVf8ovJ29Xpb25Z9GhAjNay/Cg/0gfNFgQiV20P3UpoRI+bLQyAb3aXOB9CGnMjAr7ZXJBblRdlB/ug7JBoq6UAO6FzpAn4poK++eYbPPnkk5aphy+O6ztq1CinKrwFfJ1XzD1nrviDyB7wpTNhlJY1d6YuGA6r9/ZQtP00SEOweX2mKrCzmpHby2hApQm+OgWCYGus139faMwHLQxjfnDrpUFo9Ulc6/hl/E5zZhPwzThyplSHaaOfQq6s2XF3c1yo/fur39GxYUucWLsNC56dqdbJgVu/HIlZTtgtV6QUpox4zCb4Wuf4nly7HV6eXvjqjY8cFvUV8E3/+uGHH9C4ceOHDr60EefDUbyXl87FZRBEj+Wuyo0mCoTLDvXBuFux5QD9cfVnfPUYvCwHGr/rDw55GVrMDcW6emHAwehtuW6b5UGo/lz0EGbG9kyhK9XfWwdQzFbNMryZsZ61CfiKUkUCvs6r559/PiY3PKWyB3zTgwn4Zhw5E/humr8Kri4u+HL2EvxvRyyQzp70IkIDg3H9pz/x7TvL4Onhgb8+j93HlR8OIDQo2OZwZrbA99J3++Dt5Y3PX10g4CuyW/weQMOGDR0CvunBBHxFqSIBX+eVgG+sCfhmHDk81cHVDW8+8hI+nzE/jh1fs1XDacPKtZA7aw6sVFB6ZNVvWDL5LQT6B+D5IRN1Z7R/fjqEPNlyoVn1+tizbAP2Lv8B3Zu2Q5B/IE59uT3eMQm++bLnVjD9Ib56Ywk+fukdfYywoFBc+HZPvPUflgn4pn8J+MY1AV9RqkjA13kl4BtrAr4ZR44E3yMrf0OArz/8fHzj2QfPz9LR13Prd6FZjfp6WDN2QuMYvqO69MftTUdj9vP9uyuQL0fumHWyhUZg+f/bOw/wKIo3jJPeQxISeu+9915Cr6H3FkCwUG3wV5QmFhRFBVEsqCiCAgIC0hVpovTeQbo0CRBiEt//vHO3yV1yIQnikct9vzzzwM3u7e1emfntt9/MTv3AZvR2xjOT9by9xusEKUGuW7E6fv5wsVVU+b8uIr6Oj4ivdRHxFR4KIr4ZF063N2XKFPOjB0PEV8ho2FN801oosGeW78Cur9bgz7X7ba7DwW0HFmzEvvnrraQ4oxYRX8eHN9mqUaOGiK+5iPgKDwUR34zLiBEj9Fy+/wYRXyGjkRHFNzMWEV/Hh+13lSpVRHzNxWHF18XFBWvXrsW6deukZIDCO9SJ+GZMHpb4BhU1TRDuyKXLmiAR30yCiK99ioiv4yPia10cVnx5BzQpaSv+/v4oWLCgzWUPsyxZssT86QgZiYchvrwZi63P3BFLuXLlRHwzASK+9ikivo7PwxTfwDweKNDEEwXCHbfkb+IBFxcHFF/+CKWkrTRv3hwrVqywuexhFpGJjMngwYMxa9Ys86MHx9Zn7qhFcHxEfO1TRHwdnwMHDqBUqVIJd5h9UCi+uermQv2P66PBpw0ct3zSAC5uLo4nvkLaofiuWrXK/EhwNvr164fPPvvM/EgQMgcivvYpIr6Oz6lTp1CkSJGHIr4l+pXA4LjBGOLAf4PjB8PVw1XENzMj4uvciPgKmRERX/sUEV/HR8TX+k/E1wkQ8XVuRHyFzIiIr32KiK/jI+Jr/Sfi6wSI+Do3Xbt2xYIFC8yPBCFzQPHd+skybJ/7g5T/sLzyxFh06dxZxNeBuXDhAvLmzSvia/4T8XUCRHydm/bt28uMG0KmI1++fMiTJ4+UNJRs2bLBx8fH5rK0FA6QFfF1XK5fv47Q0FC7iW/kvUjUnlEbRboXQYVnK6DX+V4WS23/9TjTA+VGlUOB9gX0v91PdseQf5SkqteqNqUaKo6tmFDCF4RreTWe2/NcT5QaVgqDYgcl1N3vT8TXCRDxdW5EfAXBuVm8eDEiIiJEXp0Ue4tvxXEV4RnsidJPlEZw+WCEVg1FZHSkxRrWfwPvDURI+RAElQ5CuTHlkLVEVmQtnhX9bvRD3z/7wiubF3LWzYncjXLrUvWVqgniOyBqgJZen5w+iIxJ+TUs/0R8nQARX+dGxFcQnJsNGzagUaNGIr5Oij3Ft9/NfvAK9kKDzxpowex1rhfcvN3Qem1rtFrTCq1+bIVB8abIbLvN7dBqdSu0Xt8abn5u6H7aFOVltNfd1x3Nvm+Gzns7w6+gH/rf6m9+hcS/ZkuawdXTVd/J1zu7t4ivkIiIr3MTHh6u73IoCIJzIuLr3Ny8eVOnu9hDfNtuags3XzedfsDHg+IGIVuFbKg6uSrqflBXi2qH7R3Q80xPeIV4ofqr1bX8FutXLEFc+13rB89ATzSZ3wQtVrRAtkrZ0HJFSzSc2xDdj3ZPiPb2v9kfXQ52QY03akjE90Fgw0A5yAzl2rVr5qMyIeLr3DRo0AAbN240PxIEwdkQ8XVueHMpd3d3u4hvkwVNdJqDpYTmbZ5X5+0y9zdn/ZzIUTcHCnUppFMgBtwekLAe/wZGD0TJISXhnc1b5/3WnVlX32zCL68f/Av4w93PHQ0/b5ggv/xr/FVj+OQS8U03PBvKVtoNoWXdHbp4+GfBunXrzEdlguL7zTffmB8JzoaIryCkzpNPPokOHTpkivLFF19Y3Ulz586d+pa1Ir7OiT3FlxLKnNzIvxMlNH+7/Cg3spx+Xqd9nXQaA8Wzw9YOOrXB+GMkOKx6mI7etljeQqdENFvUDBWeq6BTHZgnXCKyhJZgplQYzxPxfUAovo9fDsWYuOwOUZ76K8xmfd6G7jbF19/fH+vXrzfXCM6EiK8gpE7JkiVR6wU/NHkvwKFL4baeGDtubDLxrVy5soivk2JP8WUOr7u/e4KYDv5nMHLUyYEqE6to4ex1oZfOAWbkNmHmBrUOc4I9Aj1QpEcRnQZhCDGXsZgeDUHbX9rC1dsV3U+Znss/Ed8HhOL7xJ9heBo5Mnx58kYYctV0R9PZAcmW5WvkYSW+hw8fRlhYGHoUKYJQdYxsAAXnQsRXEFKH4jvwYLZkbaqjlbqT/ZKJ7549e1CpUiURXyfFnuLb448eOse3zYY2Wkw5MwNzeZmrywhu0V5FEVIxBEGlglCwY0EM+nsQuh7rCo8AD9R5v47OCbbcXqmhpVB3Vt2E1AZKLgey9b3e17yGiO8D4yjiO+JOGPKHe6BfsWLI7u+Ndt9ltVpuKb5//PGHvlvL1OrV8c/gwXilWjU9ifWxY8f0csE5EPEVhNRxJPEd8092jLid3eYyW+J79OhRlC5dGjExMeYawZmwp/hyWd6WeXX+btPvmqJgREH4F/bXqQotVrbQg9v07A6q8P9Nv22KmtNrajlmSkOlFyollE67O6HyC5Xhk8MH9T+urwe7BRQOQInBJazm7BXxfUAcQXxHxWRHia5eWnrjlMhubd8ewYGe6LouKGEdQ3yvXr2KihUrYkz58ohX62LIENzs3x95/fwwbtw481ELzoCIryCkjiOJb5tvAhFaxg2PnQtNtswQ3zNnzpiPTMTX2bGn+PKvx+keyNM0j05dCK0SivZb2+vnlBleRs/TS2ll+gJFt9RjpVDnvTrI2ywv8oTnsSqcAm3ArQEoO7Is/PP769xfzv7Q50ofi1cbgjbr2qBw18JyA4v0khbx5Vn2qHvZMVIV/p91w6PCELE0CAMPWzeYg09m0/XDb5m2OTouu1531N+Jzx0Tnx2jY5MX1uvlar2R0aZ8Xj6/64YguLpkwb7OnbXIsqxo0QIBIW7oszNEP4fiu2zZMi07fZQgxw4apNeLiYxE2/z50a5dO9y7d8981IIzIOIrCKnjKOLb6ccg+Pu7oWW+fAir6Jas36L4NmveFFmzZsU777yjpefEiRMoVaqUiK+TYm/x5Z/OzVWCaZmf+6B/Cdt6WNsT8TWRmvhSSKuM9oW7bxa4eWdB+SHeWkoZhc1TzwNBxd20oHJdinHO6u7IXdtdL++5LRjBJdxMkyyHuKDWS75abpvPCUBgftdkpe4UP4xWy2uM84WHnwuyKNkNKemGHpuD9bIiAQE416tXgvx+1agRAnO5YeDRbFp8CxUqhNZKcim7XE757askuH79+rh9+7b5iAVnQcRXEFInLeI78Eg2VB3jq9v/TiuDTMELVfI19EDBFp46sGGs2/TDAGQt7Ir++0N0/9FibiDK9PdGpeE+6LEpWD938KlQ3aZTVi1Lqy8D8fQ/OTDsYihqvuCLkj28UPNFP3RcnhU+qg/5sH493FPte4+iRZFftfkMqhivW2eirw6QjCxbFjn8/PDVV1/hwoULKFy4MO7cuWM+WsGZeBTim5H/RHzNpCa+rb8OhIe/C9ouCESnVUHwCXNB+EzT4DJGW919sqiGSQmtaqyavOevH/f+LVg3eDmquOtGsZcS4IbT/eHingU9twaj354QvQ2j1J7gB1e1jK/RZW0QXD2zoJmS4767QlCwuZLroq5apCuP8EEltb/X+vbVYsv83bdr1UJwUTctyHVy5MCtAQP0MqY5jClXTqc9MP1BcD5EfAUhdVIT32GXQuGfx1UPLKaIunplQbvFWbWgdlwRBBdX1V5/pPoE9XioElaf7C6oOMxHi3HDt1Sf4J0FxTt7IX9jD/3c7r8Eo9f2YGSv4I6w8omFfUfh1p4YcUf1HVXdkbWIGyoM9dES7eFnCp5MrlYN/6j2/e7AgWieNy+KRXjpvmHI6VBkLeSKcRzIptr+1S1bwt/XF999950OiIj4OicivtZ/Ir5mUhPfIu08Uaafd8LjSk/6IK86y2cjR9mt/pyvnkO3yzqTFFd9xlev9/iVULipRq7vblMqwsjoMPjnczWd0Zu3xcKz/1K9vHSDyhQHRnv19s3Le24JRhbVsA4+lQ2jlExzvYa5cumGz4j8jlNyWzo4GH/26ZMgxK/XqKEjzUx/EJwTEV9BSJ3UxLfuVD8tn8OjTOlqFYZ660jvmHhTWlop1SZTdim9ZQd6IyC/Kx7/05SDG1reDXUm+pkixH+bhJaRXEox09iMwoCIbw4XHezovilYX2HklTxuI/JoCNw8s6D2ZD/4hbpiVt06Wn45dqNm9uwo3dsL2cq4YUipUoiNjNRX+gaWKIG6devqVIcCBQrIFT8nRcTX+k/E18z9xJeNGhux8FmJ04c1/zgA/nlddUSXj5nLy3QGRmmDirkmpD2wMXvsj9CEs/FmHwbAXZ21M9prbIul6/ogLc4UWz7u9WsIevwSnLCckV9GCZ66Ydout8cocnvVmBkpDSxGFJjlo/r1kUvJMXO75M5tzouIryCkzv3El8ENRmErPO6j/886zqhDETX6AA40887molPfeOWOA9AYGGGp/bIfBh4ybXvk3ewILeumUxr0cvNrsE3PXUcJ8f9MVw55ZbFIB0/Vh5iWs0/xDDBtl1cE/QLd8G14uJbfi717o2RQEDoWLIjogQN10OP5ihVRtkwZXLp0CVFRUbov+Ouvv8xHKzgTIr7WfyK+Zu4nvszlZRS3zfzEKG37xVnhE+pilVvFM3hGV2uMNUV7LctTN02RXkZtebbPuXiNZWw48zbwQOXhPlbPMZa1/DwQnoEuqDxSLbdoKNkQ8rLbIHVWH2cexGaUxU2bIjQ4GNu3b5dbFjs5Ir6CkDr3E19GZrNXckO9VxJlldFZpjc8btFvNJ7hDxeXLCjY3FNfmTPqjVJ1tI+O/jJlYshZ6xkZeBXQL4cLhl1OPlODkeLmEZhFB1BYR/EO8HPD2tattfye7dkz4Qrg69Wro5CS4FOnTuljE/F1bkR8rf9EfM3cT3wpn745XdBKCahR13ahaqRyuepZHvh4yBnT2X5gITedgzXkjHUDyktcHKjAEbm8HFZDndUby5jnxUjxoOPWz+H6vAsPc77Y4BqRBcvScm4g/NUXmo2epfi2zpcPERER+gsv4uvciPgKQurcV3zjsiO0nBsavO6fIL59doVo8TVElVcGy/b30sGNrEVcrYIbRuFVw1K9vXUKA1MnjG1RbLNXdtPjPIyIMgu32W9vCPI18ND9SlvO225ezmVNZgYg2MsTezt1Smj75zVqhGxBQdi7d6/5yKBn8smRIwdu3rxprhGciYcpvkFFglC0Z1F9IwqHLWr/XVxdRHxTy/ENq+CmR98ajxtM89dTybDxYaPIwQVMdWBaQ2BBVxTv4qVlt++eEJTuZ5oBgs9jo1a6rxeKtPdM2BYHQORv4qG3ZdQ9cTUMQUXdkKe+hx5JbLnMKN02BsM/wA0/tmxpJb0szPuqEhqq5+wV8XVuRHwFIXXun+qQHXlVW8w0BEM8u6wP0gOVRypp5ePOq02PG77tr6/QVXvGlMPL1IYeW4ITgiQsjPyGlHZLCGYwn5epboNOWL9+mwWB8ArMgqLtPBGZJDDC/qXa074oEhhgFfj4qU0bhPr76zafwmMQHByMa9eumR8JzsTDFN+qYWGYWq0aXqte3WELb+rl5iLim6r4Vhnlo6coo8BytG2uWu6oOsaUmtD226w6pytimelGEm2+DoSLWxZ0+D4rBhwKgatHFj0HL6WXqRGUaOO5PNPngAmKtPFaLIzwBhd304Pj+JpGMQSYg+U4wIFn90aDd7x7d3zVuLHO7+LjC716oXjWrAgICBDxdWJEfAUhdVIb3JYQoDDn3DJim72qux7cxnY9uJgriuqc3Oyo/4afHtTMsRpDz4fqq3acjtLYFge6hVZU4qvW5WOmueWp65HwmIXjPbyyuqD+6/7qNRPrWdgP1FOvn9vPF4e7dtXt/bb27XHePM3l982aITQoCJs3b06QXxFf5+Vhim8/plaaHcNRC2c88XCVVIdUxZc3qOClJubnhpZz1+kKvEkFn8OBb0aEl+vyLL5AMw8ttE9cC9PRXU/VgBVq7YmgYm7wzeWScGY/5HQ2PU+vZaPIUqilp244mQtmlIB8rhjyR6h+LgfWzahdO+GD5OCGYkpyvT1dsax584T6Y926Ibevr57IXHBORHwFIXVSE99uPwfrNrnRO/56ekufbC5o+KYp9UHP6hOQBZHHTM/XA9jKuSF3HQ99m3kGSjivOwesccyGb5gLao4zDWJjv8F1jUFtxus1ed9fT1/GQXD1pvonlAEHsunBziG+ntjeoYNu55nqkN3XG1VDQxMGOM+pVw95cubEgQMHEBcXh1C17MaNG+ajFZwJEV/rIuJrJjXxZePGUbm1XvLTZ+vGZSeO5G2/KGuyAQkcuKDrL4XqaEDT2QH60lfjdwMw9ELiuhTjDouz6ihywvPVa3XbEKyfn7RQekNKuOHFypUTIrs3+vVDZdWoVXzCB3nru+uc301t2yZ8yLs6dkTOgAD88MMP5qMVnAkRX0FIndTEl4LK6KtvTld4Bbmg/GBvfbOixy+H6RzcJqptZ/TXWJ9TW+aq7aFnYOD0ZLlquGuRZdCi0lM+CQOjn7oVpudp76rWM9IoWBrN8NfPz1XLurCd9/d113P0clDbye7dUcDfX+2bHwq29EST3LkRZZ7H/dXq1VGkcGHs379fBrc5MSK+1kXE10yq4psBypM3w3S6xWOlSiV88TiKlw1d8a5e+q5BvHNbZGSkOvv3xV6LWxtvaNMGOYKCsHXrVvMRC86CiK8gpE5q4svCFAMj3c3WuIv7FV4JHHFbPd/ilvcPUjiwOtjPA7926KCv9JUJDkaN5035xJzph31EZyW7nNaMHfzwsmVRUslKSEiIiK+TIuJrXUR8zWR08eXlsgLhHuhcqJCemJwf3t/qXz7Or+rZGHM9iu+6det0akM+Pz8dDeC6FGReBnvppZfMRyw4CyK+gpA6aRHfjFAozY3f80cef1/dppcd4G01dRpTI1xdXTCsdGlE9e+v7+zWtGlT5M6dW25g4aTYW3w5veo3TZpghDrperNmTdzs18/mepblTI8eGF+5Mp5Q31veg+CO+aoFt8M70yYtzGfnVe8fW7XCk2XKYFS5clij/h+fZGpXW0XE10xGF1+dYxzsgs8aNtQfHL9YQ0uVQs5q7nqOYGM9Q3zJCy+8gFJBQfijZ090UYI8UMkvc70E50LEVxBSx1HEl4Xyy5Q7DqaznC2CheLbq1dPfYviYoGBaBoeru/cVrhwYbllsZNib/HlrA9MueyqvoOF/f3RIFcuqxttJS3XlRgXDAjQ31dercjq6YmeRYro4B7dpbiq5zKWnD4+cM2SBTs6dMDXjRvD281NT9/aNE8eLbPzlShTbG29jlFEfM04QqoDc8UC/N31hOU8M+KsD7w9puU6luIbHx+vPuMhyO7tjTZt2ui5HAXnQ8RXEFLHkcSXhTM9MG0iaT3Fd+y4sdizZw9atmyJ69ev4+LFiyK+Tow9xZdXGXIoOX23dm0tmEe7doWXktOf27XDjogI/K6KIaYHu3TBb+rxV40aIY+vLy6aZyX5XD0O8/LS45d4hTvGXKKVPFOE+xcvrkW6sRJqpn5SkBkMpGg3zp074ap4SkXE14wjiC8L79bj6+2mB0gMOpm8kbYUX8IIb2UlyTKdmfMi4isIqeNo4ptSMcSXsmNc4Tt37hyKFSuG6Oho/VhwLuwpvlvbt4ePEl2mLvAxhbRscHDC3L9ctr9zZ1zu0wc5leyOrVhRpytMr1kzQYjnNmyoI7tJUyQ4TV9uVX+uZ0+93VZ58+pZrIyB/v9T2+JAfxHfNELx5fy7HX8IyvClZA8vPc+vrWWcI9hSfIncwMK5EfEVhNTJjOJrcPToUZQuXRoxMTHmGsGZsKf4LgwPR5CnJ+6Zb59NKWUawuhy5fSAS+alt1DCOrB4cZQOCsJfFnK7uV079CxaFAEeHphYpYqWW2MZxymVCwnBpKpVtbhyu8a/XL5PyXRePz/9OqmlYoj4mmmozjAqVaqU4croYrnROnugzWUple3bt5uPyoSIr3Mj4isIqUPxLdHVC+WH+Dh04VzzY8eK+AqJ2FN85zVujGxeXvjbIqe3Xf78eqAbn8eIsKeSTt45jYPRDHFl2dmxI54qUwaFAgK0FF/t0ydhGQe55fLxweXevRPqWJjywLSKUPWaHMh51TyP9f2KiG8GZ+ucmfinYjD+bFsdO96bhj+OHzMvSZnPPvsMv//+u/kR0K1bN3zzzTf6/3fv3sX777+vJzUXnAMRX0FInRkzZmD8+PGZoixZskS39QZs78uXL/+vxUdwTOwpvitbttQR21v9++vHFNv6OXPi5cqVtXDyBithSmAD1TrGnQZP9+ihB+FzXmo+5mxUfmp/FzVtmhDVDc+dG08oKbZ8beYAt1FSzXxgyu/9BtBZFhHfDM45im6lkITyT8082PtYN+xZtTzFfK2dO3fC19cX/dUX79SpU1p8582bh++++w5l1BenevXqeuCb4ByI+AqCc8Fpy8LDw/VNiyg97BM41oPtPjt7BkJefPFFq6iwkHmxp/hSWjnTwub27bXI8mYqYd7eWNKsmZ5q7PHSpVE8a1YU9PfXg9SYjzusVCl0KpQ4VSuFljM7MKeX0st8YT8lyhzYbxkhZnS4ZFAQjqrXNKQ5LUXEN4PDhioqoraV/BrlVnhp7Hr1RZw9esS8diLN1BcmS5YsCAgIQJ48eZA3b164uLjouq+//tq8luAMiPgKQsaHUnLj6lXzo3/PiBEj4KnkoYeShm+//VanwW3YsAF169aFmxITjgUR8XUO7Cm+zMtlhJezK/zSrh0iS5bUg9gos8zh9VLCyUjud6ow5WF1q1b4qnFjPf3ZLPXd/DUiAv2UEGdTsmxEhLmc6RN/WqQ+3FZCzXsVcJaHGbVr64gvi0xnlknYNX60TfG93rw8dr02Hqf37TGvmciaNWvgqj5Yiq5lKcK58R7yhy1kbER8BSHjo9PYGhbB/hH9cHD7v7/D5smTJ/WVv6R9AEsTJQeS9uA82FN8WThNWZXQUD2DQ5HAQC23fE7/YsXQRxVGdhm5HaAEt4dyEg5ce7xUKS23FODyISH6OUZ0l2LbvXBhq9kaOCtENfUaHPBmWTgPcGr7J+LrAOz+8YdE4a0YguMDO+DALz/fd2oaftF5aStpg8c7ugnOhYivIGR82GafUfK7Y9Lz2Df2SVaYlzw4vXr1SrjSZxQGRNavX69fT3AO7C2+LMy3ZYSWUmtredJCyWVUmDnAnJfX1joPq4j4OgBacOsU0OJ7tkvDNI/MZV6vZaMXqs6Obt26ZV4qOAsivoLgWFjeYfPXxQux840JuPTHH+aatPPLL79o4bEUX85gJNFe5+JRiG9GLiK+DsKRx3to8f31vWnmGtOX+X5QkHnbSqPB4y2MBedDxFcQHJdDWzdj3+M9EVcnP3avXpnuSHDVqlWtxHfZsmUS7XUyRHyti4ivg/D7hzPwjxLfE/v3mmuAkyP74+je5Pm9lrz11ls66uvj44MLFy6YawVnQsRXEByfs8eP4eqVK+ZHwOFftyIqDVfwZs2alTDeg1OayVy+zoeIr3UR8XUQ/jhxHDfaVjc/MrFz+WLcaFoWZ0+eMNck56+//tIpDkP4gQtOiYivIGQumArx54A2uNGgGH5//WXE3LtnXpKcqKgoPbMPxZfTmEm01/kQ8bUuDiu+vFyzfPlypylLly7FgjFPJKv/vE8nfN+/c7J6y9KyZUu8+eabNpdJyfylXLlyePXVV20uc8bCtkMQHB3K74GtW3D4heGIN+cEs84yP9hg4sSJqFGjBu7dR5CFzIuIr3VxWPHl2WuVKlX0zAXOUqrZqGOpaqNOihQpyQvbDKb+SNTL8Xn66acxZswYKRblrSeH4Fy3xvj6f0/jeYv6Pn36oF69ehg9erTV+lKco/BzZ7rLqFGjbC5Pa2EQrUxwMEaVLYvR5co5bBmliqvqBxxSfKXzSsK1PzmizfxAEISk8IYw7ACk7XB8+DmOHDlSd+pSTGXcmNHYPek5oG9T7GxVHWNGj7K5nhQpzlx4AsD2Q8Q3M/DiMGDyKPbu5gpBECwR8c088HP8t5duMy1Md7hxzfxA8dMqYOsG4G9JdRAE9gMeHh4ivpmCS+eBNpWAj6ene8obQXAGRHwzDyK+6WDhJ0Cz0kBEDeDALnOlIDgnIr6ZjdPHgJlTRXwFwQYivpkHEd90cicK+GEB8Oclc4Xi8nn+KMwPBME5yDTie/78eUyfPl3nbkyZMgUHDx5M1rlxtOuiRYvw22+/mWtM8J7mCxcuxNWrV801JrZt24bff//d/CiRU6dO6fWNwm0ePnxYv5mCkJmxNWI8rdy+fdvqd2NZFi9erO8ytXv3bvPa/w0ivpkHW+LL7ydnLmCHJp9xKty5DbQsBzzZFdi0WgRYcBoyhfhu2bIFISEhyJkzJ5o3b47ChQvrGzYknbZox44durGsVKmSVYP54Ycf6u0NHTrUqrHs1q0bBnPajiR8/PHHcHNz03dFY+Fr8zGnDMtQXPzDFAEWhIfEK6+8gvnz5z+QAJ8+fRrZs2dHWFgYsmbNqn9z/O3wMX+zrVu31oOV/ktEfDMPluLL7yMDHyVLloSfn5+et3bEiBHJbtHOOW35PeMIdcvvwE8//aTnu/7uu++s6t977z2MHTs22feFwROuX79+fV14G+DIyEgcOXLEvIaDcOWiOsjJwBOdgb9lYLSQOpRF/o4eFAY3GjVqlPDbsSydOnXCk08+iS+//PI/DSQ6vPjy7L5IkSIIDw/HzZs3dV10dDS6d++OfPny6f8bcPobyjEllRFhA4ovpzjy8vLCzp07zbX3F9+8efPi7t27+o27c+cOBg0apBvbtMyTaOz3f/nBalZ+C3SqZWrcBOEh8PPPP+vfD+cEXb9+fbq+w8Zvk2XTpk16O4cOHdKP+Xu4fPlysqsu3L4h2Xw+RYf/WpJSvS24PRHfzIGl+L700kvw9PTUV/y+//57PW81T6r69etndZL2ww8/6LaeJ178vhlQeFnPvoT9iAFPxNq0aZPs+7JmzRr9+pwfd+rUqRg3bhwKFiyIUqVKpakPyHDEWgjAzm3Aa88CJw7zB2OuFAQT/M3Rrz766CPtQOmFV9j5e3n++ecRERGh+wGeiPIxf0vPPPOMDq78l37EbTu0+K5cuVL/nx2oJTzz7ty5My5eNEkfPyxGZ99++20txJMnq7NcMxRfRpxq166tI8ZGQ3k/8eU2jEaXcBuMZvGLwEme+UEazJs3T3+YhGc7PLPh82vVqoXt27fr+v+Mqep1+4QD9xJPAAThQWGDUadOHf2bY4PVvn177N+/P90iye89J1RnI2jw2muv4YMPPtAizAaRV1AqVqyI0qVLazHhySXlokmTJjh37px+zo0bN3Skjb/tatWq6ZSJ++2LiG/mwRBfprn5+vrqFDfLzvKzzz7TMnzmzBlzDbQIMzrr7++Pr776KuF7wO+Xt7c3AgMDdd9g1N9PfPn9Z9DDgH0R94mvxztmHj16NOF5jDxbPub3nq/JOyo+7M73X3PyCDD+caBeQWDOmzJeREjGkiVL9Pe/QoUK+sp60t9HWmGaKK/OW0aQL1y4oNt1ehi9jr8x/k4YdOHv/Y8//tA39GJ6qeXr0vV4YsurMZYnu7ZwePFlY0eJTO1AGWFiw8ZGkikNnMzeeA6ltXjx4ti8ebN+MxgxIPcT32zZsuncRDZe7KzZIT/11FN6ORvOpk2b6v8TnsW0aNFCv17VqlV1B85oWY8ePVC2bNkH/tKkiTgl56sXS+MlPDTYWPH3ZxT+ZnhL7LNnz5rXSB1b4turVy8tGmzocuXKpQt/ax06dNCv06pVK3zxxRcoUKCAvvzMxqtr164oU6YMFixYoK/oUHRs5eUbiPhmHgzxnTt3rm7br12zmL5LwSAE21kj3YGRXKbV8LvCifh5cmV8D9iOcxn7k6CgID2Og6RHfGfOnImAgAAtvewbihYtmhD9ZZ/CaDIf8/fDiDPTMijaHTt2tAqiZAh4vDevA2cTf5/Ys0PVWb/HgnNCYaxevbq+SsK2makLa9euTbdI2hJfBh+ZUnflyhX9O6Fc80o9+xn+FuleOXLk0G39unXr9G+TwsvfLV2QJ8FMmbhfNNrhxZch8/Lly1ud6duCUtq4cWO93qpVq3SjaUSJDfFl4zNw4EAdYWKDllqOL6PEbMyY4sA38fHHH9fbSEl8GcniB8PLcdevX9eX2hgNTm3fHQFKPb+oLJaXq+9XzzM3Fp6MGPC9MOqNqB4x6ilXe/fuNdea6vfs2ZNQLLGst+y4eILDM0gW4+SH8IzSqLfsiDjoyqiPsbhBCH9s/OGyWP7IGPkx6jmgy+DHH3/UdbyMY3k59dtvv9XfKRZ+Lwy4rlFv+d6xU33jjTd04dmxAfOijHq+VwZff/11Qr1l9Ivb5e+HxTI3kZEyo94yJYjSyToKJkXDEF+jsBMfP368lQykRFrE991339X1/L3y9Yx954krTxr5/WDjZ3yObMTq1q2r9yEl+H0R8c0cGOL78ssvo0SJEql2Yvw9Mf2BvyUGK9hRsl0iFF9esaM8s/1nP8DvSmqpDrz6wI66Zs2a+rv44osv6ufdT3ybNWumJ9Hnd5bjTvi6hmhnaCYMBxoXAyaNBK4mpokIzgmvbNODjPaf7Tl/K7/++qtVv3o/+JtMTXzZ1rNfnDBhgn4No//knQh5ZZ3/p4s9++yzejt8ff7OeYLL36ItWO/Q4svLo+wkk77RbGB44HzzKCuUU0onGyqmNPD5fHOJIb7cBoUhODhYD5RIa6oDn7d8+XLd8DHCkFR8+ToUX+7vW2+9pTtxfjAcZMEG1G6d8LnTwFwlEyl8Gf4NFBhePmRhJMOAcmLUs+E3uHTpku44WBhpMeAX3Kjnl96AAsk6/tBy585truWN6mIQGhqqi+V2iFHPYimy/KyLFSumC09GDHgCZdRbDophlN6otxRQfqbMdWUxOlDCH79Rbyn1jDCxjj9YSzHlFQBui4UDwAwoeEb9sWOJgxTZafbs2VMXy3oKn1HPy0AGzEM06pmWYDBjxgw88cQTuhw4cMBcC7z//vsJ9ZYnGbNnz9Z1/E3w8zQaPKPw/ec2H5b48rdBNmzYoCXF+Kx4EstIL09UGHFgo8fPlIURN0afU/pNifhmHvg58nfN73daxJftOYMf/G2sXr1atyU8KeR3wRBf9huUVI732Lp1a6riy9dmH8ROmVEvtlkMqLDvSUl82ZGzP5o2bZo+KWedw3wfD+4GXn0WuGw+4eZ+86qiGbYXDBSw8HK1Adsd1jEoYHmyzsvSvGzNYnnFaNeuXQn1licFvJrDCD9Pzi3bMst6phMa7yffX6OeJxlGPddn2iP7eSNqSLj/Rj1PuI16fqasZ/rVN998k1DPwADbXZ7wUASN+uPHjyfU0xeMep68s/1mO8rvjSFm7A/YrrGe3ymjnv2KUf/CCy8k1PO97d27t27T2d4Z9QzA8PbUrO/bt2+CF3G5Uc+20/heEl5xMPoZy4AM1zXq2V8b9O/fX5/ocZIAI+JrWeg33Cde+UiNtIgvI8l8//gb5e/G6JuZtsQ0Nway+JoMzPCz5PqMRjO9NCUB5/vh0OLLKBr/bzkojRgNE8WL/+dB8jIWv7gsbAB5336+MZbiS15//XUtSxy1m9YcX37h2FlzWxRfCrYBz0r45eGbTXEyIr28dMsRyEYe8n/OedWwtKqgWuF55oqHB987SiuLZYPHY7ZVLzguzOnib8uyoeNIXMtGMzXSIr4caU8ovjwZNRprQ3w5mwt/1+wceZbPwobPMkqdFH4fRXwzB4b4zpkzR5+IJe1o//zzT93GUn4YyeV3iO0tO1NeneD3j52+0aka4su2jM+jyPJ7nZL4Jk11YCfKk2NKcFLx5VUdQ3wpERQZpsfx+8sTYcsTaofiutrvbvWAz2YAF/5AN/W7ZL49j42/X+N9GzBggK5nap+laDJKx36YqYe8gmbUc7CiUc/3zqhn4IgD2dm/8j026jnQyqi3FFDKkFHPvtmoZxvGNqRLly76+2PU84TIqOeMHkY9T7JZz8IAgFFPQX/ssce06L3zzju6fSFsgxi4YD2vtBn1J06c0ELGgVy8omXU82SAV9NYTz8x6vkdNup55diopyjyxImuwmCDUc/vl1FvuR3ur2W9pfDxpIDvX9LBanQUo94yEGSkeHJblv0AC38T/L3wfTFe+36kRXyNK7Ycv8EghxEAoYBTfJlvzN8Rr9QwLcIoSXP+LWG9Q4svI378QVFk2Xiwjm8YI2uMurIRo7xyQJnlm8AILT8knv0nFV9GFxm15NlMSuLLMw+KHD8w/sv8LjakjBLwx8lGjl8ifmH4Y6f48kvM3BR+kIRnuHzzLaNt/zlH1WtRfs8nXvIWhLTC3wg7Ev7++H1nFHvfvn0JHUFaeRjiy987hYcdF+HJFRu/Tz/9VD+2BdsAEd/MgSG+lAx+l/g9sGzj+Ziiy0ADI7vsRNnW8ioMCztuXnlju2wpvoRtNHMF2Y6nVXz522A/wigf5YDBEUMk+FpGn0DRoOiwA2eaDvfBMoroUHAKNN4OeVBboHcT/sDMC4TMDqcLtBRfDi5mINLwqLSQFvFlFJ6/jZTEl1cS+Dvn1U+uZ6zLqH5KvymHF1/CA+elUF5qpfDy3/z582up5ZvEBo2XKSyhkPI5PItKKr6Eb9z9xJcfOCWWhdEDPuYlDL6hfMOZ9kDhZQSA+0Lx5fbbtm2rG0SG6dlJ85KBZd6oXbhwVp0CSgMlpB9+t9nhM12InXZKDUtqPAzx5W+NV1fYcPJ3xQgbB7rdL/Is4pt5MMSXMH2A3xHKLjtKyiUfMx+dnzlnHzGiuwaMvvFqBXMGGVW0FF+ux46dfQBT0pJ+X4wriowoMvLIy+kcUMMUCV6+53eXHSuFlpdiGQFlp83tM3WKkWR27Pw9UXwpDA7/nfzL4orevp3qTfoeqgM2VwiZCV6l5veWHsZ2l7+DB5HIhyG+vNLDk0rm5TMthr9HBkSYdprSbypTiC/h5SPmJjIPhmLKzo/LGb1dsWKFzcvsbJAYkmfk1fKyDOEbw8aN0aykMB+Hl2WMwkaLuZnG8/kvGz/mCTGyzA+D+UWEHzAvlfASD4Xb8gN/JKTj7EwQeALJaFZ6zuptwd8nf5eWl9aYm8foHbfNPC1jlD7/5SVI/iYJo3b83RLW8ffHfDr+rmz9zi3h+iK+mQNL8WXnx5xG5ngz6MBgxLBhw3T7z+8aAxAU3KRtPC+BM+2Al7550mSIL2HHyyt/zKVM+n3hpW8GPSjLLBx1zpNBduTcLoMZ7dq10/vD9XjJm3mH3D6/r1yfnTqDL+zA7R78+K/ZugFoXxVoXUGduf5gygUWMg2TJk3SwQmmcaQllzcl6E88KbQcBM5cfKaN8Ioef7fsE/j747r8DRniO3z4cD1RAPsL+hvll783nvAyVcYyFTUp/I1mCvEVHgAOUBjWSZlF4sAsQbgf92tMHAER38yDpfgSfqZMa+CVPp4sPerPmN81pjTYEgPWMajClAuulynRaRArgWMWqXyWUWHBIaEsMrhoOeAtI0B55lzZacmXF/F1Zhi1e2EY0L+F+tZY39pTEDIjIr6Zh6TiKzgAfZuq0gxYvQSISYyuC4I9EfF1du7eMd2n/RfT1FGCkJkR8c08iPg6INf+BL7+0DQQTuYCFh4RIr6C6XbG8l4KToCIb+ZBxDeT8Mcp000x9vwq/ZBgF0R8BWt4m0pByKSI+GYeRHwzCZwL+PXngfASwLjBSn5lxiHhv8VhxZfTzHDuRY6ilfKQyvz5uNqsHE5+/K7t5VKkOHjhtFUivpkDEd9Mxl83geOHzA8UR/aZBmDLb1V4yDis+HL+WykPvwxpWBvnK+dA++IFbS6XIsXRS61atUR8MwEUX873yVu/Ssl8ZVHHJrhdJTvwXCSWTH/D5jpSpDxI4f0bOB+9w4mv8N+xc9li7F6y0PzIeeAcsJwORRCEjE+fPn30HLtSMm8Z1a83lg/ri/F9uifU9enWzWodKVIetPzb+eiTIuIrOBy8dzrv/iIIgiBkPJjacrZ/a/w2ZSwunj1rrn24bNq0SV8KF4T0IuKbSTj6+2+4/ajvLmcnKlSooPN+eGcwQRAEIeOx/+eN2PN4T9wNL4W7D7lv4u3SeQewrVu3SjqUkG5EfDMJh8cMxpmh3axu5ZkZ2bBhg84Z5Gwh3bt3N9cKgiAIGQ1K6XWLO3RduXABv87/Ardu3jTXPBiffvqp7gd69OghUV8h3Yj4ZhKibt3C6T6tcHDC0+aazEnbtm219LJ4e3vj+PHj5iWCIAhCRubkoYO40q0hbjYohh1zP3ygaC3TKCpVqqRnjPLx8dG3vhaE9CDim4m49uef2L9+tflR5oOpDe7u7gniyzJixAjzUkEQBCGjw4FKh7b8gv0b1iaI741r19I8gGn58uV6pL/RBwwfPlyivkK6EPEVHIaRI0daSS8Lz/jPnDljXkMQBEFwNHY9MxQXujbEb59/hNu3b5trbRMeHq6jvUYfEBISgosXL5qXCkLqiPhmUvauW42D6qw6s8DBDGFhYVbSa5Qnn3zSvJYgCILgaERHR2Pnwnk426sZjuzYluLNMLZt2wZPT89kfcCkSZMk6iukGRHfTMq+5Ytxt0kpHN+721zj2MyePVs3cAUKFMDo0aNRqFAhPPPMM/Dz84O/vz/OnTtnXlMQBEFwRCzl9e7duzj47GPY+9OGhBsYcECzZbTXKPnz58fBX7fhT4n8CmlAxDcTs/fjmbjepb7Dz/TA3C8OZnj++edx69Yt/Pbbb6hSpYpedvr0afTr1w9TpkzRjwVBEATHR0eB33kV18JL43yflji0fz98fX11asOrr76KHDlyYNq0aShWrJiW30/HPInDA9sjRj1PEO6HiG8mhgMHzp9w/FkPGM3ds2eP+RHw+++/J4ivwYULF8z/EwRBcD44w83MmTPx/vvvZ4piRHmZ5nZyzy4d+ODVvmMH9uP04UMokC+vHt9BQX777bcRXqkc/i4fiD3jRyMuNlY/12DBggU2X8MRC2/cIXMX/ztEfJ2Ih33bv0fFkSNHUKpUqUxzPIIgCP+WhQsXwj+PPwq0K4AC7R27ZHHLoq/uWXL+/Hn9755Vy/F3/UJYUcQf21csS5DAMydPIr5WHqBiEPbOnq7qE9MmKleujIa5cqF9gQIOXcoGB2PkiBGSz/wvEfF1EvZtWIs9L47KFD8YEV9BEARrKL6FOxfG4PjBGOLgf+5+7snE15IrFy9iapl82DzvswTx1XcubVoKqJAVqBKKfesTp0uj+P7esSP+GTIEcODyVq1aGDVypIjvv0TE10n46+ZN/NG1Eba887q5xnE5evSoiK8gCIIFziS+JF++fFZTWR4ZE4l/qmU3ia8qtxsWw+mDB/QMESK+giUivk7EhT/+wIXezXH9zz/NNY4J83kLFiyImJgYc40gCIJz4+ziu3PCs/inYlCC+LJca10ZN65cFvEVrBDxdTKMAQOOjIivIAiCNc4qvkxn2DFrOv6pnM1Keo1ybFAEKpYujd8jIkR8BY2IrxPDWxw7IteuXUPevHn1aF5BEAQh7eI7+J/B6H68OxrPb4x2m9ph0N+DLJba/hsUOwhtN7VFg08aoM2GNoi8F6nrua1Ouzuhw/YOCaXbsW7mZ5n+IqMj0fS7pukS8rSKL6ez3DVzmrX0MupbLTtiauXFjebl8Ff/luibL1uaxPdeZCRWt2qFb5o0wYXevfHP4ME21zMKl5/o3h3zGjXC982b42q/frr+1oAB+LVDB2xPUg506aL3IXbQIPzcti0+bdAA69u0QYx6nHTbtoqI78NBxNdJOXlwP+40K4eTB/abaxyHqKgoPYcjp7kRBEEQ0i6+LVa0gLuvOwIKBcDN2w0lB5XUYmu5juUf5bb0sNJw8XRB1hJZ4erpioIdC2r5HXBnAHxy+VjdTKJQx0JW+9DkmybwCPS472sk/Uur+O74cSWOT34Wv745CTu+/ASH1/2Iw7t34eLZM7hnERhJS6rD30o+W6lt+ru7I5+fH0K8vLSs3u8561q3RqCHB3L4+CDY01M/72i3bvilXTu42bjRRi3Vb/F1hpUuDU9XV5TImlX/G1GokK639RqWRcT34SDi66Tw8tDONybgRodauHr5srnWMRDxFQRBsCYt4jsobhCCSgeh1NBSiIyJRLvN7eDi7oKI3yPQ73o/XSi6XHdA1AD9uOvhrlqQmy5uqqPDrda0gquXq/6317le8M7uje6nuqP/zf66DLwzUD+/095OyN86P9x83ODu7/6fiK9lju/9SIv4LggPR4CS2P2dOyMmMhIRBQuiTf78uDNwIC736aOjwVwvfvBg/Nm3L+6q+mZ58qBb4cK4PWAArqh1KLIvq9eKVssYMTbK7k6dkEvJ8ecNG+Jw167wUrK7uFkzLbtrW7WCu5Lk9UqiU4tIi/g+HER8nRjOirDvtZfwx/Fj5hrHgHnKvHvP7du3zTWCIAjOTVrEt9vxbnBxdUGnPZ1MNf8M0VHc6lOro9KLleCb1xc9/+ippThHnRwo3q84mn/fHP4F/THg9gD9nIHRA+GT0wd1Z9fVqQ0BRQL0sn43+mmxNr3SEHQ90hXVXqmGor2Kwj0g44tvZIkS6FCggE5D4ONvlAgzmstUhkL+/ni2fHnEqWWLmzZFdiWxjAYzQvxjy5Z6u0x7CFciPKZcOS3HxnZZP7hkSb1tiu4SJbx5fH0TRJqSHeblhY/r17d6nq0i4vtwEPEVHJKAgIBUG0ZBEARnIS3i22JVCx3hHXjXFJXlX77W+VDmqTJaXJn+QNmt+VZNeAV7aVGmBFtGgsO/DYebl5uOFjeZb0pj8MrmhSwuWRBWNQwdd3fUQm38MVL8X6U6PCzxpZw2yJkTz1WsmCCfv0VE6HSF87174/06deDr7q7zcosGBuKJMmW0BBvPX6RkeLiqy6YElmkOlq/DXF8K9E7z61N4r5tzgfm636nnMuK7LZW0ChYR34eDiK+QwP7NjnMrRBFfQRCERNIivuGLwnV+7+C4xHWKdC+CEpEl9PMoqZRarlPrnVpW22I+b7XJ1eDh54EyT5bRIltnZh1kLZVVpz10+LUDstfIjuCywXpAm/E8RxHfqqGhmFi1aoL4MiWBQnqse3f8rWS1bo4cWmAL+vvrtAbL5zNazKgw84MpssbrcFudCxVCr6JFEyLJRmF6xCT1enzOU0lEOqUi4vtwEPEVNMyXPRdRB7999qG5JmOTO3duPa2ZIAiCkDbxbbW2VbKIb/42+VFudDn9vMi/I+FfwB8eAR7o82efhHW6He2GsOph8MnhgwZzGyRILFMbjBke+NdmYxs9+K3bkcSZHRxFfJuoPuW5ChUSxHenOeJrSO7HDRrAVT1myoOtlARGcnsWKYJKISEJkntSSTPFlpFiy9c+3q0bqoeFIac57zct0ssi4vtwEPEVEjh74jhimpbB3tUrzDUZFzZ6Z8+eNT8SBEFwbtKT49txZ0f9mOkLgUUDUW92PZ2eUPu92vAK8oJnsCcqPl8Rg+IHof9f/RFUMkgLcp/LfRJSHvjXaF4jtP25bUJqQ7st7XS0uOfZnuY1HEN8WRi1bWuR4/tV48Z6lgYOYrvVvz9KZs2qo72c7eFkjx640KsXsnt7W233vTp1UDggQOft8vFrNWroAW9GPi8Lt1VK1bXOn18PmjPq01JEfB8OIr6CFUe2bMI5Bxjsll81GiK+giAIJtIivkxxCKkYgmJ9i+kZGOp/Ul/PusBZGSir3tm8UW1KNZ3CQPnkbA/M6fXM6omWP7ZExG8RCaXv1b4oNaSU3l6Psz10HjCnOQurFqYjx8ZrOor4ctAZ83i3tm+Pi717o0aYOo6SJXU09n+VKiGnry+OdeuGUkFB6Fq4MO4MGKBleKASZubsnu3ZUz+ni1oWN3iwjiJzsBsHtllGiL9t2hR+6nXWtGql84iNwpkiLPfHVhHxfTiI+AoOSbly5bB3717zI0EQBOcmLeLLv1brWmmRZTqDi5sLqr1aTT+nSI8iCCwRiP5R/fWAtuy1siNXw1yo9L9KcHFJPidt/Y/qo/vJ7jqnl3nBHv4eOhWCN7pwtMFtLBRc5uNyXl0vNzcUCwzEqR49sLdzZy2qHOBGgV3evLmejmyZ+ndheLhOZeByPqdscLDODebrMIc3t48PPqxXz0p8x6t9YcpE0vfzkwYNbKZQWBYR34eDiK9gE/6wdr43DZf+yJhRVRFfQRCERNIqvkxV6H2pN1qtbqXvsmakLnD+XctBafoGFbcHmP6NGpCsGHd84/RmETsi9CwPTIswnm/8UXi5HcsUidT+HoX4slB+eYe3jW3aIEqJK+s4BRn/b0gpI7mUWqYz8P+cp5c3stilts+0CGNbxnpJB7Ux7YHbS1rkBhb2Q8RXsAl/WLsmj8XVLvUz5Hy5bMh27txpfiQIguDcpFV8HeHvUYlvRi8ivg8HEV8hRfQNLp4dht/fnGyuyTjUq1cPP//8s/mRIAiCcyPimzIivoIlIr7CfYmOjsZfN2+aH2UcRHwFQRASEfFNGRFfwRIRXyHNMAKcUWjUqBFWr15tfiQIguDciPimjIivYImIr5BmDr0wAjvnf25+9Ghp27Ytli5dan4kCILg3Ij4poyIr2CJiK+QZo5u24K/G5fAnlXLzTWPDhFfQRCERCi+OWvmRPiCcIQvdOzC6dEetvi+XqOGnn7MkUu/4sVFfB8CIr5CutizdBH2jxpofvTo6NKlC7766ivzI0EQBOdmw4YNqFOnDmrXrp0pyt27d81HZpv0iG///v0zzXvz9ttvi/j+S0R8hXSTEXJ9+/Tpg88/zxhpF4IgCIJ9SY/4CoIlIr7CA3Pnzh1ERUWZH9kXEV9BEATnRcRXeFBEfIUHZscnH2DfoM64d++eucZ+PP7445g5c6b5kSAIguBMiPgKD4qIr/DAUHj3DemGnc89jn/++cdcax+eeuopzJgxw/xIEARBcCZEfIUHRcRX+Fdw5O22t6bYPdl++PDhIr6CIAhOioiv8KCI+AoOyYsvvoiJEyeaHwmCIAjOhIiv8KCI+AoPjVs3b2L/OvvcTU3EVxAEwXkR8RUeFBFf4aFxaMsviKtXCMd+3Wau+e+g9I4fP978SBAEQXAmRHyFB0XE18nYvHkz5s2b95+Vj/t3xd0GRbHwkzk2lz+s0qtXL7Rq1crmMkcra9euNX86giAIQloQ8RUeFBFfJ6Nv374oHRSERrlz/yelsSpTS+RHsyT1UmyXStmyoUmTJuZPRxAE4b/l2rVrWLVqFVauXOnQJSwsTM/lbmuZI5bjx4/bfXYkZ0XE18mg+H7WsCEwZIiUDFDWtGol4isIgt1Yv349Ajw9US4kREoGKWHe3jp9T25FbB9EfJ0MEd+MVUR8BUGwJxTfRnnyIH7wYJttkhT7l/9VqoTJkyaJ+NoJEV8nQ8Q3YxURX0EQ7ImIb8YrIr72RcTXyRDxzVhFxFcQBHsi4pvxioivfRHxdTJEfDNWEfEVBMGeiPhmvCLia19EfJ0MEd+MVUR8BUGwJyK+Ga+I+NoXEV8nQ8Q3YxURX0EQ7ImIb8YrIr72RcTXyXiU4vt3ZCQu9u6N6IEDbS5/GOX2gAG43q+fzWUZsYj4CoJgT0R8M14R8bUvIr5OxqMU37nqdbNkyYLJVata1a9v0wY/tmyp/3+2Z0/MrFPngRvlt2vVQot8+Wwuy4hFxFcQBHuSHvH9R62zq2NHfNGoEZY0a4YLvXvbXO9RlfO9euFgly6I/Q8l/g/VJ13u08fmsodVRHzti4ivk/GoxJcNaIu8eeHt5obyISH6sbHsyTJlMKB4cf1/SnCwpydiBw1KWJ6eIuIrCIKQMmkVXy5/SrXNPqrNzu7tDX93d4R4eWGekuB/1HIKIYMYdwcMsPn8/7pw/+rnzAkPFxfs69xZ7xPr/1Z9x+s1auBot2768fdK2Bc1bZqwPL2lV9GieLFy5QcOxqSliPjaFxFfJ+NRiS/PmL1cXfFq9epwyZIFh7p21fVb27dHldBQlAsOxicNGqC3amS43sQqVRCnGrAL6oz++QoV0KVwYTxdvjxOdO+un8dG7Oe2bdFTrd9VLfuqcWPdMFmKL1MqXlOvt4BiqR7zuaPKldMNGV8rJjJS1y8ID8eKFi0wQb3m53Z+b0R8BUGwJ2kV322qbWaggpHeOLUuU8i6FymCvL6+iOrfH7926IBsSoSvPaLUsmNKbCnjFHMKuHE8bPfz+flhZcuWup8YVro0IkuUeGBxFfHNfIj4OhmPSnw/qFsXeVVjxEYpp48PplSrput/UvLKWzaWCgrC+3XqoGPBgvBU4vusklyKb90cOVAze3ZMVA1bbfX/CmpdRoPZ6PqqRo8NMRs2yvIPSl4N8eU6fYsVQ5GAAJzu0UNfomNj2CBXLh1hDvL01CLNfaA8M8pcyN8fH9WrZ7Xf/3UR8RUEwZ6kVXyZmpZLSe4tJblGHdMK2IZSOnuotpft7hOqPb3Uq5duT1co2exQoABOde+u0xCGqra5Xs6cui0+pJ7Lbezu2BFTVHvO9InWqq3mdg6oZZRUCvZH9evrbTxboQK+DQ/H4hSitW/UqIHywcF4rFQpVA0NRYxq81nPYAeFuHX+/HhX9Sll1Dols2bFZw0aIF6ts1L1E50LF0bzvHnxghLOG2ZxZ3/D9Rup42ujnsv+hO+RpfieUn3J8LJl8VObNvox2+9uav/bqf1l0CQ2MlLXv1SlihZv9i0bWrdONdos4mtfRHydjEchvmwIGuXOjRGqwWCKw+CSJVHRIt0hpVQHDoZrpRpGiiuXbW7XDh6qoeUANkaGw1XjzYaS23lcNbBjVUNJ8W2q6oerbVK0D5sjyy+rhogpFsbAuvmNG+vLdn+pRp2NU2kl3pYNvL2KiK8gCPYkreK7qW1buLu4oFOhQliuJPCGah+N57CtHKaE01u1xy8qaWMb7efmpgMKLVWbTTGuERaGykpI36xZE83V6+VX7TGv/DHtwEutSxl9QQll0cBALZsUzzlKegM8PHRfwe1QrG1Fa/mY26e4/qjaUG7PkOdZdesiUG2D7fpcJddV1Xrsb75TEs0rjQFKitk/TFP7VcDfXws7X/st9ZivPV7tE0XdT63H4zDEl8ETBl4ouVGqD9qo+iq+DvuukeXK6fXfr11b911F1DFxWV0l/byqKeKbsRDxdTIehfieU2f+bEC7qbNsCmh71XAw3eGIWUrvl+PL3K3nlNCysWEjxe1QfNmQvWKOGrMwbeGeKhRfRoy5/c6qwTYazLbqDJ6NUX/1OiwRBQvqgXYnu3fXDST3wdiWPYuIryAI9iSt4suAwnQlg4UCAnRbSQllAGO1OYVgh0WqA4XWV8kn5ZHP42BliiDbV26LopzLxwcf1quH75T4so022v+FSkhDvb11xJYBCKbDcRsMalRX0mpLfA+qfoGv93vHjlpCc/v66igy17tfqsOWdu0wRkkq/8/XYN9CwWZeMMV8kuqfuIylmXqPGHHuWaSIFuWaal8aq+O/aQ6QsE/ppwSZ0szHTM+rmC2b7ovY1wxUr2ksS62I+NoXEV8n41GIL2WUkYAOSjZZKL48G55qFteUxJeXy3jJitL7Xp06+Lh+/QTxZfSWkQTjNdj4sUHia/H5zNdl48qzci7nwDqmTLBhtiy8zEXxHWNOe7B3EfEVBMGepFV8jRKtRG53p06YVqMGyigxpdAeVdJqmeNriO9etR5l803VDldWEmiIHyWT0jhOCd63SnwpmRRbLlvfurWOtFKOKddbLCKko5WkDrIhvszp5XM4+I4iy6BItdBQLbD3E18u/7JRIy2zlGqmyzVX4ntV9Ytuqm/Z2LZtwmtzXe4jI74cQEf5Z+CGx8TjyaNkmxHgiEKF0FEV9i85lMDzKiLF9ysOAkyy3ykVEV/7IuLrZNhbfNnY1FINAlMRjDo2BgOV6LJh5P8pvv3VmTOXUXyDVIPGRucbJYRMRzDSEziAzRBfDnbrpCSaz2dhbjDzgim+zN3i6/KMnLlffD4bSO6HEUlmY8v17qhtifgKguAspFV8J1erZorgWtQxb5dBC8qjLfFlDjDXm67aYYql8RpsoymGvErHiC/F0BDfDarNp8T+qbbBYIVlagBTHpKKL8Wzkuo7uH1KKdPemM/L5/L17ye+DKDwtcZWrKhTLp5Uyzgm5JrqF9m3/NKuXcJrX1H7w4AKX4OC+0yFCro/YhSb22IEm8tm16unI9kszFu+p16fx8doMY/b2O/7FRFf+yLi62TYW3zZSPBMep0STcv6xc2a6TNo5lBx1gaesVN02Zi6qnoObNgREaEbI57RM8eKjRmXUYAZyWV0gAMbhqrCRnebei7F15jVgdEHrsN5gfeo/7PBY0PFxpf5v0+oRo8Nk4ivIAjOQlrFl3JYNCAA11WfYdQdN1+FW9a8uW6rKYKMliYVX86Sw/b2TM+e+jHT3fh4uXpeSuLLVDVGUTk4jYPQ7iiB5KDnpKkOnFeY7Tpf35BURlk5aJpXERnMYF/BfTDEl4EWboMD0Zjqxtfm4y6FCun+guNJCqjn8PkUawZXOHvFQtU2MzrMXGLOZMH9YX/BAAoj2JbpDJTqXmpdBm1EfDM2Ir5Ohr3Fl40UGw02LJb1bJzYsO5UyzkwggMlOIqYjQgHF4xUZ/r8P0fiMgeLDcz+zp31czgogdvg/IzM4+1TrBjWcuSsamQ4AO5T9Rzjdfh/yjAbOZ7Nc6BGs7x59Yjgu+ZI8nzVuLGRNJ5jzyLiKwiCPUmr+FJyKZOcdYftLq/aMUDBxzf79dOSyyjroJIldVqapfiybWW+K6eqnFC1qk5DYNSUcstIqy3xZY7vq6pdzqr+z/aeV+g4VVlS8WUQhAPjjPbbKJzhh1Fg1pdQyxsqMT2g+gwGUSjCnHWBKXCck5j5uJTeUCXuPKbfIyJ0PjOj2aNU3xOunsvcZko9gyXGrA7MR6Z0M5DD42Dax1B1/Jwmk8/l4Dz2WyK+GRsRXyfjUeT4Skm5iPgKgmBP0pPjy5tAME2MU5hxbMYbSg4pg1zGqOc7tWppsWSaAq+k/WlexsKABmWZgQZOAXbWPDsPZ1Z4t3btBCnkFGEc0EZhZB2jyUxb4/SWjM4yFc5yXz9vZLqLnBHtNcr2Dh10tJjRWgYyuN+HlYhz+8wV5pVCpi4wsMLp0qao/eXxMSL8s5Jv3v3tg3r19CBsiiyvRnK7nE6NVxj5etzHd9S+U3q5T9wPBlMYgOFMQcYxcFq0g+o4k+5jSkXE176I+DoZIr4Zq4j4CoJgT9I7uM2ehaJLsWSqAyWVc/DOUhKZ1sipoxYRX/si4utkiPhmrCLiKwiCPcnI4stIKXOImabA+X05i4QRYc7MRcTXvoj4OhkivhmriPgKgmBPMrL4snDcB6eu5CC4WwMG2FwnsxURX/si4utkiPhmrCLiKwiCPcno4uuMRcTXvoj4OhkivhmriPgKgmBPRHwzXhHxtS8ivk5GRhDfBUr0OAVO0sIpc4zGmJOHcyQu7/XO6XM46IEjcI1tcDJx3uzCeMzCe7VzTl+O6rWsNwonXx+sXocjcW0tfxRFxFcQBHsi4pvxioivfRHxdTIygvhSaHnHH95tx7IY8zXyNsKcKJz3X3+RDUK1aigdHKwfU165jTx+fnoghOV2f1QS6eHqiuvq+Zb1RuFoYd40o06OHBmm0RfxFQTBnmQE8eVcu0NKlbIZAPnZfPc0zuSwskULtC1QQM/uUDdnTsxQbXiMeU743yIi9Jy7SQMdvJEE529PaSYIzsX7mHqdS71721z+KIqIr30R8XUyMor4hquG19Yylv9VrJhwa0ij8eLIXorvOLWMj9MrvtxO7ezZUVtJLyddP6G2nXSdR1FEfAVBsCcZQXxv9u+v7+hZQ7XJvEGRZaHsUnwpr7xzJ4Mir9eooW9d7K3a7qfLl9fz5fJOn6He3sna+3ZKlHmF0Nbxce5h3lTDJUsWfFS/foaZJk3E176I+DoZjiC+vCsPJzxPOvk3785m3Po4veLLyci93dywqV07fece3s0t6TqPooj4CoJgTzKS+P7ctq3NmzywDWc7zZtLGHf9pKTyqh3vlna2Z88HEt99nTppeab8UrKNu8c96iLia19EfJ2MjCK+eZW4jlBya1lWtmypz8h5ls/bS9p6rlHSK768o0/Z4GB9H/XeRYuibgZJdxDxFQTBnjiC+C4KD9dtOe+6ZlnPWyXPrlsXl/r0eSDxfalyZX1b4y9U/8LbIWeUdAcRX/si4utkZBTxDVMNFm/zaFnYkPHsng3i140b23yuUdIjvmwAOUiOcs2UCd5PnfdbZyqF5XqPooj4CoJgTzKS+HYvUkSnLhiFtz9mDu/U6tVRODAQ0QMH2nw+S3rFl30Lb4jxutr2VSXOvFEG5wvOCOkOIr72RcTXyXCEVAde4uK925PWf9GoEd6sWVP/v3jWrJhWo4bV8qXNmyPQwwN/qUbVsp6zPTCK7KsauiBPT93gcZAb7zNvud6jKCK+giDYk4wkvrVy5ECb/PkTCqWVsssBzSVUG3/PnOZgq6RXfDkYjgGP7R066Ndvkjs3WmeQdAcRX/si4utkOIL4dihYEBWzZdNpD0YdowBsCBkR4ONGuXKhb7FiVmfrlOVCAQEJo36N8nKVKlqUd3fqhL2dO+vSQTWO9XLmfORn+yK+giDYE0dIdfiwfn0dpEgaxIgaMED3H/tVG76seXO9Dqe+tFynlZLZJ0qXTnZ8z1esCFf1msHqORw8zUHOFOGkz38URcTXvoj4OhkZRXwrKbHlYDXLsqFNGy2iG9W/jNCy8TrdowfO9Oyp598N8PDAcfNcvm/VrKkjuIuaNsWf6pj4/Jw+Pni8VCmr1+LoX+b2PmcWZqPMV7LJRu/UI053EPEVBMGeOIL47unYER5q+fzGja2WL1HtvU5TU/0CI7hch/8a6xgBkilVq1odH+uLBwZilOp7GPH9VRX2M75ubved+sxeRcTXvoj4OhkZRXyZapC0cLQuRZXrMA83qzozd1X1PEvPrqT2+2bNEhqoOwMHomvhwnpaGjaEfH6DnDlxOcnZ+55OnbREs6GzrL/cu7dOeXg/SZ6wvYuIryAI9iQjie9M1f5uad8eWy3KuV699L41z5sX+f39sb51ax3ppbAWVfLarUgRfTWQfUDRgAA9O8O5nj31/O8TlfB6KZndpta1FOYt7drpfmJf584J9exLmqr3oW3+/I883UHE176I+DoZGUF82ahRcJMVVW+ILf9lY8eGkGf0zPVKelbOx4wGM2rAu7rZasi5Drdt67l8vUfZ+LOI+AqCYE8ykvgmDX6wTKhSRe/bhd690SBXLh3cYFoClzFF7qLFTAxsP3mlj9vSqQtKevl8tvmWr8dgS8WQEKv0OZZ3a9fWsztcS5InbO8i4mtfRHydjIwgvlISi4ivIAj2JCOILwMPjNDaKtEWYzQ4/eTeTp2wokULndfLx5bbYeEUZwx+cFYfzu+bNMjBwru72bqVPbfH15SIr3Mh4utkiPhmrCLiKwiCPckI4ivFuoj42hcRXydDxDdjFRFfQRDsiYhvxisivvZFxNfJEPHNWEXEVxAEeyLim/GKiK99EfF1MkR8M1YR8RUEwZ6I+Ga8IuJrX0R8nQwR34xVRHwFQbAnIr4Zr4j42hcRXydDxDdjFRFfQRDsiYhvxisivvZFxNfJoPgOKF4cH9arJyUDFM4vKeIrCIK9EPHNeEXE176I+DoZb775Jtq0aSMlA5Vx48aZPx1BEIT/Fopv7Zw59Zy3vEualEdfhpcpI+JrR0R8BUEQBMFJoPi6mu+EJiXjlIkTJ4r42gkRX0EQBEEQBMEpEPEVBEEQBEEQnAIRX0EQBEEQBMEpEPEVBEEQBEEQnAIRX0EQBEEQBMEpEPEVBEEQBEEQnAIRX0EQBEEQBMEpEPEVBEEQBEEQnAIRX0EQBEEQBMEpEPEVBEEQBEEQnAIRX0EQBEEQBMEpEPEVBEEQBEEQnAIRX0EQBEEQBMEpEPEVBEEQBEEQnAIRX0EQBEEQBMEpEPEVBEEQBEEQnAIRX0EQBEEQBMEpEPEVBEEQBEEQnAInFN87OPztG/h4e7T5cRqIO4b5U9/Fz5fizBX/gjvHsWzaCPRp1wj1G7VG98cn4MMf9uLylZ8wZcyHOPwQXiLTcHM9xtXOj/y1nsOa6+a6DEz8lcUYN3YRLsebKzIy8bdwautizHp5KCLqNsH4X2LMCwQh83Pn8HeY9vF2/POPuUITi3Nr38ToxwagQ9WCyJm/Apr1exKj3/oJF2OtVkwjsdi74FVMnjQJk8xl8tQv8euttGwrDseXv4MpFs+dNOVDbLgQhwfZE6cn5goObvgK00Z3Q8NGz2HtnXjnfh9V+3962xJ8MGEYOtYLx4s/30W8E70hziW+MSfx7cj26DX9V9w0V6WVmBPf4PG2A/DJoXvmmvQTd2o+IksHwCt/Mzw7+3usW78Mc98ajdZFfeGSJQvc8g7BqgfffKYj7tArqOnpAhePqpi4L9Zcm1GJw7Fp9eHrXRNTD2b0s5d4XN70Gd54sQtK+7ogi1thPLVRvniCMxCDk9+NQofe07H9hmVPH48ry4eidJEBWHz1H8RdW4tRFf3g6pYX3ccNQdsBn+Bg9AOYQWwUzu/8CoPKeMJVtfFZXALQeMZx/J3apqJ+xGOFPHS/kMXFA6Uj52HXhduqlRHSTywOLX4D47pXQFY3F7jlGYTlTi2+qv3/5XO8Ob4ryvq7wcWtEJ5YdwdxIr6ZkLgzmN+vEhq8vA1R5qr0EnviM3Sv1xfzTj1A8xN/FfO754Cre3E8td56D+Kv/4rpbfLA3acdPkuvkWdqonBw2WzMXnrggT8zuxGzDc+VZkfljqJPbcAdc/X9iL++B7tO2vouxeP6nl2wuehhEncYU2t6ivgKTkIcznzTH5UbvoytSaOusbvxclVveDebhUvm0FfsqXWY+8VGnL73N07M7YH6/b7EyQeK/Mbg17Hl4OmiJDaLCzxKPY1f7v5zH/GKx4VPI5DdxxsefI57aTy7JTpJdFpIL/Gn30YjH1e4ZxDxjb++F7tPxtr4XFX7v3e3/q79p/sYdwSv1fVRTiLim0mJxYHpjZGrxiTs/ldXdONxdk47FKw7Gb+lI1NCE/09+mV3RRav5ph9xVxnQfyVb9G7YC28ckjO6R2Rm98PQIGQYAS6ZoFraGfMu5JKvkPcaXzZvQoilyX/IsWd/hLdq0TCxqKHS/xpvFXfS8RXcApiD7yN8Dw1MXGnkkhznUHc8ddR18sFXm0+wU1b13zjz+LjDoVRb/KvuJNuQYjDgck1kaNYMWR3UyLrmh1dv7qEFB06dj+m1M6Nlj1bI8zNBVk8qmDC3hgnjlA+HOLPvYfwjCK+qv2f16s6Bi29nUw44858hV7VB+H72/9xWkv8GbzdyBduIr6Zk7hD09EoKBRdvr5mrvkX3F6FIQUCUGPSLnUenw7uzENHP9WIuWZDuzlnlEIn5R42jmyCEetFQByO+POY07YA2s38Bk8UcUcWFx/Uff3wfS5L3sHOVxsgyD0HBiS12zs78WqDILjnGIBld811/xUivoKzEHcIbzcJQViXr/CnjdDpvfVPoLDHfcRXcfvHx1Aoaw1M/D25ON8fim8tFBrwBp6r5AXXLC7wqf0qDqSQ73Bn/ZMoUWwols7vh5zuhvj+LeL7L8k44nsHu15vjGyeOdF/SZS1cN7ZhdcbZ4Nnzv5YEiXi+1/hBOJ7G6uHFoJ7UBd8dcNclYx7OLVmJl54ojc6tOmEyKen4sttl1MQl2isiMwD92wd8cWldIxiit2HCVVMOVuuQdUwaukZJM1ajb96Eqeum7Z5c9c3eH38WDz//PMY+/LXMKW4csDDdLz8P1P98y98iM1WqRHxuPbb53h59EiMeeYZPDNuMmZ++ilWHLR4pTtn8MuXk/HEpGW4HnsJWz7+HwZGtELb7k/gpQ834Kwtm793CmtmvoAnendAm06ReHrql9h22frdib1+CGs+fhlDxy/CpfgYnF73AV58rAvaq/XHf70veapC/DX89vnLGD1yDJ5R+zpu8kx8+ukKWO4qP5eLvy3C28+Ow+c2IuGxF7fii8lPoXfndmjVsgN6PTkJn2+5mOx9Tfe+pZO4A1NQq/AAfH8rFnsnVNWXNN2Lj8ImWy4Zfwkbp7REXtXJZnHxR8Vuz6jPciwmzN+PmEsbMaVlXn1508W/Iro9oz7jsRMwf79xRLG4tO0LTHl6OEY8GYnunXriianf4UAKBxB1cAneHjcMvTt2QMdeQzH+4004Z7lPNsQ3/sIWzJs+Ef8bq15b7dcLk97Cl1su2ThREwTH4faaYSjiGYwu865ZXVqOO7MCb6n29JnulfXVGvfi7TD6OX73x+G1Jceto7LRKzEonydCO36OC+lKeTCL76DlOPZRW4QwiuteBI+viUp+mVu1D190zouak/bgr+8H3Ed8VVuw/Uu88syIxLbglW+xP9nAOdUn/P4FJowZZd0nHEgu0nGXtuOLCY+hS5vW6NCpBwaN+wAbTv6BrR9NxJwd99S+3sTuBW/gpXGmtuHlr/aacpXjjuOHtyfgBd1mPI8XPvwFN5IemOpD1s56EU/2iTD1Ia98ga2XYq33IeYydi9+C2OmLMWlmPPYOP1xdGwdgZHzDiFGr5jyMSc9Fr7nl379Bm//7zH07NQF/UZOx4/b30KTlMQ3yf6NsbV/aUH1qdu/nIpnRozAk5Hd0annE3jl2334y3g/1Of709Q2KODlqtv/Cl3H4LnnVPuv+qHoixsxtU0BeKnvoYt/BXQd8xyeU+3/14z2Jxz/PExNcvz7/rKdEhF16HvMeOFx9Olkav9fnPMTzt61WNOG+MZf2Iqv35lk/ixN7f8Xmy+kfHXCQcn84nvzG3QLcYVH3Wm2cybvHcRnA5ug3XNzsXHPQexZNxuR5fzg6lEQXT49ZlN+r85pDV8XHzR651Q6hCAeFxf2RUEKj5JfF4/sqDXsI2y/Yluvya2NI1DSXa0b1AMLLQKDUbsnox4HJXk2wjtnjT2Ix5WlQ1CicFfMPWmy16h9M9E+Twi6L7yjFl/H5lnD0Ci/l5Zvz/ojMTGiNIpUboD6lfMjkA2sizvytP3ASj7vHfwMA5u0w3NzN2LPwT1YNzsS5fzU+1mwCz49xn2Pw7GlUzCgeijclLB51BmLOc+3Qo2GEejTqzlKZnWFi1sY2n98OvG9jL+CpUNKoHDXuTDtahT2zWyPPCHdwV3lsVxYPwMj25XSnRFz3J7bZmnk8Ti3dBRq5CqKiLc24uztWNw8vhEfRFZAgHswqo/8Hmf1iz3AvqWbaPw0oiTKPrNFXwGIPzsLLQLVe+maHd3nXzWtYkncBexa8x2eruGh1glGi8nLsHLlKqzbcwl/X9iFNd89jRoe6uQouAUmL1uJlavWYY8+wYrGrreaIZdfVYzbckN/76IPzUSbMHeENnsPVucF6v1dP6k1ylcbgFk/n8TN2Hs4OScCOVxdEVJvCrYbCcgpRHyjNjyFktkqoO+Mn3De1omQIDgUN7Ggu2oDPOvijePWwhd/4zA2rVqJZZNbaiH1qDoS36xYoX+TPx28lqRduIqP2/rD1bcR3j6RHikyxPcH3Lm1GsOKMADiiuC2H+NcEqOIO/ga6uWNwCfnY3F36cAUxFe1BdNbII9/VYz9Re2jWhB9aBba5fBAWNN3LSLJqk9YNhSlinTFZ8dNUeqofbMQkS8bui+IshjFr+T454kIz18EbV75AQev/q2qbmHvnG4o7OUON7dcGLD0jnn9W/hpVGl1cu+CoO7f4HbCRqKwZ0oD+Kv30LPhdJyyOK57B+diUNP2eO6zDdh9QPUhHw5ChQA31Yd0xsdH1HFRBt8fiTYl1HvLvqnBy5j7dGOUL5ZdBxE8qkzA3pi7pmMOMB0zNx99WB1zTk91zDOwXx1z4ivexNbXmiNf/maY+MNRXP/7Hi5ueR89K4ep/cuSbHDbvUPG/q03799gvX+e3L/Dav8SN3x/onfj7ZZ5EVD1eWy6yu9HNA5/0B45PcPQdMZ+xPC9Uu3/7rWL8Ewtb7i6BaP5xCX4YQXb/4uIUe3/2kXPopa3K9yCm2Pikh+wgu3/RUZ+o7H77ZbIq47/+U1Xzcf/Adobxx9jIfKq/d8wpR0qVR+A9zce18d/8pPOyOPhhpC6k7DllnndFCK+URtHokxYRfR5ez3OPsiATgcg04vvvTVDkd/NFaF9FquvTlKisXVcReRsNRtnLAz21vJI5FU/ENewbrDlLjGbRqG4apD8Ws+BjXTd+3AHez/qhZL+JvnVAx2yV0fke5ttT4F18xO08Uouvri3FsPyu1mLb/x5zGzqA+/WHyMxsB2HE9NboteXiUOtbs7riKyqMXENro2xq9WZnK6Nw/mlT6IC98s1CK0/OqvFCtFbMa5iTrSabZmacQvLI/PCTTXcYd3mq67ARMzmMSihJN01sDwGf3XE/F7H4/KXnRDqqhpDdeJxwtyLxJ+fiaY+3mj9sUUIPu4EprfsBYtdVcf5E0YUdU8mvnEHmLrigaJPrsNtc50m7hhmhAfBVR1DwzcPmI8tffuWbq4tQM8C9fB6wjx0N/Bd75z6cqZfw7dw3OZ2r+Ojlko4XW2kOlz/CC3VZ+6aNNUhehF6hypRD+yCrxMivDfxWXs/dRLFjtE42jgcmdkCYdnb4xPLL/Xt5YjMq74zbnkweKX5NZOJbzxubH0DHZv0x5w9GX44oSCkDbaXBT3gFtobi+7Yjo5FLx+IXJS2pjNxMYVUBw5S+2V0SXi6+qHVR5fSMf1Tovje/ScWB6bWhq9qd1w8q2D8Tsvc3Wj8PLIUSgxbjVvKtqJTEt/oxeirTnhdAztjniExqi2YG+Gv5L4KXt5j3qbqE2Y194NP649wLWFnVZ/wdmv0/jJRfONOf47OebxQdNiP1mkesXvwclUvuFiJr3qlT9up/XdNIr7qbV73BAp5JBHf6G14oXJutP7glEXU8BZ+GFwAHi6qD+n6ler7TAtuzOusTz5cs1XGE/NP4e/Y89g48yW89v1x/H1XHXN28zH/ZXnMAeqYK+Ol3ffM+6fa9cUDUNi7MIb8cM3qM7q1YggKeyaZ1YH7V4X7d9Jipg3T/nkm2b/UiF7cDzk8XBHY+UvcNCzy5lx0DFQSXfkl7L5n7Pd1fNyGM4bkQL+kqQ7XP0YbPze45ehnneqgPvN+6sTGTR3/lzfjzP3xTXzeMRDuPP5dxvHH4egHrZEzZ3vMOfF34vHf/gFDCniq18yDyOXmvOJk4qva/21vokvTAfho502r9y6zkcnFNx6n3qwPzyzuKPm0KSJnxfWv0CXEE5WGL8SGjRux0SjL/4e63pTAUPRZbGliJjgQoo5HFrgXHYGfHiAidmv/13iuZRH4KQHVAuziibwtJuOnpAOibn2KtjbFdx2eKJhEfJU4vlHXA65B9TFx63XzD0O9A+eWYMHGxGOI/iESuVzVWXXjd3HB6uWisWlUCbgrYfNu9I4+Ebj+VReEeFbC8IUbEt8bVZb/ry68Kc+hfWC8PbH7J6KKek88yo7DDouIcdyx11Bb1bsVeBzrzEHFuBNvoK5qIILqT8RWc2oHP6tzSxbAYlfVigcxuZpHEvG9jR8G5YGbW34MXWN53d7EbXXSkkef1UdC/b416dm39BGP0+81Rd72n6rO0lyluKdPjBjVL4Vnttja8AOIb+x+zO5ZG3V6f4iEzAd1IrWge7DqmPJj2BrzdqIouB7I1f/7JCkccTi9fBIeHzkL24z0GCvxvY2zS0ejZdvxWJueFB5ByODEn3oLDVV77l5yDH5JIYKVNvGNw/E36sHLxR1Fh29AdJpDgZbi+w/iL89DFyVxLlnckHfA97hu3k78la/RPX8tTDYPZEtRfFVb8GHvuqjbezb2mXIAFHewsGeIkhjVLv5onpNV9QnT1O/bLageJmy+miBY8ee+x0L1eze9LK9YlYCnZzmM3W5cUje4ig9b+ihZshbfW5+1ty2+659CkSTie/3rbgjzroSnvlln1ccuf6G+ln9XdTLynVne7/04FAXU8z2qvIw9lhFMEnsg4Zj3qmM2LeMxZzMfs3n/9OwcPvAsNgIb7lpvI/7su8lyfE37V9nm/vlRwtX+fZtwcnF/Yg98hD5166L37L2m6C65sxC9Qt3hnv8xrLptbOcBxFcd/0d96qFe7w+wJ0Gg1fH3CoW7Ov7HVpllNoqC643c/RYlyrcmDmd+mIInR83CFtXn6iVW4vsXTi99Gm3aj8fq8w+Q4uFgZHLxjcWOcWXhkcUDFcfvTogAGkQvUw2LmzdKt38KI0eOtFGexrsbk985If7i+wj3pJAal+YfhNs4suRFtChgSj3IksUVWWu+hC2WtpIe8VVHt2dKTS3TLt750WTMPOy1MTXaPSW+uSm+Td63kjVyb8NTKGy+FLTiXjSWDcwJN+/SaP+UrfdGlaffhfH2xCm5rGpDLuPPzUAj9V655RmMlYYDxu7BlJp+6riVZOdvgjHz9qpzVxso8Z1SPYn4xvyMkcXcTZ2Brbl9b32FTllVZ+FeHKPNN2VI176lh9hdGF+lECKX3TJXmIk7gFdq8nN1Rc5e36pmLikPIL5JuHd+K758ZSRaF1evo7djWvne6seQz80DdV63naZjRYL45kGrQR1RLKw5Zj7IVH2CkIGJ3fE/lPdSQlXxRexMEEVr0ia+8bg4s5k66VfS120Boh5QfCmbmxg5ZlsdGI53T1Bq43DkzUbI1/EznDdLY4rim4R757dh3tRRaFPCG66qLej/vSGpqk94pTYCGF1WfULj0V9ij9XcxYqYnzC8qAdcs3bBV8kE7xo+avVvxDcaywflgYdPabR7ckSKfciGayaRvbdmmBbfpKkStkh+zLf1/sXum4jq3q7wbjEbfyb5HJMPbkvL/s3AhqtJ35e0cA/nt83D1FFtUFK9plsOy8FqDyC+SdDH/+ootC3JzydxO/fWPI6Cnl6o/erhRPlOiQTxzYOWAyNQPHtzvHfcIkqcicnk4huDTaOKw12Jb6Xxe5KIbzwuzWyqGh8vtPwwnbM9XJmN5hTSrN2w4IHF10T85fUY3yAUpsnNfVDzlf2JwpIu8VXEnsTCYZURpBo6plF452uCZ789os4LE7mf+MaffVuLoGs2RnIvYWZTT7h4tURa3p70ymXsyYUYVjkIrox6u3gjX5Nn8e2RJG+mLfG9Mx9dmUPrXgbPb7cRbo/ZimdLKTF2zYbei0xv2n8lvreVZBb08oafn1/y4q06E3Zs/o0xI1ly+YOKbzxu7P0GLw/shJ5j3sfaE1dNEV8L8b08qxm81Pc9feKbC7UalFIduhvyRHyKEzbOJwTBUYnZNBolPZX4VnoRu/6V+Kqm/8OW8FHim7XrN/9CfFXNseloHOAKF96c4tnNuBv9C54uW8JqwNv9xZdtwQJMiOys2oL3sOb4n1jQIwRuSoISxVeh+oRvH6+KEDdXc5/QGM8sPITb5uXxl2ahOXNKsyvRSjrg69+Kb/wlzGruAzfvFvjgSurymLr4qmPeZzrmXsYxM+Krj9kkvncW9NDH6tvhc/yV5HNMJr7cvxbG/qUsmeki/gb2LZiIQZ17Ycx7q3HszwXomc39IYmv6fgnDjId/+pjPP5QuFts5/LslvB180yn+OZCzfql4OPqjjwd5uBo0mh7JiTTR3z3vlwFHlncUfq5bUlSHeJx4b0mOg2i1LNJl92f+LPvmISpwDCsTZMwxWDLBzOwMYWbU8Rf+R4DKbKqYfJs+HZivnF6xVcTjeNLJyCiZKBJvNxC0ei1HQnye1/xvfAemqjjci/5DLZGX8B7TTyVYJbCs1YDy2zzQHIZfRxLJ0SgZKDqANSxu4U2wms7LOTXlvhGL8OAHBwRG4RuC6wyfE3E7sb4Suo5vHy/wfSC/4n4xl/GFx3zoO5rh20KZvzFz9AhmPvpgbJjtyf5fj2I+Ebht3cjUCS4Mkatuay+vcSc6pAgvqbvtFcWJbCDViCZNyfFMtVh1TZMqZsVrq6BqDXxwW/yIggZjdi9E1DNywXupZ/Fln+V6hCPszOaqBNEdxQYujpBYlMnufiyDVjUN4+ewcU1R1fM/rAHCtZ5BfsspjhLWXxVW/BeJxQLqYyRP140i5M51SGp+GpUn7BsIjqWyqoH+bJPaPjqdi3uTANpoN4bV5/W+OjPhy2+F/B+U/V8nfIVnWSfknN/8Y3C7zzmbKZjNi02pzpYiG/U5xGmAXb138TJv607uOTiewEzm5n27+nND+GWvVG/4/3OxZGt8kisumBOFzCnOvx78VXH/35nFM9WBSNXGbMsmFMdEraj2v+ZzZT4KoEduAxRVhu2gWWqww+bMaV+iNpWIGq+vCXZSUNmI9MPbrv5VSdkVWfoOdUXIYliIPr7fsiuJNC9xCj8bCtyG3sEX8z4LkkuLBvSl1CZP9A6r6cweCkpMdg8phIavHYwhShcNL7vl11HfT3qvpE40Oo+4vt4gSTiq85eN6zekXiM905j5YTmetosl6CO+NJ8vf1+4hv761iU9XBFjn5LcDthn9xRYtTPCeJsSeyRLzDjuwv6/+mRy/hLG7B6R+IB3Tu9EhOacxovFwR1/NJcq7AlvvFn8W4THyXK7ig28ufkJyz31uPJQm5wDeqEeQ+ShpFG4g6+ijphzTEr2YmHQRR+GJQPbuozdcujGjGrqfQsxHdpyuK71MJcY7Y+rz4bFwREfK6ebZBUfNU3aYVpYCZfc7GtSH3UDixddcr0PbTK8Y1G7LHZaJtTnYR4FsfgJRfNci0IDs7Nr9FZnYS65VS/qX81uI2BlKrwcvVEndeOpn7b4QRisX9SDRSIXI47FrIc8+s4VNDTWnnAzz8XIuZaTxuVkvjGbBuLcup5AR0+sxi0ZkN8VZ+wcc2ORNlWfcKqiS2R31P9xoMi8Dkv4d/6Gl2CedvaPBi49FYS+Uuv+D6p50JOFNdoLB2QC+7qRKHEyI24Zb1xTeyRL/HuovM6yn0/8Y3ZNg7lvd30MV9N2E5y8eUAOw5gcw3thq+TpCjYSnUw9q/4iA229+/ol3hP7Z+NRUmIwbZx5eHtFoAOn/6ZKLOpie/ilMV3sYX48vgrqOMP7PAp/owzWuak4qve8ZVDUEB9vm55+uBbW1HsqN+w7EcONFRLrHJ8b+Pe0Y/QPo8HXD2LIXLRuXR8vx2PTC++8ad4m0L1Y2o0A+eS9OTxV75Ep2xseHxRafRaWI0tU2eDK55ui8cWXkkmANHLOUDMHSWf2ZpcvGxiSqvwyd4K7x+09Yzr+CIiK1zUD9BqEN7teejoz/ysZphlYanxl+agdYBqED3r461T5noliVO7DE8Sgb6Ob7qHqTPaephmvtyeKL7vJRH6OBx6pSY81dnvmE2UsXhc+bITsql1XXwrYfRa6/ch/sIKPN32MSw0v2kpDSBLiI5byGXcwanoMnwtrHf1G3QPc4VHvWnmCkXcAUzSg9tK4dmtxrsSj4tfdEIYT1gKP4F1SbMjDk9FTU93FB62OiFqmZ59SxtRWDOsCMI6fnHfWT1itj2H0u5M5QhE0/fMsqmJwucdfNXnHYiu85McQNTn6OCrPvPArpifENCOw2F+NlmU+HaYq7ojgyt68ImLa3bV8Jst+eZSDODsDaozLdJ7Ho5bHlf0Icwd1B/TD5jfBCvx5YrxuPBtXz0y21V9V2cd+tu0niA4MvGn8E4TJRo6UGB74E700v7ISfFt8v595uiN1gNr3T1K4unN6bmJRQy2P1cWoV3nI8rSoJR4fNAyWF+Zcy/yBNZGWUt59KLeyKbFtzLG7zJmf1BtwdTa8HJR4tv+UwsJvIKPWiuJccuuZMosqapPeLXbCKyxuj3ydSzomQPunvVMU7upNuDdcH+1D64Iaf4+jlnaTtwhvFIr+awOt7/qjKxurvBu+r7FdGyqj/u4LYL4Hqo2/LiuV33IvC7Iro7BxbciRq22vltd/IWVeLb9UCwwz5ebKL5vJRFfdcyv1oa3km0ec2LuLo/Zz3zMJvHFze8xIJ+HblsbTtuPewnrqq2ceBMNmNaRayC+1wPNrPcvMZJsIun+3Ze4I3i1DvONA9D+0yuJMntlDtr4K5HN3g+LEkQ2Cl90CoS7ayC6zPvLWnyjlJMEcvaKLpj3l7F+HI68Wgc++vg/wZUE8b2COW38lfhmR99FZoG+uQyDOHuDav8L9/wcRyzTV6IP44vHBmL6PvMMEFbia5rV4cKiASiqBNste0u8t9+YKSLzkenFlxHCWS0C1dl+f6gT4SREY8eE6vBXDQ/lt2CjgRj36luYNmkMetQsjMpDl+C8lRySOBycXB0eHmXxfBpSAAzurRqCvKpR8CndD5/sNs3DakL9+NY/iyp+LvAo2AcLLF9QNTyv1vbWeWCFO72FFdu3Yd28yRgQEYGGhZnHGoZmk5Zj5xllSIyO1syFtnMs56S9hcV9c8Kv+mTsMbuOIb5uudph1oHEaOOdve+hde4AVFAnAAkRxegdmFDdXw++c/EtiEYDx+HVt6Zh0pgeqFm4MoYuUWfC5lWNKcPcSzyNzRZvS+yuF1FBSadrNk4lZKqLOzgFNXO1xZzTiXuKW4vRN6cfqk/eY65QxGzCqOLqOC2n4CJxp/BFtwLwUA1HnUk7Eqc0izuN+b0KIWuFUVilzvYN0rNvaSFmzxTU8vNE7deOW7zXNri31hSZV8LqXnQoViVEfWOwcXgRuGdxQ/7e83H6xhmsmTkHPzEVJmYjhvPub2750Xv+adw4swYz52zAsU/a6WnoXHzLY8jcTdixaRHeGdUTjYozpcUbtV9ej58WrlQbiMPx2W2QXX3Xsri4Iah4I3R57BmMezoSrcoUQ7M3d6tvvRl2bDU89WsNNWaFwA2sH10ePi7qu1rmMSw+Y3GmIAgOSTzOftAKQe45dWTMIuiawLVP28Lf1ZhRIIXeXrexXvAs+1yKKRM2MfdBniWf1rNKWD7z1orBKOjhg1qv7E8SYYvDyTcbKNlTv2O33Oi/5C+zhMTj8qcdtGCyLRj82c/4VbUFM0b3QuMSTGXwRq2X1mKjagv+iT2IV2rnQbuPrKfqWtI/NwKqTzLnO8fj2rLBKOLJAJAfird/AXOWrMHqRR9i/MAOqJrXXZ1YW4tv3KHXUNfXDa4ehdFx2nJs27oO86YMRMeODXWqg2tYU0xY+htOK5FH9G+YWFP1v7rtKoiGA8Zi6pvsQ3qiVpHKeGzRHwmyeWdxX+RQEupRfhx2JMxcQEzHHKyPuRwGf/pT8mMevxYbFqhj/udvHHynKUIps36l0Out5dh1/i/cOL4Gb/Qsp6dLc3Evgo6TPsL3u64h7u4OTKplTgFJtn9V1P6dtZLhFIm/jM8igtV2XOBbbhA+/Wk7fl40A6N7NUaJrOq98q6F8Ws2YMHKA2of7+GnkcXh5eqO/L3m4cS101g762P8dEMdc8xPGFnCC67u+dFz3glcO70Wsz7egKOfdECIFvRyGPTJRmz/2eL4XXn8a8zHH4sTH7VHLv15qva/WEN0HvI0xqr2v3XZ4mj2xu+JUfq4w0rWffRrDTFmhVDt/4ZnKsFPndj4lB6Mb0/xxiV67UxF5hdfRdS6p1DcsyCGrbWQJ4O481g5vhWKBrhpwdOSElIB3V9ZBZt9ftxJTG/oi6AWs3A6mRSnDKdAq5e3Frr3aY9aJUuiWouuiBw2BL1bVUQOTz8UbDIG3xxJvn+3tr2JtoWU/OrBb57IXW8kvj22H6+oxiR3lfYYNuljrDkSpV5ANXKN86FIyRro/PQ0zPnyc7z7XAfUajxCbTfR9gzx9SjTHr0bVUWjroMwuGcLVC1bFV2mrMWFJCYXd34lxrcqigCKlN4Hd4RU6I5XVhl3novD2XXv4qmGufRlfRf3PGj4xGtYfOAOLv48C8NZzxML1yBU6TcF3x+JU7v6ChrnK4KSNTrj6Wlz8OXn7+K5DrXQeMQ3MO1qHE6tnY3JQ+qY7m2fxRXZqg/ExDk/4ZyxfzEnsXR8B5TJFoaSzfpjzLhR6Nu0Bur3nY6fEyZFTv++3Z9Y7P38KYQX5IwNLvAq1BTDJiyEEUBNRDXUP8/G/4Y0RgHPxPctR60BmLbWlEIQu+dNNArjd05934KqYtQPRmpBLPa82ch0j371nKCqo/ADo/3ROzG9ZV49Epzfg2zlOmGS+gzOzo3Q0W/eiKP+C2v1FtRpP3bM6ocqYaY7Berc8Vx18PgnO6HaVoU62dr6KV5+rBHyqY4qixLwnPUfx9SP1uFUzCmsm9YZRRipVs/zyFkFnUZ+gC3XjPdUEByQqPUYXtIbhYautko3iL+0BfPefA4dSvjqVDMXJZn1h07EO19uxnmrUJxqTU6+jcb+wWgx82TaZEidku/4bByGtC2jpI2/Wx8UbNgfz374C64Z247di8mteuELi6hi1I65ePGJjqgUyinPTL9D7/z10ffpGVinGuh/VFvwduv8+g5fpragIyauPI0zczuaopeqLaj3v9WIV+I7NbwAiqo+odOYN/CR7hMiULvJCMw/pITG/HqU4R0zuqB0kKd+PRf3AOStORAf/X4Ks21MZ8b1t7/VHkV8lFxxfc/cqDtiAY7sewW1g/KgSruhqq1ejcPmu8jFnV+Fl9oUN90kicfDPqR8N0xZccok5PHnsOH9Z9CxjElAGdCpMeAlzFh6IDFNI3qXPmZv45jLqmNWzz8zt5OWZX3M41YjjjsZfxWb3uyKciEepkHj6v3zKRyBt394FY0DsqFE43548cMfcei66T3n/r2s9i+ru+l4jP2brLaf0jmQLaJ3vYM2BbxN3yPPbCjbcQJWnDqDuZ1ywF0JsVtYPYz70ZQ2Ebt3OsJzcv/Y/lfBiKXnzN8p1cdMD0dOD4qrav+rjMDSc2o/1fG/06aA1fFPUPt3Wh1/TtWGm47/R9Pxq/b/t9kDUT0Hb49tOn7PXLUxdM4OXNMvotr/bXMxcVgTfQc5TquXs95QTJm9BieiT2L9W91QXNez/a+MjsNn4pc/0xD1diCcQnx5J5OlkUWRt7etqaVMxEedw76tv2Db/rO4eZ8g171fx6FiWCNM25/2aK8m7gx27TZu/XoPlw9sxuol32LRqq04dPG2uT4F7l3D8Z3bsefsLaVyugJXL103/98gDnfumC5X37l8BL/9shk7T1xPlophleMbewMnfvsF2w9dsU47SEY8os7tw9ZftmH/2Ztm4f0XxN2BaVfv4PKR3/DL5p04cT2d76fBvSs49ttmbNq6G6du/Os9sysx145jx9adar+TCncMrh3fga07T8F60R1c2L8Du07dtPjso3F+r/punLPxHVLvzZEdm9V3+jyikr6EIDgVqrNfNgjF8/XGwqu283zvzz38+r/KyNH4DezNEHezSktbkLY+IYHYazi2c5dqi4121HaOr8E91X7t3L4HZ2+Z9+DeVVy6nlJDwz5kP7b9qz5EHfOB3/QxJz5fHfO+X9UxRyXpDxV3LuDg9k34Zcdx8GZ0vCXy2Qs2gl8ay/27gQdO8lKveeC3XdZ9UfR57Pt1D84laYRjrp3Ab9tU+28W8ERU+3/iN2xT7f91qzMs4/hvWJx43ef4Vft/9Lctqv0/h1uO1TX+5ziH+JKbm/BCvTp4btO/GK8esw9vNC6J9h8e+ffy94i43+A2QRCEzMtNbHqxPuo+9zP+Sqe7xuybhvDSHTD7kJFr6wzcX3wFwVFxHvFVxJ//Hk+16oM5B+8f37RJ3GksfKwJIqZts32zBQch5cFtgiAImZz481g6vDX6zjmAtAZu405/i6HhHTFt6w0nkl5yVcRXyJQ4lfiSuAtrMDlyMGbtSof8xh3H/Gcfw4Rlp1O+TOQg3F7YHcFKfD2qT8GhlK5KCYIgZFbiLmDtlEEYMmtnqgN34o5/g+eGTsBSDvIx1zkNcfsxqTpndciG3t+J+AqZB6cTXxOxiElXrkIsYh09Ryb+An759GX0rBhkSr73yI9mo17DzMV7kOSGu4IgCJme2LR0Aqrhd770yFvYu+RdvDSghmmQLQcXV4vEG8uPpjlKLggZGScVX2ckFrevX8PVq1etyrWb0eaBEIIgCIIQj+ibNvqKW/ekrxAyBSK+giAIgiAIglMg4isIgiAIgiA4BSK+giAIgiAIglMg4isIgiAIgiA4BSK+giAIgiAIglMg4isIgiAIgiA4BSK+giAIgiAIglMg4isIgiAIgiA4BSK+giAIgiAIghMA/B8t3PSDjEW6DQAAAABJRU5ErkJggg==;imageBorder=default;strokeWidth=3;clipPath=inset(1.33% 0% 33.33% 1.22%);" vertex="1" parent="1">
          <mxGeometry x="270" y="-140" width="702" height="566.2222222222222" as="geometry" />
        </mxCell>
        <mxCell id="mkm3d1DuU5u3OIYWBEYe-6" value="" style="endArrow=none;html=1;rounded=0;entryX=0.5;entryY=0;entryDx=0;entryDy=0;strokeWidth=3;exitX=0.5;exitY=1;exitDx=0;exitDy=0;" edge="1" parent="1" source="mkm3d1DuU5u3OIYWBEYe-1" target="mkm3d1DuU5u3OIYWBEYe-1">
          <mxGeometry width="50" height="50" relative="1" as="geometry">
            <mxPoint x="621" y="420" as="sourcePoint" />
            <mxPoint x="420" y="440" as="targetPoint" />
          </mxGeometry>
        </mxCell>
        <mxCell id="mkm3d1DuU5u3OIYWBEYe-7" value="" style="endArrow=none;html=1;rounded=0;entryX=-0.001;entryY=0.34;entryDx=0;entryDy=0;exitX=0.999;exitY=0.338;exitDx=0;exitDy=0;strokeWidth=3;entryPerimeter=0;exitPerimeter=0;" edge="1" parent="1">
          <mxGeometry width="50" height="50" relative="1" as="geometry">
            <mxPoint x="971.9980000000003" y="142.39311111111124" as="sourcePoint" />
            <mxPoint x="269.99799999999976" y="143.52555555555546" as="targetPoint" />
          </mxGeometry>
        </mxCell>
        <mxCell id="mkm3d1DuU5u3OIYWBEYe-13" value="&lt;font style=&quot;font-size: 11px;&quot;&gt;0x18FEF100&lt;/font&gt;" style="rounded=0;whiteSpace=wrap;html=1;strokeWidth=2;fontStyle=1;imageHeight=22;imageWidth=22;imageAspect=0;fillColor=#0EE80E;strokeColor=#82b366;" vertex="1" parent="1">
          <mxGeometry x="290" y="-60" width="70" height="20" as="geometry" />
        </mxCell>
        <mxCell id="mkm3d1DuU5u3OIYWBEYe-14" value="&lt;font style=&quot;font-size: 11px;&quot;&gt;0x18FEF100&lt;/font&gt;" style="rounded=0;whiteSpace=wrap;html=1;strokeWidth=2;fontStyle=1;imageHeight=22;imageWidth=22;imageAspect=0;fillColor=#0EE80E;strokeColor=#82b366;" vertex="1" parent="1">
          <mxGeometry x="368" y="-60" width="70" height="20" as="geometry" />
        </mxCell>
        <mxCell id="mkm3d1DuU5u3OIYWBEYe-15" value="" style="verticalLabelPosition=bottom;verticalAlign=top;html=1;shape=mxgraph.basic.x;fillColor=#FF760D;" vertex="1" parent="1">
          <mxGeometry x="430" y="-60" width="20" height="20" as="geometry" />
        </mxCell>
        <mxCell id="mkm3d1DuU5u3OIYWBEYe-16" value="&lt;font style=&quot;font-size: 11px;&quot;&gt;0x18FEF100&lt;/font&gt;" style="rounded=0;whiteSpace=wrap;html=1;strokeWidth=1;fontStyle=1;imageHeight=22;imageWidth=22;imageAspect=0;fillColor=#0EE80E;strokeColor=#82b366;" vertex="1" parent="1">
          <mxGeometry x="510" y="-90" width="70" height="20" as="geometry" />
        </mxCell>
        <mxCell id="mkm3d1DuU5u3OIYWBEYe-17" value="&lt;font style=&quot;font-size: 11px;&quot;&gt;0x18FEF100&lt;/font&gt;" style="rounded=0;whiteSpace=wrap;html=1;strokeWidth=2;fontStyle=1;imageHeight=22;imageWidth=22;imageAspect=0;fillColor=#0EE80E;strokeColor=#82b366;" vertex="1" parent="1">
          <mxGeometry x="290" y="232" width="70" height="20" as="geometry" />
        </mxCell>
        <mxCell id="mkm3d1DuU5u3OIYWBEYe-18" value="&lt;font style=&quot;font-size: 11px;&quot;&gt;0x18FEF100&lt;/font&gt;" style="rounded=0;whiteSpace=wrap;html=1;strokeWidth=2;fontStyle=1;imageHeight=22;imageWidth=22;imageAspect=0;fillColor=#0EE80E;strokeColor=#82b366;" vertex="1" parent="1">
          <mxGeometry x="510" y="200" width="70" height="20" as="geometry" />
        </mxCell>
        <mxCell id="mkm3d1DuU5u3OIYWBEYe-19" value="&lt;font style=&quot;font-size: 11px;&quot;&gt;0x18FEF100&lt;/font&gt;" style="rounded=0;whiteSpace=wrap;html=1;strokeWidth=2;fontStyle=1;imageHeight=22;imageWidth=22;imageAspect=0;fillColor=#FF0000;strokeColor=#82b366;" vertex="1" parent="1">
          <mxGeometry x="368" y="310" width="70" height="20" as="geometry" />
        </mxCell>
        <mxCell id="mkm3d1DuU5u3OIYWBEYe-20" value="&lt;font style=&quot;font-size: 11px;&quot;&gt;0x18FEF100&lt;/font&gt;" style="rounded=0;whiteSpace=wrap;html=1;strokeWidth=2;fontStyle=1;imageHeight=22;imageWidth=22;imageAspect=0;fillColor=#FF0000;strokeColor=#82b366;" vertex="1" parent="1">
          <mxGeometry x="450" y="310" width="70" height="20" as="geometry" />
        </mxCell>
        <mxCell id="mkm3d1DuU5u3OIYWBEYe-21" value="" style="rounded=0;whiteSpace=wrap;html=1;strokeColor=none;" vertex="1" parent="1">
          <mxGeometry x="379" y="289" width="52" height="20" as="geometry" />
        </mxCell>
        <mxCell id="mkm3d1DuU5u3OIYWBEYe-22" value="" style="rounded=0;whiteSpace=wrap;html=1;strokeColor=none;" vertex="1" parent="1">
          <mxGeometry x="447" y="289" width="60" height="20" as="geometry" />
        </mxCell>
        <mxCell id="mkm3d1DuU5u3OIYWBEYe-23" value="&lt;font style=&quot;font-size: 11px;&quot;&gt;0x18FEF100&lt;/font&gt;" style="rounded=0;whiteSpace=wrap;html=1;strokeWidth=2;fontStyle=1;imageHeight=22;imageWidth=22;imageAspect=0;fillColor=#FF0000;strokeColor=#82b366;" vertex="1" parent="1">
          <mxGeometry x="760" y="310" width="70" height="20" as="geometry" />
        </mxCell>
        <mxCell id="mkm3d1DuU5u3OIYWBEYe-24" value="" style="rounded=0;whiteSpace=wrap;html=1;strokeColor=none;" vertex="1" parent="1">
          <mxGeometry x="760" y="290" width="60" height="19" as="geometry" />
        </mxCell>
        <mxCell id="mkm3d1DuU5u3OIYWBEYe-25" value="&lt;font style=&quot;font-size: 11px;&quot;&gt;0x18FEF100&lt;/font&gt;" style="rounded=0;whiteSpace=wrap;html=1;strokeWidth=2;fontStyle=1;imageHeight=22;imageWidth=22;imageAspect=0;fillColor=#0EE80E;strokeColor=#82b366;" vertex="1" parent="1">
          <mxGeometry x="660" y="232" width="70" height="20" as="geometry" />
        </mxCell>
        <mxCell id="mkm3d1DuU5u3OIYWBEYe-26" value="&lt;font style=&quot;font-size: 11px;&quot;&gt;0x18FEF100&lt;/font&gt;" style="rounded=0;whiteSpace=wrap;html=1;strokeWidth=2;fontStyle=1;imageHeight=22;imageWidth=22;imageAspect=0;fillColor=#0EE80E;strokeColor=#82b366;" vertex="1" parent="1">
          <mxGeometry x="900" y="200" width="70" height="20" as="geometry" />
        </mxCell>
        <mxCell id="mkm3d1DuU5u3OIYWBEYe-27" value="&lt;font style=&quot;font-size: 11px;&quot;&gt;0x18FEF100&lt;/font&gt;" style="rounded=0;whiteSpace=wrap;html=1;strokeWidth=2;fontStyle=1;imageHeight=22;imageWidth=22;imageAspect=0;fillColor=#FF0000;strokeColor=#82b366;" vertex="1" parent="1">
          <mxGeometry x="900" y="242" width="70" height="20" as="geometry" />
        </mxCell>
        <mxCell id="mkm3d1DuU5u3OIYWBEYe-28" value="&lt;font style=&quot;font-size: 11px;&quot;&gt;0x18FEF100&lt;/font&gt;" style="rounded=0;whiteSpace=wrap;html=1;strokeWidth=2;fontStyle=1;imageHeight=22;imageWidth=22;imageAspect=0;fillColor=#0EE80E;strokeColor=#82b366;" vertex="1" parent="1">
          <mxGeometry x="679" y="-56" width="70" height="20" as="geometry" />
        </mxCell>
        <mxCell id="mkm3d1DuU5u3OIYWBEYe-29" value="&lt;font style=&quot;font-size: 11px;&quot;&gt;0x18FEF100&lt;/font&gt;" style="rounded=0;whiteSpace=wrap;html=1;strokeWidth=2;fontStyle=1;imageHeight=22;imageWidth=22;imageAspect=0;fillColor=#0EE80E;strokeColor=#82b366;" vertex="1" parent="1">
          <mxGeometry x="900" y="-90" width="70" height="20" as="geometry" />
        </mxCell>
      </root>
    </mxGraphModel>
  </diagram>
</mxfile>
